<svg width="518" height="459" viewBox="0 0 518 459" fill="none" xmlns="http://www.w3.org/2000/svg">
<rect width="518" height="459" rx="16" fill="#E2E2E2"/>
<path d="M75.755 45.534H78.212L81.848 53.067H81.686L85.322 45.534H87.698V57H85.97V47.415H86.249L82.325 55.641H81.2L77.294 47.46H77.465V57H75.755V45.534ZM95.4002 57.234C94.4222 57.234 93.5522 57.012 92.7902 56.568C92.0282 56.124 91.4282 55.461 90.9902 54.579C90.5582 53.697 90.3422 52.596 90.3422 51.276C90.3422 49.932 90.5582 48.822 90.9902 47.946C91.4282 47.064 92.0282 46.407 92.7902 45.975C93.5522 45.543 94.4222 45.327 95.4002 45.327C96.3842 45.327 97.2572 45.546 98.0192 45.984C98.7872 46.422 99.3872 47.085 99.8192 47.973C100.257 48.855 100.476 49.956 100.476 51.276C100.476 52.608 100.257 53.718 99.8192 54.606C99.3872 55.488 98.7872 56.148 98.0192 56.586C97.2572 57.018 96.3842 57.234 95.4002 57.234ZM95.4002 55.668C96.4202 55.668 97.2242 55.293 97.8122 54.543C98.4062 53.793 98.7032 52.698 98.7032 51.258C98.7032 49.854 98.4062 48.771 97.8122 48.009C97.2242 47.241 96.4202 46.857 95.4002 46.857C94.3982 46.857 93.6002 47.241 93.0062 48.009C92.4122 48.777 92.1152 49.866 92.1152 51.276C92.1152 52.704 92.4122 53.793 93.0062 54.543C93.6002 55.293 94.3982 55.668 95.4002 55.668ZM103.107 57V45.534H107.544C108.402 45.534 109.113 45.672 109.677 45.948C110.247 46.224 110.673 46.59 110.955 47.046C111.237 47.502 111.378 48.003 111.378 48.549C111.378 49.203 111.195 49.767 110.829 50.241C110.469 50.715 109.941 51.042 109.245 51.222C109.701 51.3 110.103 51.465 110.451 51.717C110.799 51.963 111.072 52.269 111.27 52.635C111.474 53.001 111.576 53.406 111.576 53.85C111.576 54.228 111.51 54.603 111.378 54.975C111.246 55.347 111.027 55.686 110.721 55.992C110.415 56.298 110.004 56.544 109.488 56.73C108.972 56.91 108.327 57 107.553 57H103.107ZM104.817 55.506H107.517C108.297 55.506 108.861 55.344 109.209 55.02C109.563 54.696 109.74 54.276 109.74 53.76C109.74 53.238 109.554 52.818 109.182 52.5C108.81 52.182 108.255 52.023 107.517 52.023H104.817V55.506ZM104.817 47.01V50.538H107.481C108.147 50.538 108.669 50.379 109.047 50.061C109.431 49.743 109.623 49.302 109.623 48.738C109.623 48.204 109.437 47.784 109.065 47.478C108.699 47.166 108.177 47.01 107.499 47.01H104.817ZM114.497 57V45.534H116.207V57H114.497ZM121.428 45.534V55.506H126.369V57H119.718V45.534H121.428ZM128.313 57V45.534H135.513V47.01H130.023V50.502H135.189V51.978H130.023V55.506H135.513V57H128.313ZM142.243 55.524C142.243 55.188 142.357 54.903 142.585 54.669C142.819 54.435 143.113 54.318 143.467 54.318C143.821 54.318 144.121 54.435 144.367 54.669C144.613 54.903 144.736 55.188 144.736 55.524C144.736 55.854 144.613 56.133 144.367 56.361C144.121 56.583 143.821 56.694 143.467 56.694C143.113 56.694 142.819 56.58 142.585 56.352C142.357 56.124 142.243 55.848 142.243 55.524ZM142.243 50.07C142.243 49.734 142.357 49.449 142.585 49.215C142.819 48.981 143.113 48.864 143.467 48.864C143.821 48.864 144.121 48.981 144.367 49.215C144.613 49.449 144.736 49.734 144.736 50.07C144.736 50.4 144.613 50.679 144.367 50.907C144.121 51.129 143.821 51.24 143.467 51.24C143.113 51.24 142.819 51.126 142.585 50.898C142.357 50.67 142.243 50.394 142.243 50.07ZM155.018 57.234C154.31 57.234 153.65 57.045 153.038 56.667C152.426 56.289 151.934 55.758 151.562 55.074C151.19 54.39 151.004 53.586 151.004 52.662C151.004 51.69 151.19 50.868 151.562 50.196C151.934 49.518 152.426 49.002 153.038 48.648C153.65 48.288 154.31 48.108 155.018 48.108C155.54 48.108 156.005 48.192 156.413 48.36C156.821 48.522 157.172 48.744 157.466 49.026C157.76 49.302 157.997 49.614 158.177 49.962C158.363 50.31 158.492 50.67 158.564 51.042L156.827 51.132C156.701 50.682 156.479 50.322 156.161 50.052C155.849 49.776 155.462 49.638 155 49.638C154.61 49.638 154.241 49.749 153.893 49.971C153.551 50.187 153.272 50.52 153.056 50.97C152.846 51.414 152.741 51.978 152.741 52.662C152.741 53.298 152.84 53.841 153.038 54.291C153.236 54.741 153.506 55.086 153.848 55.326C154.19 55.566 154.574 55.686 155 55.686C155.612 55.686 156.068 55.539 156.368 55.245C156.674 54.945 156.827 54.534 156.827 54.012H158.564C158.564 54.618 158.423 55.164 158.141 55.65C157.859 56.136 157.451 56.523 156.917 56.811C156.389 57.093 155.756 57.234 155.018 57.234ZM167.321 57V51.924C167.321 51.174 167.141 50.607 166.781 50.223C166.427 49.833 165.947 49.638 165.341 49.638C164.861 49.638 164.441 49.77 164.081 50.034C163.727 50.292 163.451 50.673 163.253 51.177C163.061 51.675 162.965 52.284 162.965 53.004H162.353C162.353 51.942 162.488 51.048 162.758 50.322C163.034 49.596 163.427 49.047 163.937 48.675C164.447 48.297 165.059 48.108 165.773 48.108C166.469 48.108 167.057 48.264 167.537 48.576C168.023 48.888 168.392 49.332 168.644 49.908C168.896 50.478 169.022 51.15 169.022 51.924V57H167.321ZM161.255 57V44.697H162.965V57H161.255ZM175.381 57.234C174.637 57.234 173.965 57.042 173.365 56.658C172.765 56.274 172.288 55.74 171.934 55.056C171.586 54.372 171.412 53.58 171.412 52.68C171.412 51.726 171.586 50.91 171.934 50.232C172.282 49.548 172.756 49.023 173.356 48.657C173.956 48.291 174.631 48.108 175.381 48.108C176.053 48.108 176.629 48.246 177.109 48.522C177.589 48.792 177.976 49.158 178.27 49.62C178.564 50.076 178.765 50.595 178.873 51.177C178.987 51.759 179.008 52.359 178.936 52.977H172.78V51.987H177.766L177.352 52.257C177.37 51.933 177.352 51.609 177.298 51.285C177.25 50.961 177.154 50.664 177.01 50.394C176.866 50.118 176.662 49.899 176.398 49.737C176.14 49.569 175.81 49.485 175.408 49.485C174.904 49.485 174.481 49.611 174.139 49.863C173.803 50.115 173.548 50.454 173.374 50.88C173.2 51.3 173.113 51.762 173.113 52.266V52.959C173.113 53.517 173.197 54.012 173.365 54.444C173.533 54.876 173.782 55.218 174.112 55.47C174.448 55.716 174.871 55.839 175.381 55.839C175.879 55.839 176.29 55.722 176.614 55.488C176.944 55.254 177.148 54.903 177.226 54.435H178.972C178.882 54.999 178.675 55.491 178.351 55.911C178.027 56.331 177.61 56.658 177.1 56.892C176.596 57.12 176.023 57.234 175.381 57.234ZM184.796 57.234C184.088 57.234 183.428 57.045 182.816 56.667C182.204 56.289 181.712 55.758 181.34 55.074C180.968 54.39 180.782 53.586 180.782 52.662C180.782 51.69 180.968 50.868 181.34 50.196C181.712 49.518 182.204 49.002 182.816 48.648C183.428 48.288 184.088 48.108 184.796 48.108C185.318 48.108 185.783 48.192 186.191 48.36C186.599 48.522 186.95 48.744 187.244 49.026C187.538 49.302 187.775 49.614 187.955 49.962C188.141 50.31 188.27 50.67 188.342 51.042L186.605 51.132C186.479 50.682 186.257 50.322 185.939 50.052C185.627 49.776 185.24 49.638 184.778 49.638C184.388 49.638 184.019 49.749 183.671 49.971C183.329 50.187 183.05 50.52 182.834 50.97C182.624 51.414 182.519 51.978 182.519 52.662C182.519 53.298 182.618 53.841 182.816 54.291C183.014 54.741 183.284 55.086 183.626 55.326C183.968 55.566 184.352 55.686 184.778 55.686C185.39 55.686 185.846 55.539 186.146 55.245C186.452 54.945 186.605 54.534 186.605 54.012H188.342C188.342 54.618 188.201 55.164 187.919 55.65C187.637 56.136 187.229 56.523 186.695 56.811C186.167 57.093 185.534 57.234 184.796 57.234ZM191.032 57V44.697H192.742V57H191.032ZM192.499 51.861L196.612 48.342H198.961L192.499 53.652V51.861ZM197.08 57L193.066 51.51L194.74 51.159L199.168 57H197.08ZM205.553 57.234C204.989 57.234 204.476 57.084 204.014 56.784C203.558 56.478 203.192 56.028 202.916 55.434C202.646 54.84 202.511 54.111 202.511 53.247H203.096C203.096 53.751 203.204 54.186 203.42 54.552C203.642 54.918 203.924 55.2 204.266 55.398C204.608 55.59 204.965 55.686 205.337 55.686C205.781 55.686 206.18 55.563 206.534 55.317C206.894 55.071 207.179 54.72 207.389 54.264C207.605 53.802 207.713 53.259 207.713 52.635C207.713 52.017 207.608 51.486 207.398 51.042C207.188 50.592 206.903 50.247 206.543 50.007C206.183 49.761 205.775 49.638 205.319 49.638C204.935 49.638 204.572 49.731 204.23 49.917C203.894 50.103 203.621 50.379 203.411 50.745C203.201 51.105 203.096 51.546 203.096 52.068H202.511C202.511 51.222 202.643 50.505 202.907 49.917C203.171 49.329 203.537 48.882 204.005 48.576C204.479 48.264 205.034 48.108 205.67 48.108C206.36 48.108 206.99 48.294 207.56 48.666C208.136 49.032 208.595 49.554 208.937 50.232C209.285 50.91 209.459 51.711 209.459 52.635C209.459 53.565 209.282 54.375 208.928 55.065C208.574 55.749 208.1 56.283 207.506 56.667C206.918 57.045 206.267 57.234 205.553 57.234ZM201.386 57V44.697H203.096V54.921L202.547 57H201.386ZM215.472 57.234C214.686 57.234 213.981 57.063 213.357 56.721C212.739 56.379 212.25 55.869 211.89 55.191C211.53 54.513 211.35 53.676 211.35 52.68C211.35 51.666 211.53 50.823 211.89 50.151C212.25 49.473 212.739 48.963 213.357 48.621C213.981 48.279 214.686 48.108 215.472 48.108C216.246 48.108 216.942 48.279 217.56 48.621C218.178 48.963 218.664 49.473 219.018 50.151C219.378 50.823 219.558 51.666 219.558 52.68C219.558 53.676 219.378 54.513 219.018 55.191C218.664 55.869 218.178 56.379 217.56 56.721C216.942 57.063 216.246 57.234 215.472 57.234ZM215.418 55.74C215.916 55.74 216.345 55.62 216.705 55.38C217.071 55.14 217.35 54.792 217.542 54.336C217.74 53.874 217.839 53.322 217.839 52.68C217.839 51.696 217.638 50.934 217.236 50.394C216.84 49.854 216.267 49.584 215.517 49.584C215.013 49.584 214.578 49.707 214.212 49.953C213.852 50.193 213.573 50.544 213.375 51.006C213.183 51.462 213.087 52.02 213.087 52.68C213.087 53.646 213.288 54.399 213.69 54.939C214.092 55.473 214.668 55.74 215.418 55.74ZM220.83 57L224.151 52.68L220.83 48.315H222.927L225.258 51.384L227.481 48.315H229.569L226.248 52.68L229.56 57H227.472L225.132 53.922L222.927 57H220.83ZM231.744 59.169L230.466 58.53C230.832 58.344 231.147 58.137 231.411 57.909C231.675 57.681 231.849 57.408 231.933 57.09C231.645 57.048 231.399 56.937 231.195 56.757C230.991 56.577 230.889 56.34 230.889 56.046C230.889 55.746 231 55.494 231.222 55.29C231.45 55.08 231.738 54.975 232.086 54.975C232.524 54.975 232.872 55.131 233.13 55.443C233.394 55.755 233.526 56.127 233.526 56.559C233.526 57.057 233.37 57.543 233.058 58.017C232.752 58.497 232.314 58.881 231.744 59.169ZM243.384 57.234C242.544 57.234 241.836 57.117 241.26 56.883C240.684 56.643 240.243 56.313 239.937 55.893C239.637 55.467 239.481 54.969 239.469 54.399H241.08C241.104 54.897 241.302 55.266 241.674 55.506C242.052 55.746 242.562 55.866 243.204 55.866C243.546 55.866 243.855 55.812 244.131 55.704C244.413 55.596 244.635 55.449 244.797 55.263C244.965 55.077 245.049 54.867 245.049 54.633C245.049 54.339 244.941 54.108 244.725 53.94C244.509 53.766 244.161 53.613 243.681 53.481L241.908 52.878C241.2 52.638 240.657 52.32 240.279 51.924C239.901 51.522 239.712 51.042 239.712 50.484C239.712 49.77 240.03 49.197 240.666 48.765C241.302 48.327 242.145 48.108 243.195 48.108C244.281 48.108 245.118 48.339 245.706 48.801C246.3 49.257 246.609 49.83 246.633 50.52H244.986C244.944 50.178 244.773 49.917 244.473 49.737C244.179 49.551 243.753 49.458 243.195 49.458C242.673 49.458 242.262 49.572 241.962 49.8C241.668 50.028 241.521 50.286 241.521 50.574C241.521 51.09 241.965 51.474 242.853 51.726L244.716 52.383C245.424 52.611 245.97 52.905 246.354 53.265C246.738 53.625 246.93 54.081 246.93 54.633C246.93 55.077 246.783 55.497 246.489 55.893C246.195 56.289 245.781 56.613 245.247 56.865C244.719 57.111 244.098 57.234 243.384 57.234ZM252.796 57.234C252.052 57.234 251.38 57.042 250.78 56.658C250.18 56.274 249.703 55.74 249.349 55.056C249.001 54.372 248.827 53.58 248.827 52.68C248.827 51.726 249.001 50.91 249.349 50.232C249.697 49.548 250.171 49.023 250.771 48.657C251.371 48.291 252.046 48.108 252.796 48.108C253.468 48.108 254.044 48.246 254.524 48.522C255.004 48.792 255.391 49.158 255.685 49.62C255.979 50.076 256.18 50.595 256.288 51.177C256.402 51.759 256.423 52.359 256.351 52.977H250.195V51.987H255.181L254.767 52.257C254.785 51.933 254.767 51.609 254.713 51.285C254.665 50.961 254.569 50.664 254.425 50.394C254.281 50.118 254.077 49.899 253.813 49.737C253.555 49.569 253.225 49.485 252.823 49.485C252.319 49.485 251.896 49.611 251.554 49.863C251.218 50.115 250.963 50.454 250.789 50.88C250.615 51.3 250.528 51.762 250.528 52.266V52.959C250.528 53.517 250.612 54.012 250.78 54.444C250.948 54.876 251.197 55.218 251.527 55.47C251.863 55.716 252.286 55.839 252.796 55.839C253.294 55.839 253.705 55.722 254.029 55.488C254.359 55.254 254.563 54.903 254.641 54.435H256.387C256.297 54.999 256.09 55.491 255.766 55.911C255.442 56.331 255.025 56.658 254.515 56.892C254.011 57.12 253.438 57.234 252.796 57.234ZM252.076 46.956L251.239 46.272L254.407 43.032L255.568 43.977L252.076 46.956ZM259.06 57V44.697H260.77V57H259.06ZM267.385 57.234C266.641 57.234 265.969 57.042 265.369 56.658C264.769 56.274 264.292 55.74 263.938 55.056C263.59 54.372 263.416 53.58 263.416 52.68C263.416 51.726 263.59 50.91 263.938 50.232C264.286 49.548 264.76 49.023 265.36 48.657C265.96 48.291 266.635 48.108 267.385 48.108C268.057 48.108 268.633 48.246 269.113 48.522C269.593 48.792 269.98 49.158 270.274 49.62C270.568 50.076 270.769 50.595 270.877 51.177C270.991 51.759 271.012 52.359 270.94 52.977H264.784V51.987H269.77L269.356 52.257C269.374 51.933 269.356 51.609 269.302 51.285C269.254 50.961 269.158 50.664 269.014 50.394C268.87 50.118 268.666 49.899 268.402 49.737C268.144 49.569 267.814 49.485 267.412 49.485C266.908 49.485 266.485 49.611 266.143 49.863C265.807 50.115 265.552 50.454 265.378 50.88C265.204 51.3 265.117 51.762 265.117 52.266V52.959C265.117 53.517 265.201 54.012 265.369 54.444C265.537 54.876 265.786 55.218 266.116 55.47C266.452 55.716 266.875 55.839 267.385 55.839C267.883 55.839 268.294 55.722 268.618 55.488C268.948 55.254 269.152 54.903 269.23 54.435H270.976C270.886 54.999 270.679 55.491 270.355 55.911C270.031 56.331 269.614 56.658 269.104 56.892C268.6 57.12 268.027 57.234 267.385 57.234ZM276.8 57.234C276.092 57.234 275.432 57.045 274.82 56.667C274.208 56.289 273.716 55.758 273.344 55.074C272.972 54.39 272.786 53.586 272.786 52.662C272.786 51.69 272.972 50.868 273.344 50.196C273.716 49.518 274.208 49.002 274.82 48.648C275.432 48.288 276.092 48.108 276.8 48.108C277.322 48.108 277.787 48.192 278.195 48.36C278.603 48.522 278.954 48.744 279.248 49.026C279.542 49.302 279.779 49.614 279.959 49.962C280.145 50.31 280.274 50.67 280.346 51.042L278.609 51.132C278.483 50.682 278.261 50.322 277.943 50.052C277.631 49.776 277.244 49.638 276.782 49.638C276.392 49.638 276.023 49.749 275.675 49.971C275.333 50.187 275.054 50.52 274.838 50.97C274.628 51.414 274.523 51.978 274.523 52.662C274.523 53.298 274.622 53.841 274.82 54.291C275.018 54.741 275.288 55.086 275.63 55.326C275.972 55.566 276.356 55.686 276.782 55.686C277.394 55.686 277.85 55.539 278.15 55.245C278.456 54.945 278.609 54.534 278.609 54.012H280.346C280.346 54.618 280.205 55.164 279.923 55.65C279.641 56.136 279.233 56.523 278.699 56.811C278.171 57.093 277.538 57.234 276.8 57.234ZM285.817 57.234C285.325 57.234 284.881 57.141 284.485 56.955C284.089 56.769 283.774 56.49 283.54 56.118C283.312 55.74 283.198 55.266 283.198 54.696V45.984H284.899V54.642C284.899 55.458 285.28 55.866 286.042 55.866C286.276 55.866 286.504 55.842 286.726 55.794C286.948 55.74 287.2 55.662 287.482 55.56L287.725 56.775C287.407 56.907 287.092 57.015 286.78 57.099C286.474 57.189 286.153 57.234 285.817 57.234ZM281.875 49.503V48.342H287.464V49.503H281.875ZM293.049 57.234C292.305 57.234 291.633 57.042 291.033 56.658C290.433 56.274 289.956 55.74 289.602 55.056C289.254 54.372 289.08 53.58 289.08 52.68C289.08 51.726 289.254 50.91 289.602 50.232C289.95 49.548 290.424 49.023 291.024 48.657C291.624 48.291 292.299 48.108 293.049 48.108C293.721 48.108 294.297 48.246 294.777 48.522C295.257 48.792 295.644 49.158 295.938 49.62C296.232 50.076 296.433 50.595 296.541 51.177C296.655 51.759 296.676 52.359 296.604 52.977H290.448V51.987H295.434L295.02 52.257C295.038 51.933 295.02 51.609 294.966 51.285C294.918 50.961 294.822 50.664 294.678 50.394C294.534 50.118 294.33 49.899 294.066 49.737C293.808 49.569 293.478 49.485 293.076 49.485C292.572 49.485 292.149 49.611 291.807 49.863C291.471 50.115 291.216 50.454 291.042 50.88C290.868 51.3 290.781 51.762 290.781 52.266V52.959C290.781 53.517 290.865 54.012 291.033 54.444C291.201 54.876 291.45 55.218 291.78 55.47C292.116 55.716 292.539 55.839 293.049 55.839C293.547 55.839 293.958 55.722 294.282 55.488C294.612 55.254 294.816 54.903 294.894 54.435H296.64C296.55 54.999 296.343 55.491 296.019 55.911C295.695 56.331 295.278 56.658 294.768 56.892C294.264 57.12 293.691 57.234 293.049 57.234ZM305.146 48.315H306.865V57H305.146V48.315ZM299.098 48.315H300.808V53.679C300.808 54.333 300.967 54.828 301.285 55.164C301.609 55.5 302.062 55.668 302.644 55.668C303.136 55.668 303.568 55.539 303.94 55.281C304.318 55.023 304.612 54.657 304.822 54.183C305.038 53.709 305.146 53.148 305.146 52.5H305.695C305.695 53.514 305.557 54.366 305.281 55.056C305.005 55.746 304.618 56.271 304.12 56.631C303.622 56.985 303.04 57.162 302.374 57.162C301.738 57.162 301.171 57.045 300.673 56.811C300.181 56.577 299.794 56.217 299.512 55.731C299.236 55.239 299.098 54.606 299.098 53.832V48.315ZM310.37 57V48.315H312.08V57H310.37ZM311.612 53.13C311.612 52.02 311.726 51.099 311.954 50.367C312.188 49.629 312.512 49.08 312.926 48.72C313.346 48.36 313.838 48.18 314.402 48.18C314.57 48.18 314.726 48.192 314.87 48.216C315.02 48.24 315.167 48.273 315.311 48.315L315.248 50.016C315.086 49.974 314.909 49.938 314.717 49.908C314.531 49.872 314.36 49.854 314.204 49.854C313.712 49.854 313.31 49.986 312.998 50.25C312.686 50.508 312.455 50.883 312.305 51.375C312.155 51.861 312.08 52.446 312.08 53.13H311.612ZM320.271 57.234C319.431 57.234 318.723 57.117 318.147 56.883C317.571 56.643 317.13 56.313 316.824 55.893C316.524 55.467 316.368 54.969 316.356 54.399H317.967C317.991 54.897 318.189 55.266 318.561 55.506C318.939 55.746 319.449 55.866 320.091 55.866C320.433 55.866 320.742 55.812 321.018 55.704C321.3 55.596 321.522 55.449 321.684 55.263C321.852 55.077 321.936 54.867 321.936 54.633C321.936 54.339 321.828 54.108 321.612 53.94C321.396 53.766 321.048 53.613 320.568 53.481L318.795 52.878C318.087 52.638 317.544 52.32 317.166 51.924C316.788 51.522 316.599 51.042 316.599 50.484C316.599 49.77 316.917 49.197 317.553 48.765C318.189 48.327 319.032 48.108 320.082 48.108C321.168 48.108 322.005 48.339 322.593 48.801C323.187 49.257 323.496 49.83 323.52 50.52H321.873C321.831 50.178 321.66 49.917 321.36 49.737C321.066 49.551 320.64 49.458 320.082 49.458C319.56 49.458 319.149 49.572 318.849 49.8C318.555 50.028 318.408 50.286 318.408 50.574C318.408 51.09 318.852 51.474 319.74 51.726L321.603 52.383C322.311 52.611 322.857 52.905 323.241 53.265C323.625 53.625 323.817 54.081 323.817 54.633C323.817 55.077 323.67 55.497 323.376 55.893C323.082 56.289 322.668 56.613 322.134 56.865C321.606 57.111 320.985 57.234 320.271 57.234ZM326.595 59.169L325.317 58.53C325.683 58.344 325.998 58.137 326.262 57.909C326.526 57.681 326.7 57.408 326.784 57.09C326.496 57.048 326.25 56.937 326.046 56.757C325.842 56.577 325.74 56.34 325.74 56.046C325.74 55.746 325.851 55.494 326.073 55.29C326.301 55.08 326.589 54.975 326.937 54.975C327.375 54.975 327.723 55.131 327.981 55.443C328.245 55.755 328.377 56.127 328.377 56.559C328.377 57.057 328.221 57.543 327.909 58.017C327.603 58.497 327.165 58.881 326.595 59.169ZM335.554 57V47.127C335.554 46.527 335.668 46.041 335.896 45.669C336.13 45.291 336.439 45.012 336.823 44.832C337.207 44.652 337.63 44.562 338.092 44.562C338.356 44.562 338.626 44.58 338.902 44.616C339.184 44.652 339.46 44.706 339.73 44.778L339.406 46.11C339.238 46.05 339.067 46.002 338.893 45.966C338.725 45.93 338.563 45.912 338.407 45.912C338.221 45.912 338.041 45.948 337.867 46.02C337.693 46.086 337.549 46.209 337.435 46.389C337.327 46.569 337.273 46.824 337.273 47.154V57H335.554ZM334.195 49.503V48.342H338.974V49.503H334.195ZM342.412 46.497C342.07 46.497 341.8 46.404 341.602 46.218C341.41 46.026 341.314 45.768 341.314 45.444C341.314 45.132 341.41 44.886 341.602 44.706C341.8 44.52 342.07 44.427 342.412 44.427C342.748 44.427 343.012 44.52 343.204 44.706C343.402 44.886 343.501 45.132 343.501 45.444C343.501 45.768 343.402 46.026 343.204 46.218C343.012 46.404 342.748 46.497 342.412 46.497ZM341.557 57V48.315H343.267V57H341.557ZM347.021 57V44.697H348.731V57H347.021ZM355.022 57.234C354.53 57.234 354.086 57.141 353.69 56.955C353.294 56.769 352.979 56.49 352.745 56.118C352.517 55.74 352.403 55.266 352.403 54.696V45.984H354.104V54.642C354.104 55.458 354.485 55.866 355.247 55.866C355.481 55.866 355.709 55.842 355.931 55.794C356.153 55.74 356.405 55.662 356.687 55.56L356.93 56.775C356.612 56.907 356.297 57.015 355.985 57.099C355.679 57.189 355.358 57.234 355.022 57.234ZM351.08 49.503V48.342H356.669V49.503H351.08ZM359.15 57V48.315H360.86V57H359.15ZM360.392 53.13C360.392 52.02 360.506 51.099 360.734 50.367C360.968 49.629 361.292 49.08 361.706 48.72C362.126 48.36 362.618 48.18 363.182 48.18C363.35 48.18 363.506 48.192 363.65 48.216C363.8 48.24 363.947 48.273 364.091 48.315L364.028 50.016C363.866 49.974 363.689 49.938 363.497 49.908C363.311 49.872 363.14 49.854 362.984 49.854C362.492 49.854 362.09 49.986 361.778 50.25C361.466 50.508 361.235 50.883 361.085 51.375C360.935 51.861 360.86 52.446 360.86 53.13H360.392ZM368.987 57.234C368.243 57.234 367.571 57.042 366.971 56.658C366.371 56.274 365.894 55.74 365.54 55.056C365.192 54.372 365.018 53.58 365.018 52.68C365.018 51.726 365.192 50.91 365.54 50.232C365.888 49.548 366.362 49.023 366.962 48.657C367.562 48.291 368.237 48.108 368.987 48.108C369.659 48.108 370.235 48.246 370.715 48.522C371.195 48.792 371.582 49.158 371.876 49.62C372.17 50.076 372.371 50.595 372.479 51.177C372.593 51.759 372.614 52.359 372.542 52.977H366.386V51.987H371.372L370.958 52.257C370.976 51.933 370.958 51.609 370.904 51.285C370.856 50.961 370.76 50.664 370.616 50.394C370.472 50.118 370.268 49.899 370.004 49.737C369.746 49.569 369.416 49.485 369.014 49.485C368.51 49.485 368.087 49.611 367.745 49.863C367.409 50.115 367.154 50.454 366.98 50.88C366.806 51.3 366.719 51.762 366.719 52.266V52.959C366.719 53.517 366.803 54.012 366.971 54.444C367.139 54.876 367.388 55.218 367.718 55.47C368.054 55.716 368.477 55.839 368.987 55.839C369.485 55.839 369.896 55.722 370.22 55.488C370.55 55.254 370.754 54.903 370.832 54.435H372.578C372.488 54.999 372.281 55.491 371.957 55.911C371.633 56.331 371.216 56.658 370.706 56.892C370.202 57.12 369.629 57.234 368.987 57.234ZM378.419 57.234C377.579 57.234 376.871 57.117 376.295 56.883C375.719 56.643 375.278 56.313 374.972 55.893C374.672 55.467 374.516 54.969 374.504 54.399H376.115C376.139 54.897 376.337 55.266 376.709 55.506C377.087 55.746 377.597 55.866 378.239 55.866C378.581 55.866 378.89 55.812 379.166 55.704C379.448 55.596 379.67 55.449 379.832 55.263C380 55.077 380.084 54.867 380.084 54.633C380.084 54.339 379.976 54.108 379.76 53.94C379.544 53.766 379.196 53.613 378.716 53.481L376.943 52.878C376.235 52.638 375.692 52.32 375.314 51.924C374.936 51.522 374.747 51.042 374.747 50.484C374.747 49.77 375.065 49.197 375.701 48.765C376.337 48.327 377.18 48.108 378.23 48.108C379.316 48.108 380.153 48.339 380.741 48.801C381.335 49.257 381.644 49.83 381.668 50.52H380.021C379.979 50.178 379.808 49.917 379.508 49.737C379.214 49.551 378.788 49.458 378.23 49.458C377.708 49.458 377.297 49.572 376.997 49.8C376.703 50.028 376.556 50.286 376.556 50.574C376.556 51.09 377 51.474 377.888 51.726L379.751 52.383C380.459 52.611 381.005 52.905 381.389 53.265C381.773 53.625 381.965 54.081 381.965 54.633C381.965 55.077 381.818 55.497 381.524 55.893C381.23 56.289 380.816 56.613 380.282 56.865C379.754 57.111 379.133 57.234 378.419 57.234Z" fill="#232121"/>
<path d="M109.517 201.035C109.914 201.035 110.255 200.997 110.539 200.921C110.822 200.845 111.053 200.737 111.23 200.597C111.412 200.458 111.546 200.292 111.63 200.102C111.715 199.907 111.757 199.696 111.757 199.467C111.757 199.239 111.717 199.031 111.637 198.845C111.556 198.659 111.427 198.5 111.25 198.369C111.076 198.238 110.845 198.136 110.558 198.064C110.274 197.993 109.927 197.957 109.517 197.957H108.406V201.035H109.517ZM109.459 197.004C109.811 197.004 110.109 196.968 110.354 196.896C110.604 196.825 110.809 196.727 110.97 196.604C111.131 196.478 111.25 196.327 111.326 196.154C111.402 195.98 111.44 195.788 111.44 195.576C111.44 195.373 111.404 195.189 111.332 195.024C111.26 194.855 111.146 194.711 110.989 194.592C110.837 194.47 110.638 194.376 110.393 194.313C110.147 194.25 109.851 194.218 109.504 194.218H108.406V197.004H109.459ZM107.225 193.824C107.225 193.642 107.274 193.503 107.371 193.405C107.473 193.304 107.614 193.253 107.796 193.253H109.58C110.126 193.253 110.591 193.306 110.977 193.412C111.366 193.517 111.683 193.666 111.929 193.856C112.178 194.046 112.36 194.277 112.475 194.548C112.593 194.814 112.652 195.111 112.652 195.437C112.652 195.678 112.616 195.902 112.544 196.109C112.477 196.312 112.379 196.497 112.252 196.662C112.13 196.827 111.982 196.971 111.808 197.093C111.635 197.212 111.442 197.307 111.23 197.379V197.392C111.506 197.442 111.751 197.523 111.967 197.633C112.183 197.743 112.365 197.882 112.513 198.052C112.665 198.217 112.779 198.409 112.855 198.629C112.936 198.849 112.976 199.095 112.976 199.366C112.976 199.742 112.904 200.091 112.76 200.413C112.621 200.73 112.403 201.008 112.106 201.245C111.814 201.482 111.446 201.668 111.002 201.803C110.558 201.934 110.033 202 109.428 202H107.796C107.614 202 107.473 201.951 107.371 201.854C107.274 201.752 107.225 201.611 107.225 201.429V193.824ZM114.747 193.107C114.747 192.942 114.794 192.815 114.887 192.726C114.984 192.633 115.13 192.586 115.325 192.586C115.519 192.586 115.665 192.633 115.763 192.726C115.86 192.815 115.909 192.942 115.909 193.107V200.191C115.909 200.373 115.919 200.523 115.94 200.642C115.966 200.76 116.002 200.855 116.048 200.927C116.099 200.995 116.156 201.044 116.22 201.073C116.287 201.103 116.361 201.118 116.442 201.118C116.518 201.118 116.584 201.113 116.639 201.105C116.694 201.097 116.749 201.092 116.804 201.092C116.854 201.092 116.899 201.101 116.937 201.118C116.979 201.135 117.013 201.16 117.039 201.194C117.068 201.228 117.091 201.268 117.108 201.314C117.13 201.357 117.14 201.403 117.14 201.454C117.14 201.543 117.127 201.615 117.102 201.67C117.077 201.725 117.043 201.771 117 201.81C116.971 201.843 116.931 201.875 116.88 201.905C116.833 201.934 116.776 201.962 116.708 201.987C116.645 202.008 116.569 202.025 116.48 202.038C116.391 202.055 116.287 202.063 116.169 202.063C115.708 202.063 115.354 201.937 115.109 201.683C114.868 201.429 114.747 201.037 114.747 200.508V193.107ZM119.063 198.928V198.972C119.072 199.319 119.127 199.628 119.229 199.899C119.33 200.166 119.472 200.394 119.654 200.584C119.836 200.771 120.054 200.915 120.308 201.016C120.562 201.113 120.843 201.162 121.152 201.162C121.393 201.162 121.598 201.145 121.768 201.111C121.937 201.073 122.083 201.035 122.206 200.997C122.328 200.959 122.432 200.923 122.517 200.889C122.605 200.855 122.686 200.838 122.758 200.838C122.817 200.838 122.87 200.849 122.917 200.87C122.963 200.891 123.001 200.919 123.031 200.953C123.065 200.982 123.09 201.02 123.107 201.067C123.124 201.113 123.132 201.162 123.132 201.213C123.132 201.289 123.12 201.355 123.094 201.41C123.069 201.465 123.027 201.522 122.967 201.581C122.912 201.636 122.828 201.695 122.713 201.759C122.599 201.818 122.457 201.875 122.288 201.93C122.119 201.981 121.922 202.025 121.698 202.063C121.478 202.102 121.232 202.121 120.961 202.121C120.496 202.121 120.073 202.049 119.692 201.905C119.315 201.757 118.994 201.549 118.727 201.283C118.465 201.012 118.259 200.686 118.111 200.305C117.967 199.92 117.896 199.488 117.896 199.01C117.896 198.447 117.972 197.948 118.124 197.512C118.276 197.072 118.486 196.704 118.752 196.408C119.019 196.107 119.334 195.879 119.698 195.722C120.066 195.566 120.466 195.487 120.898 195.487C121.27 195.487 121.609 195.549 121.914 195.671C122.218 195.794 122.481 195.974 122.701 196.211C122.921 196.444 123.092 196.729 123.215 197.068C123.338 197.402 123.399 197.783 123.399 198.21C123.399 198.447 123.344 198.627 123.234 198.75C123.124 198.868 122.957 198.928 122.732 198.928H119.063ZM122.307 198.096C122.248 197.512 122.089 197.081 121.831 196.801C121.573 196.522 121.215 196.382 120.758 196.382C120.568 196.382 120.384 196.418 120.206 196.49C120.033 196.558 119.872 196.664 119.724 196.808C119.58 196.947 119.455 197.125 119.349 197.341C119.243 197.552 119.165 197.804 119.114 198.096H122.307ZM125.106 196.084C125.106 195.919 125.153 195.792 125.246 195.703C125.343 195.61 125.492 195.563 125.69 195.563C125.885 195.563 126.029 195.61 126.122 195.703C126.219 195.792 126.268 195.919 126.268 196.084V199.334C126.268 199.969 126.397 200.432 126.655 200.724C126.913 201.012 127.267 201.156 127.715 201.156C127.855 201.156 127.984 201.141 128.103 201.111C128.225 201.082 128.337 201.042 128.439 200.991C128.541 200.94 128.634 200.883 128.718 200.819C128.807 200.752 128.888 200.682 128.959 200.61C129.12 200.453 129.258 200.271 129.372 200.064V196.084C129.372 195.919 129.419 195.792 129.512 195.703C129.609 195.61 129.757 195.563 129.956 195.563C130.155 195.563 130.301 195.61 130.394 195.703C130.487 195.792 130.534 195.919 130.534 196.084V201.568C130.534 201.725 130.491 201.846 130.407 201.93C130.322 202.015 130.204 202.057 130.051 202.057C129.975 202.057 129.907 202.044 129.848 202.019C129.789 201.998 129.738 201.966 129.696 201.924C129.653 201.882 129.62 201.829 129.594 201.765C129.569 201.702 129.548 201.628 129.531 201.543L129.474 201.105H129.455C129.328 201.295 129.169 201.465 128.979 201.613C128.894 201.676 128.799 201.74 128.693 201.803C128.591 201.862 128.477 201.915 128.35 201.962C128.223 202.008 128.083 202.044 127.931 202.07C127.783 202.099 127.622 202.114 127.449 202.114C127.089 202.114 126.765 202.059 126.478 201.949C126.19 201.839 125.944 201.674 125.741 201.454C125.538 201.23 125.382 200.957 125.271 200.635C125.161 200.309 125.106 199.933 125.106 199.505V196.084Z" fill="#2E2D2D"/>
<circle cx="84.9516" cy="196.87" r="6.49456" fill="#336B7C" stroke="#336B7C"/>
<path d="M95.2239 195.329C96.0184 200.873 92.0789 206.032 86.4131 206.844C80.7472 207.656 75.5172 203.811 74.7227 198.267C73.9282 192.723 77.8677 187.564 83.5335 186.752C89.1994 185.94 94.4294 189.785 95.2239 195.329Z" stroke="#336B7C" stroke-width="0.5"/>
<path d="M109.517 159.035C109.914 159.035 110.255 158.997 110.539 158.921C110.822 158.845 111.053 158.737 111.23 158.597C111.412 158.458 111.546 158.292 111.63 158.102C111.715 157.907 111.757 157.696 111.757 157.467C111.757 157.239 111.717 157.031 111.637 156.845C111.556 156.659 111.427 156.5 111.25 156.369C111.076 156.238 110.845 156.136 110.558 156.064C110.274 155.993 109.927 155.957 109.517 155.957H108.406V159.035H109.517ZM109.459 155.004C109.811 155.004 110.109 154.968 110.354 154.896C110.604 154.825 110.809 154.727 110.97 154.604C111.131 154.478 111.25 154.327 111.326 154.154C111.402 153.98 111.44 153.788 111.44 153.576C111.44 153.373 111.404 153.189 111.332 153.024C111.26 152.855 111.146 152.711 110.989 152.592C110.837 152.47 110.638 152.376 110.393 152.313C110.147 152.25 109.851 152.218 109.504 152.218H108.406V155.004H109.459ZM107.225 151.824C107.225 151.642 107.274 151.503 107.371 151.405C107.473 151.304 107.614 151.253 107.796 151.253H109.58C110.126 151.253 110.591 151.306 110.977 151.412C111.366 151.517 111.683 151.666 111.929 151.856C112.178 152.046 112.36 152.277 112.475 152.548C112.593 152.814 112.652 153.111 112.652 153.437C112.652 153.678 112.616 153.902 112.544 154.109C112.477 154.312 112.379 154.497 112.252 154.662C112.13 154.827 111.982 154.971 111.808 155.093C111.635 155.212 111.442 155.307 111.23 155.379V155.392C111.506 155.442 111.751 155.523 111.967 155.633C112.183 155.743 112.365 155.882 112.513 156.052C112.665 156.217 112.779 156.409 112.855 156.629C112.936 156.849 112.976 157.095 112.976 157.366C112.976 157.742 112.904 158.091 112.76 158.413C112.621 158.73 112.403 159.008 112.106 159.245C111.814 159.482 111.446 159.668 111.002 159.803C110.558 159.934 110.033 160 109.428 160H107.796C107.614 160 107.473 159.951 107.371 159.854C107.274 159.752 107.225 159.611 107.225 159.429V151.824ZM114.747 151.107C114.747 150.942 114.794 150.815 114.887 150.726C114.984 150.633 115.13 150.586 115.325 150.586C115.519 150.586 115.665 150.633 115.763 150.726C115.86 150.815 115.909 150.942 115.909 151.107V158.191C115.909 158.373 115.919 158.523 115.94 158.642C115.966 158.76 116.002 158.855 116.048 158.927C116.099 158.995 116.156 159.044 116.22 159.073C116.287 159.103 116.361 159.118 116.442 159.118C116.518 159.118 116.584 159.113 116.639 159.105C116.694 159.097 116.749 159.092 116.804 159.092C116.854 159.092 116.899 159.101 116.937 159.118C116.979 159.135 117.013 159.16 117.039 159.194C117.068 159.228 117.091 159.268 117.108 159.314C117.13 159.357 117.14 159.403 117.14 159.454C117.14 159.543 117.127 159.615 117.102 159.67C117.077 159.725 117.043 159.771 117 159.81C116.971 159.843 116.931 159.875 116.88 159.905C116.833 159.934 116.776 159.962 116.708 159.987C116.645 160.008 116.569 160.025 116.48 160.038C116.391 160.055 116.287 160.063 116.169 160.063C115.708 160.063 115.354 159.937 115.109 159.683C114.868 159.429 114.747 159.037 114.747 158.508V151.107ZM119.063 156.928V156.972C119.072 157.319 119.127 157.628 119.229 157.899C119.33 158.166 119.472 158.394 119.654 158.584C119.836 158.771 120.054 158.915 120.308 159.016C120.562 159.113 120.843 159.162 121.152 159.162C121.393 159.162 121.598 159.145 121.768 159.111C121.937 159.073 122.083 159.035 122.206 158.997C122.328 158.959 122.432 158.923 122.517 158.889C122.605 158.855 122.686 158.838 122.758 158.838C122.817 158.838 122.87 158.849 122.917 158.87C122.963 158.891 123.001 158.919 123.031 158.953C123.065 158.982 123.09 159.02 123.107 159.067C123.124 159.113 123.132 159.162 123.132 159.213C123.132 159.289 123.12 159.355 123.094 159.41C123.069 159.465 123.027 159.522 122.967 159.581C122.912 159.636 122.828 159.695 122.713 159.759C122.599 159.818 122.457 159.875 122.288 159.93C122.119 159.981 121.922 160.025 121.698 160.063C121.478 160.102 121.232 160.121 120.961 160.121C120.496 160.121 120.073 160.049 119.692 159.905C119.315 159.757 118.994 159.549 118.727 159.283C118.465 159.012 118.259 158.686 118.111 158.305C117.967 157.92 117.896 157.488 117.896 157.01C117.896 156.447 117.972 155.948 118.124 155.512C118.276 155.072 118.486 154.704 118.752 154.408C119.019 154.107 119.334 153.879 119.698 153.722C120.066 153.566 120.466 153.487 120.898 153.487C121.27 153.487 121.609 153.549 121.914 153.671C122.218 153.794 122.481 153.974 122.701 154.211C122.921 154.444 123.092 154.729 123.215 155.068C123.338 155.402 123.399 155.783 123.399 156.21C123.399 156.447 123.344 156.627 123.234 156.75C123.124 156.868 122.957 156.928 122.732 156.928H119.063ZM122.307 156.096C122.248 155.512 122.089 155.081 121.831 154.801C121.573 154.522 121.215 154.382 120.758 154.382C120.568 154.382 120.384 154.418 120.206 154.49C120.033 154.558 119.872 154.664 119.724 154.808C119.58 154.947 119.455 155.125 119.349 155.341C119.243 155.552 119.165 155.804 119.114 156.096H122.307ZM125.106 154.084C125.106 153.919 125.153 153.792 125.246 153.703C125.343 153.61 125.492 153.563 125.69 153.563C125.885 153.563 126.029 153.61 126.122 153.703C126.219 153.792 126.268 153.919 126.268 154.084V157.334C126.268 157.969 126.397 158.432 126.655 158.724C126.913 159.012 127.267 159.156 127.715 159.156C127.855 159.156 127.984 159.141 128.103 159.111C128.225 159.082 128.337 159.042 128.439 158.991C128.541 158.94 128.634 158.883 128.718 158.819C128.807 158.752 128.888 158.682 128.959 158.61C129.12 158.453 129.258 158.271 129.372 158.064V154.084C129.372 153.919 129.419 153.792 129.512 153.703C129.609 153.61 129.757 153.563 129.956 153.563C130.155 153.563 130.301 153.61 130.394 153.703C130.487 153.792 130.534 153.919 130.534 154.084V159.568C130.534 159.725 130.491 159.846 130.407 159.93C130.322 160.015 130.204 160.057 130.051 160.057C129.975 160.057 129.907 160.044 129.848 160.019C129.789 159.998 129.738 159.966 129.696 159.924C129.653 159.882 129.62 159.829 129.594 159.765C129.569 159.702 129.548 159.628 129.531 159.543L129.474 159.105H129.455C129.328 159.295 129.169 159.465 128.979 159.613C128.894 159.676 128.799 159.74 128.693 159.803C128.591 159.862 128.477 159.915 128.35 159.962C128.223 160.008 128.083 160.044 127.931 160.07C127.783 160.099 127.622 160.114 127.449 160.114C127.089 160.114 126.765 160.059 126.478 159.949C126.19 159.839 125.944 159.674 125.741 159.454C125.538 159.23 125.382 158.957 125.271 158.635C125.161 158.309 125.106 157.933 125.106 157.505V154.084Z" fill="#2E2D2D"/>
<path d="M95.2239 153.329C96.0184 158.873 92.0789 164.032 86.4131 164.844C80.7472 165.656 75.5172 161.811 74.7227 156.267C73.9282 150.723 77.8677 145.564 83.5335 144.752C89.1994 143.94 94.4294 147.785 95.2239 153.329Z" fill="#336B7C" stroke="#336B7C" stroke-width="0.5"/>
<circle cx="83" cy="321" r="9.75" stroke="#2E2D2D" stroke-width="0.5"/>
<circle cx="83" cy="321" r="6" fill="#2E2D2D"/>
<path d="M106.225 318.053C106.225 317.773 106.295 317.564 106.435 317.424C106.574 317.285 106.786 317.215 107.069 317.215C107.196 317.215 107.304 317.232 107.393 317.266C107.486 317.295 107.571 317.34 107.647 317.399C107.723 317.454 107.791 317.522 107.85 317.602C107.914 317.682 107.979 317.776 108.047 317.881L111.449 323.232C111.551 323.393 111.646 323.554 111.735 323.715C111.824 323.871 111.904 324.011 111.976 324.134C112.052 324.278 112.126 324.415 112.198 324.546L112.224 324.534C112.211 324.386 112.2 324.227 112.192 324.058C112.179 323.914 112.169 323.751 112.16 323.569C112.156 323.383 112.152 323.192 112.147 322.998L112.116 317.716C112.116 317.56 112.162 317.437 112.255 317.348C112.348 317.259 112.488 317.215 112.674 317.215C112.865 317.215 113.004 317.259 113.093 317.348C113.186 317.433 113.233 317.556 113.233 317.716V325.194C113.233 325.477 113.163 325.689 113.023 325.829C112.884 325.968 112.672 326.038 112.389 326.038C112.262 326.038 112.152 326.023 112.059 325.994C111.97 325.96 111.887 325.915 111.811 325.86C111.735 325.801 111.665 325.731 111.602 325.651C111.538 325.57 111.475 325.477 111.411 325.372L108.009 320.021C107.907 319.86 107.81 319.701 107.717 319.544C107.628 319.384 107.55 319.242 107.482 319.119C107.402 318.975 107.327 318.838 107.26 318.707L107.234 318.719C107.243 318.867 107.253 319.026 107.266 319.195C107.279 319.339 107.287 319.504 107.292 319.69C107.3 319.872 107.306 320.061 107.311 320.255L107.342 325.537C107.342 325.693 107.296 325.816 107.203 325.905C107.11 325.994 106.97 326.038 106.784 326.038C106.593 326.038 106.451 325.996 106.358 325.911C106.27 325.822 106.225 325.697 106.225 325.537V318.053ZM115.08 322.915C115.08 322.378 115.156 321.897 115.309 321.474C115.461 321.047 115.677 320.687 115.956 320.395C116.235 320.099 116.572 319.875 116.965 319.722C117.359 319.566 117.795 319.487 118.273 319.487C118.713 319.487 119.117 319.563 119.485 319.716C119.858 319.864 120.179 320.08 120.45 320.363C120.721 320.643 120.931 320.979 121.079 321.373C121.227 321.766 121.301 322.204 121.301 322.687C121.301 323.228 121.225 323.711 121.072 324.134C120.924 324.557 120.71 324.917 120.431 325.213C120.152 325.505 119.815 325.729 119.422 325.886C119.028 326.042 118.592 326.121 118.114 326.121C117.674 326.121 117.268 326.044 116.896 325.892C116.527 325.74 116.208 325.524 115.937 325.245C115.666 324.961 115.455 324.625 115.302 324.235C115.154 323.842 115.08 323.402 115.08 322.915ZM116.273 322.788C116.273 323.173 116.322 323.514 116.419 323.81C116.521 324.102 116.659 324.35 116.832 324.553C117.01 324.756 117.217 324.91 117.454 325.016C117.691 325.122 117.943 325.175 118.209 325.175C118.48 325.175 118.732 325.124 118.965 325.022C119.202 324.921 119.405 324.771 119.574 324.572C119.743 324.373 119.875 324.127 119.968 323.835C120.065 323.543 120.114 323.203 120.114 322.813C120.114 322.433 120.063 322.094 119.961 321.798C119.864 321.502 119.727 321.252 119.549 321.049C119.375 320.846 119.17 320.691 118.933 320.585C118.7 320.48 118.451 320.427 118.184 320.427C117.909 320.427 117.655 320.478 117.422 320.579C117.19 320.681 116.986 320.831 116.813 321.03C116.644 321.229 116.51 321.476 116.413 321.772C116.32 322.064 116.273 322.403 116.273 322.788ZM122.545 320.522C122.418 320.522 122.316 320.484 122.24 320.408C122.164 320.327 122.126 320.213 122.126 320.065C122.126 319.917 122.164 319.803 122.24 319.722C122.316 319.642 122.418 319.602 122.545 319.602H123.262L123.421 318.402C123.446 318.22 123.503 318.084 123.592 317.996C123.685 317.907 123.806 317.862 123.954 317.862C124.098 317.862 124.21 317.905 124.291 317.989C124.371 318.07 124.411 318.186 124.411 318.338V319.602H125.744C125.871 319.602 125.973 319.642 126.049 319.722C126.125 319.803 126.163 319.917 126.163 320.065C126.163 320.213 126.125 320.327 126.049 320.408C125.973 320.484 125.871 320.522 125.744 320.522H124.411V324.178C124.411 324.525 124.472 324.769 124.595 324.908C124.718 325.048 124.904 325.118 125.154 325.118C125.251 325.118 125.334 325.113 125.401 325.105C125.473 325.092 125.535 325.077 125.585 325.061C125.64 325.044 125.689 325.031 125.731 325.022C125.774 325.01 125.816 325.003 125.858 325.003C125.913 325.003 125.962 325.012 126.004 325.029C126.047 325.046 126.083 325.071 126.112 325.105C126.142 325.139 126.165 325.179 126.182 325.226C126.203 325.268 126.214 325.317 126.214 325.372C126.214 325.456 126.199 325.526 126.169 325.581C126.14 325.636 126.102 325.687 126.055 325.733C126.026 325.763 125.981 325.797 125.922 325.835C125.863 325.873 125.784 325.909 125.687 325.943C125.594 325.977 125.482 326.004 125.351 326.025C125.219 326.051 125.067 326.063 124.894 326.063C124.335 326.063 123.92 325.93 123.649 325.664C123.383 325.397 123.25 324.999 123.25 324.47V320.522H122.545ZM127.496 320.033C127.496 319.881 127.538 319.762 127.623 319.678C127.708 319.593 127.826 319.551 127.979 319.551C128.055 319.551 128.122 319.561 128.182 319.583C128.241 319.604 128.292 319.638 128.334 319.684C128.381 319.726 128.417 319.781 128.442 319.849C128.467 319.913 128.486 319.987 128.499 320.071L128.575 320.655H128.594C128.679 320.49 128.778 320.336 128.893 320.192C129.007 320.044 129.132 319.919 129.267 319.817C129.403 319.712 129.546 319.631 129.699 319.576C129.851 319.517 130.01 319.487 130.175 319.487C130.395 319.487 130.562 319.54 130.676 319.646C130.795 319.752 130.854 319.904 130.854 320.103C130.854 320.315 130.803 320.478 130.702 320.592C130.6 320.702 130.488 320.757 130.365 320.757C130.319 320.757 130.278 320.755 130.245 320.75C130.211 320.742 130.177 320.734 130.143 320.725C130.113 320.717 130.08 320.71 130.042 320.706C130.008 320.698 129.97 320.693 129.927 320.693C129.817 320.693 129.705 320.719 129.591 320.77C129.481 320.82 129.373 320.894 129.267 320.992C129.161 321.089 129.056 321.21 128.95 321.354C128.848 321.493 128.751 321.656 128.658 321.842V325.518C128.658 325.683 128.609 325.812 128.512 325.905C128.414 325.994 128.268 326.038 128.074 326.038C127.879 326.038 127.733 325.994 127.636 325.905C127.543 325.812 127.496 325.683 127.496 325.518V320.033ZM132.638 322.928V322.972C132.646 323.319 132.701 323.628 132.803 323.899C132.904 324.166 133.046 324.394 133.228 324.584C133.41 324.771 133.628 324.915 133.882 325.016C134.136 325.113 134.417 325.162 134.726 325.162C134.967 325.162 135.173 325.145 135.342 325.111C135.511 325.073 135.657 325.035 135.78 324.997C135.903 324.959 136.006 324.923 136.091 324.889C136.18 324.855 136.26 324.838 136.332 324.838C136.391 324.838 136.444 324.849 136.491 324.87C136.537 324.891 136.575 324.919 136.605 324.953C136.639 324.982 136.664 325.02 136.681 325.067C136.698 325.113 136.707 325.162 136.707 325.213C136.707 325.289 136.694 325.355 136.668 325.41C136.643 325.465 136.601 325.522 136.542 325.581C136.486 325.636 136.402 325.695 136.288 325.759C136.173 325.818 136.032 325.875 135.862 325.93C135.693 325.981 135.496 326.025 135.272 326.063C135.052 326.102 134.806 326.121 134.536 326.121C134.07 326.121 133.647 326.049 133.266 325.905C132.889 325.757 132.568 325.549 132.301 325.283C132.039 325.012 131.834 324.686 131.686 324.305C131.542 323.92 131.47 323.488 131.47 323.01C131.47 322.447 131.546 321.948 131.698 321.512C131.851 321.072 132.06 320.704 132.327 320.408C132.593 320.107 132.909 319.879 133.272 319.722C133.641 319.566 134.041 319.487 134.472 319.487C134.845 319.487 135.183 319.549 135.488 319.671C135.792 319.794 136.055 319.974 136.275 320.211C136.495 320.444 136.666 320.729 136.789 321.068C136.912 321.402 136.973 321.783 136.973 322.21C136.973 322.447 136.918 322.627 136.808 322.75C136.698 322.868 136.531 322.928 136.307 322.928H132.638ZM135.881 322.096C135.822 321.512 135.663 321.081 135.405 320.801C135.147 320.522 134.79 320.382 134.333 320.382C134.142 320.382 133.958 320.418 133.78 320.49C133.607 320.558 133.446 320.664 133.298 320.808C133.154 320.947 133.029 321.125 132.923 321.341C132.818 321.552 132.739 321.804 132.688 322.096H135.881ZM141.842 321.347C141.842 321.089 141.893 320.848 141.994 320.624C142.1 320.395 142.254 320.198 142.458 320.033C142.665 319.864 142.919 319.731 143.219 319.633C143.524 319.536 143.875 319.487 144.273 319.487C144.493 319.487 144.688 319.5 144.857 319.525C145.03 319.551 145.181 319.585 145.308 319.627C145.435 319.669 145.538 319.714 145.619 319.76C145.703 319.807 145.767 319.851 145.809 319.894C145.868 319.953 145.909 320.012 145.93 320.071C145.955 320.131 145.968 320.202 145.968 320.287C145.968 320.346 145.957 320.399 145.936 320.446C145.915 320.492 145.885 320.535 145.847 320.573C145.813 320.607 145.771 320.634 145.72 320.655C145.669 320.676 145.614 320.687 145.555 320.687C145.487 320.687 145.411 320.672 145.327 320.643C145.246 320.613 145.151 320.581 145.041 320.547C144.935 320.509 144.812 320.475 144.673 320.446C144.533 320.416 144.366 320.401 144.171 320.401C143.964 320.401 143.786 320.423 143.638 320.465C143.49 320.507 143.367 320.564 143.27 320.636C143.173 320.708 143.101 320.795 143.054 320.896C143.008 320.994 142.984 321.1 142.984 321.214C142.984 321.383 143.031 321.525 143.124 321.639C143.221 321.753 143.346 321.851 143.499 321.931C143.655 322.012 143.831 322.086 144.025 322.153C144.224 322.217 144.427 322.285 144.635 322.356C144.842 322.428 145.043 322.509 145.238 322.598C145.437 322.687 145.612 322.801 145.765 322.94C145.921 323.076 146.046 323.241 146.139 323.436C146.236 323.63 146.285 323.865 146.285 324.14C146.285 324.415 146.23 324.673 146.12 324.915C146.01 325.152 145.847 325.359 145.631 325.537C145.416 325.714 145.147 325.856 144.825 325.962C144.504 326.063 144.131 326.114 143.708 326.114C143.446 326.114 143.215 326.099 143.016 326.07C142.821 326.044 142.652 326.011 142.508 325.968C142.369 325.922 142.252 325.873 142.159 325.822C142.07 325.767 142.005 325.719 141.962 325.676C141.912 325.625 141.871 325.57 141.842 325.511C141.816 325.448 141.804 325.372 141.804 325.283C141.804 325.156 141.842 325.054 141.918 324.978C141.994 324.898 142.094 324.857 142.216 324.857C142.284 324.857 142.358 324.876 142.438 324.915C142.523 324.953 142.625 324.993 142.743 325.035C142.866 325.077 143.012 325.116 143.181 325.149C143.35 325.183 143.558 325.2 143.803 325.2C144.036 325.2 144.235 325.177 144.4 325.13C144.569 325.084 144.707 325.02 144.812 324.94C144.923 324.855 145.003 324.756 145.054 324.642C145.109 324.527 145.136 324.405 145.136 324.273C145.136 324.096 145.088 323.948 144.99 323.829C144.897 323.711 144.772 323.609 144.616 323.524C144.463 323.44 144.288 323.366 144.089 323.302C143.894 323.235 143.693 323.165 143.486 323.093C143.283 323.021 143.082 322.94 142.883 322.852C142.688 322.758 142.513 322.646 142.356 322.515C142.199 322.384 142.075 322.225 141.981 322.039C141.888 321.849 141.842 321.618 141.842 321.347ZM148.685 322.928V322.972C148.693 323.319 148.748 323.628 148.85 323.899C148.951 324.166 149.093 324.394 149.275 324.584C149.457 324.771 149.675 324.915 149.929 325.016C150.183 325.113 150.464 325.162 150.773 325.162C151.014 325.162 151.219 325.145 151.389 325.111C151.558 325.073 151.704 325.035 151.827 324.997C151.949 324.959 152.053 324.923 152.138 324.889C152.227 324.855 152.307 324.838 152.379 324.838C152.438 324.838 152.491 324.849 152.538 324.87C152.584 324.891 152.622 324.919 152.652 324.953C152.686 324.982 152.711 325.02 152.728 325.067C152.745 325.113 152.753 325.162 152.753 325.213C152.753 325.289 152.741 325.355 152.715 325.41C152.69 325.465 152.648 325.522 152.588 325.581C152.533 325.636 152.449 325.695 152.334 325.759C152.22 325.818 152.078 325.875 151.909 325.93C151.74 325.981 151.543 326.025 151.319 326.063C151.099 326.102 150.853 326.121 150.583 326.121C150.117 326.121 149.694 326.049 149.313 325.905C148.936 325.757 148.615 325.549 148.348 325.283C148.086 325.012 147.881 324.686 147.732 324.305C147.589 323.92 147.517 323.488 147.517 323.01C147.517 322.447 147.593 321.948 147.745 321.512C147.897 321.072 148.107 320.704 148.374 320.408C148.64 320.107 148.955 319.879 149.319 319.722C149.688 319.566 150.087 319.487 150.519 319.487C150.891 319.487 151.23 319.549 151.535 319.671C151.839 319.794 152.102 319.974 152.322 320.211C152.542 320.444 152.713 320.729 152.836 321.068C152.959 321.402 153.02 321.783 153.02 322.21C153.02 322.447 152.965 322.627 152.855 322.75C152.745 322.868 152.578 322.928 152.354 322.928H148.685ZM151.928 322.096C151.869 321.512 151.71 321.081 151.452 320.801C151.194 320.522 150.836 320.382 150.379 320.382C150.189 320.382 150.005 320.418 149.827 320.49C149.654 320.558 149.493 320.664 149.345 320.808C149.201 320.947 149.076 321.125 148.97 321.341C148.864 321.552 148.786 321.804 148.735 322.096H151.928ZM150.862 316.542C150.917 316.466 150.97 316.411 151.021 316.377C151.076 316.339 151.143 316.32 151.224 316.32C151.296 316.32 151.37 316.337 151.446 316.371C151.522 316.4 151.592 316.445 151.655 316.504C151.719 316.559 151.772 316.622 151.814 316.694C151.856 316.766 151.877 316.845 151.877 316.929C151.877 316.967 151.871 317.001 151.858 317.031C151.846 317.06 151.831 317.09 151.814 317.12C151.797 317.145 151.778 317.17 151.757 317.196C151.736 317.217 151.712 317.238 151.687 317.259L150.424 318.554C150.369 318.613 150.316 318.656 150.265 318.681C150.214 318.707 150.161 318.719 150.106 318.719C150.047 318.719 149.992 318.709 149.941 318.688C149.891 318.662 149.844 318.63 149.802 318.592C149.759 318.554 149.728 318.51 149.707 318.459C149.685 318.408 149.675 318.357 149.675 318.307C149.675 318.252 149.688 318.203 149.713 318.161C149.738 318.118 149.766 318.076 149.795 318.034L150.862 316.542ZM154.766 317.107C154.766 316.942 154.812 316.815 154.905 316.726C155.003 316.633 155.149 316.586 155.343 316.586C155.538 316.586 155.684 316.633 155.781 316.726C155.879 316.815 155.927 316.942 155.927 317.107V324.191C155.927 324.373 155.938 324.523 155.959 324.642C155.984 324.76 156.02 324.855 156.067 324.927C156.118 324.995 156.175 325.044 156.238 325.073C156.306 325.103 156.38 325.118 156.46 325.118C156.537 325.118 156.602 325.113 156.657 325.105C156.712 325.097 156.767 325.092 156.822 325.092C156.873 325.092 156.917 325.101 156.956 325.118C156.998 325.135 157.032 325.16 157.057 325.194C157.087 325.228 157.11 325.268 157.127 325.314C157.148 325.357 157.159 325.403 157.159 325.454C157.159 325.543 157.146 325.615 157.121 325.67C157.095 325.725 157.061 325.771 157.019 325.81C156.989 325.843 156.949 325.875 156.898 325.905C156.852 325.934 156.795 325.962 156.727 325.987C156.664 326.008 156.587 326.025 156.499 326.038C156.41 326.055 156.306 326.063 156.188 326.063C155.726 326.063 155.373 325.937 155.127 325.683C154.886 325.429 154.766 325.037 154.766 324.508V317.107ZM159.082 322.928V322.972C159.09 323.319 159.146 323.628 159.247 323.899C159.349 324.166 159.49 324.394 159.672 324.584C159.854 324.771 160.072 324.915 160.326 325.016C160.58 325.113 160.861 325.162 161.17 325.162C161.412 325.162 161.617 325.145 161.786 325.111C161.955 325.073 162.101 325.035 162.224 324.997C162.347 324.959 162.451 324.923 162.535 324.889C162.624 324.855 162.704 324.838 162.776 324.838C162.836 324.838 162.889 324.849 162.935 324.87C162.982 324.891 163.02 324.919 163.049 324.953C163.083 324.982 163.109 325.02 163.125 325.067C163.142 325.113 163.151 325.162 163.151 325.213C163.151 325.289 163.138 325.355 163.113 325.41C163.087 325.465 163.045 325.522 162.986 325.581C162.931 325.636 162.846 325.695 162.732 325.759C162.618 325.818 162.476 325.875 162.307 325.93C162.137 325.981 161.941 326.025 161.716 326.063C161.496 326.102 161.251 326.121 160.98 326.121C160.514 326.121 160.091 326.049 159.71 325.905C159.334 325.757 159.012 325.549 158.746 325.283C158.483 325.012 158.278 324.686 158.13 324.305C157.986 323.92 157.914 323.488 157.914 323.01C157.914 322.447 157.99 321.948 158.143 321.512C158.295 321.072 158.504 320.704 158.771 320.408C159.038 320.107 159.353 319.879 159.717 319.722C160.085 319.566 160.485 319.487 160.917 319.487C161.289 319.487 161.627 319.549 161.932 319.671C162.237 319.794 162.499 319.974 162.719 320.211C162.939 320.444 163.111 320.729 163.233 321.068C163.356 321.402 163.417 321.783 163.417 322.21C163.417 322.447 163.362 322.627 163.252 322.75C163.142 322.868 162.975 322.928 162.751 322.928H159.082ZM162.326 322.096C162.266 321.512 162.108 321.081 161.85 320.801C161.591 320.522 161.234 320.382 160.777 320.382C160.586 320.382 160.402 320.418 160.225 320.49C160.051 320.558 159.89 320.664 159.742 320.808C159.598 320.947 159.473 321.125 159.368 321.341C159.262 321.552 159.184 321.804 159.133 322.096H162.326ZM164.706 323.042C164.706 322.488 164.784 321.99 164.941 321.55C165.102 321.11 165.326 320.738 165.614 320.433C165.902 320.128 166.244 319.896 166.642 319.735C167.04 319.57 167.476 319.487 167.95 319.487C168.14 319.487 168.312 319.5 168.464 319.525C168.62 319.551 168.756 319.585 168.87 319.627C168.984 319.665 169.08 319.707 169.156 319.754C169.236 319.8 169.295 319.845 169.333 319.887C169.389 319.942 169.429 320.001 169.454 320.065C169.479 320.124 169.492 320.196 169.492 320.281C169.492 320.34 169.482 320.395 169.46 320.446C169.444 320.497 169.416 320.541 169.378 320.579C169.344 320.613 169.302 320.643 169.251 320.668C169.2 320.689 169.143 320.7 169.08 320.7C169.008 320.7 168.936 320.687 168.864 320.662C168.796 320.632 168.718 320.6 168.629 320.566C168.54 320.533 168.432 320.503 168.305 320.478C168.178 320.448 168.026 320.433 167.848 320.433C167.573 320.433 167.317 320.486 167.08 320.592C166.843 320.698 166.636 320.854 166.458 321.062C166.285 321.265 166.147 321.521 166.045 321.83C165.948 322.134 165.899 322.488 165.899 322.89C165.899 323.249 165.948 323.571 166.045 323.854C166.147 324.134 166.287 324.371 166.464 324.565C166.642 324.756 166.856 324.904 167.105 325.01C167.355 325.111 167.63 325.162 167.931 325.162C168.113 325.162 168.267 325.149 168.394 325.124C168.525 325.099 168.635 325.071 168.724 325.042C168.813 325.008 168.889 324.978 168.953 324.953C169.02 324.927 169.088 324.915 169.156 324.915C169.211 324.915 169.262 324.925 169.308 324.946C169.355 324.963 169.393 324.989 169.422 325.022C169.456 325.056 169.482 325.097 169.499 325.143C169.515 325.19 169.524 325.24 169.524 325.295C169.524 325.367 169.509 325.435 169.479 325.499C169.45 325.558 169.408 325.615 169.353 325.67C169.298 325.725 169.219 325.78 169.118 325.835C169.016 325.89 168.896 325.939 168.756 325.981C168.616 326.023 168.458 326.057 168.28 326.083C168.106 326.108 167.914 326.121 167.702 326.121C167.254 326.121 166.845 326.049 166.477 325.905C166.109 325.757 165.794 325.549 165.531 325.283C165.273 325.016 165.07 324.692 164.922 324.312C164.778 323.931 164.706 323.507 164.706 323.042ZM170.571 320.522C170.444 320.522 170.343 320.484 170.267 320.408C170.19 320.327 170.152 320.213 170.152 320.065C170.152 319.917 170.19 319.803 170.267 319.722C170.343 319.642 170.444 319.602 170.571 319.602H171.289L171.447 318.402C171.473 318.22 171.53 318.084 171.619 317.996C171.712 317.907 171.832 317.862 171.98 317.862C172.124 317.862 172.236 317.905 172.317 317.989C172.397 318.07 172.438 318.186 172.438 318.338V319.602H173.771C173.897 319.602 173.999 319.642 174.075 319.722C174.151 319.803 174.189 319.917 174.189 320.065C174.189 320.213 174.151 320.327 174.075 320.408C173.999 320.484 173.897 320.522 173.771 320.522H172.438V324.178C172.438 324.525 172.499 324.769 172.622 324.908C172.744 325.048 172.931 325.118 173.18 325.118C173.278 325.118 173.36 325.113 173.428 325.105C173.5 325.092 173.561 325.077 173.612 325.061C173.667 325.044 173.715 325.031 173.758 325.022C173.8 325.01 173.842 325.003 173.885 325.003C173.94 325.003 173.988 325.012 174.031 325.029C174.073 325.046 174.109 325.071 174.139 325.105C174.168 325.139 174.192 325.179 174.208 325.226C174.23 325.268 174.24 325.317 174.24 325.372C174.24 325.456 174.225 325.526 174.196 325.581C174.166 325.636 174.128 325.687 174.082 325.733C174.052 325.763 174.007 325.797 173.948 325.835C173.889 325.873 173.811 325.909 173.713 325.943C173.62 325.977 173.508 326.004 173.377 326.025C173.246 326.051 173.093 326.063 172.92 326.063C172.361 326.063 171.947 325.93 171.676 325.664C171.409 325.397 171.276 324.999 171.276 324.47V320.522H170.571ZM175.522 320.084C175.522 319.919 175.569 319.792 175.662 319.703C175.759 319.61 175.905 319.563 176.1 319.563C176.295 319.563 176.441 319.61 176.538 319.703C176.635 319.792 176.684 319.919 176.684 320.084V325.518C176.684 325.683 176.635 325.812 176.538 325.905C176.441 325.994 176.295 326.038 176.1 326.038C175.905 326.038 175.759 325.994 175.662 325.905C175.569 325.812 175.522 325.683 175.522 325.518V320.084ZM175.313 317.634C175.313 317.52 175.332 317.416 175.37 317.323C175.412 317.225 175.467 317.143 175.535 317.075C175.607 317.003 175.692 316.948 175.789 316.91C175.886 316.868 175.994 316.847 176.113 316.847C176.223 316.847 176.324 316.868 176.417 316.91C176.515 316.948 176.597 317.001 176.665 317.069C176.733 317.137 176.786 317.217 176.824 317.31C176.866 317.403 176.887 317.503 176.887 317.608C176.887 317.718 176.866 317.822 176.824 317.919C176.786 318.017 176.731 318.099 176.659 318.167C176.591 318.235 176.508 318.29 176.411 318.332C176.314 318.37 176.206 318.389 176.087 318.389C175.977 318.389 175.874 318.37 175.776 318.332C175.683 318.29 175.603 318.237 175.535 318.173C175.467 318.106 175.412 318.025 175.37 317.932C175.332 317.839 175.313 317.74 175.313 317.634ZM178.404 322.915C178.404 322.378 178.48 321.897 178.633 321.474C178.785 321.047 179.001 320.687 179.28 320.395C179.56 320.099 179.896 319.875 180.29 319.722C180.683 319.566 181.119 319.487 181.597 319.487C182.037 319.487 182.441 319.563 182.81 319.716C183.182 319.864 183.504 320.08 183.774 320.363C184.045 320.643 184.255 320.979 184.403 321.373C184.551 321.766 184.625 322.204 184.625 322.687C184.625 323.228 184.549 323.711 184.396 324.134C184.248 324.557 184.035 324.917 183.755 325.213C183.476 325.505 183.14 325.729 182.746 325.886C182.353 326.042 181.917 326.121 181.438 326.121C180.998 326.121 180.592 326.044 180.22 325.892C179.852 325.74 179.532 325.524 179.261 325.245C178.99 324.961 178.779 324.625 178.626 324.235C178.478 323.842 178.404 323.402 178.404 322.915ZM179.598 322.788C179.598 323.173 179.646 323.514 179.744 323.81C179.845 324.102 179.983 324.35 180.156 324.553C180.334 324.756 180.541 324.91 180.778 325.016C181.015 325.122 181.267 325.175 181.534 325.175C181.805 325.175 182.056 325.124 182.289 325.022C182.526 324.921 182.729 324.771 182.898 324.572C183.068 324.373 183.199 324.127 183.292 323.835C183.389 323.543 183.438 323.203 183.438 322.813C183.438 322.433 183.387 322.094 183.286 321.798C183.188 321.502 183.051 321.252 182.873 321.049C182.7 320.846 182.494 320.691 182.257 320.585C182.025 320.48 181.775 320.427 181.508 320.427C181.233 320.427 180.979 320.478 180.747 320.579C180.514 320.681 180.311 320.831 180.137 321.03C179.968 321.229 179.835 321.476 179.737 321.772C179.644 322.064 179.598 322.403 179.598 322.788ZM186.364 320.033C186.364 319.881 186.407 319.762 186.491 319.678C186.576 319.593 186.694 319.551 186.847 319.551C186.923 319.551 186.991 319.561 187.05 319.583C187.109 319.604 187.16 319.635 187.202 319.678C187.244 319.72 187.278 319.773 187.304 319.836C187.333 319.9 187.354 319.974 187.367 320.059L187.424 320.497H187.443C187.57 320.306 187.729 320.137 187.919 319.989C188 319.925 188.093 319.864 188.199 319.805C188.305 319.745 188.421 319.693 188.548 319.646C188.675 319.599 188.812 319.561 188.96 319.532C189.113 319.502 189.276 319.487 189.449 319.487C189.817 319.487 190.15 319.544 190.446 319.659C190.742 319.769 190.992 319.934 191.195 320.154C191.402 320.374 191.561 320.647 191.671 320.973C191.781 321.299 191.836 321.675 191.836 322.103V325.518C191.836 325.683 191.787 325.812 191.69 325.905C191.597 325.994 191.453 326.038 191.258 326.038C191.064 326.038 190.918 325.994 190.82 325.905C190.723 325.812 190.674 325.683 190.674 325.518V322.268C190.674 321.95 190.64 321.677 190.573 321.449C190.509 321.22 190.412 321.032 190.281 320.884C190.154 320.731 189.997 320.621 189.811 320.554C189.629 320.482 189.42 320.446 189.183 320.446C189.043 320.446 188.912 320.463 188.789 320.497C188.671 320.526 188.558 320.566 188.453 320.617C188.351 320.668 188.256 320.727 188.167 320.795C188.082 320.858 188.006 320.924 187.938 320.992C187.773 321.153 187.636 321.334 187.526 321.538V325.518C187.526 325.683 187.477 325.812 187.38 325.905C187.283 325.994 187.137 326.038 186.942 326.038C186.747 326.038 186.601 325.994 186.504 325.905C186.411 325.812 186.364 325.683 186.364 325.518V320.033Z" fill="#2E2D2D"/>
<circle cx="83" cy="280" r="9.5" stroke="#2E2D2D"/>
<path d="M106.225 277.053C106.225 276.773 106.295 276.564 106.435 276.424C106.574 276.285 106.786 276.215 107.069 276.215C107.196 276.215 107.304 276.232 107.393 276.266C107.486 276.295 107.571 276.34 107.647 276.399C107.723 276.454 107.791 276.522 107.85 276.602C107.914 276.682 107.979 276.776 108.047 276.881L111.449 282.232C111.551 282.393 111.646 282.554 111.735 282.715C111.824 282.871 111.904 283.011 111.976 283.134C112.052 283.278 112.126 283.415 112.198 283.546L112.224 283.534C112.211 283.386 112.2 283.227 112.192 283.058C112.179 282.914 112.169 282.751 112.16 282.569C112.156 282.383 112.152 282.192 112.147 281.998L112.116 276.716C112.116 276.56 112.162 276.437 112.255 276.348C112.348 276.259 112.488 276.215 112.674 276.215C112.865 276.215 113.004 276.259 113.093 276.348C113.186 276.433 113.233 276.556 113.233 276.716V284.194C113.233 284.477 113.163 284.689 113.023 284.829C112.884 284.968 112.672 285.038 112.389 285.038C112.262 285.038 112.152 285.023 112.059 284.994C111.97 284.96 111.887 284.915 111.811 284.86C111.735 284.801 111.665 284.731 111.602 284.651C111.538 284.57 111.475 284.477 111.411 284.372L108.009 279.021C107.907 278.86 107.81 278.701 107.717 278.544C107.628 278.384 107.55 278.242 107.482 278.119C107.402 277.975 107.327 277.838 107.26 277.707L107.234 277.719C107.243 277.867 107.253 278.026 107.266 278.195C107.279 278.339 107.287 278.504 107.292 278.69C107.3 278.872 107.306 279.061 107.311 279.255L107.342 284.537C107.342 284.693 107.296 284.816 107.203 284.905C107.11 284.994 106.97 285.038 106.784 285.038C106.593 285.038 106.451 284.996 106.358 284.911C106.27 284.822 106.225 284.697 106.225 284.537V277.053ZM115.08 281.915C115.08 281.378 115.156 280.897 115.309 280.474C115.461 280.047 115.677 279.687 115.956 279.395C116.235 279.099 116.572 278.875 116.965 278.722C117.359 278.566 117.795 278.487 118.273 278.487C118.713 278.487 119.117 278.563 119.485 278.716C119.858 278.864 120.179 279.08 120.45 279.363C120.721 279.643 120.931 279.979 121.079 280.373C121.227 280.766 121.301 281.204 121.301 281.687C121.301 282.228 121.225 282.711 121.072 283.134C120.924 283.557 120.71 283.917 120.431 284.213C120.152 284.505 119.815 284.729 119.422 284.886C119.028 285.042 118.592 285.121 118.114 285.121C117.674 285.121 117.268 285.044 116.896 284.892C116.527 284.74 116.208 284.524 115.937 284.245C115.666 283.961 115.455 283.625 115.302 283.235C115.154 282.842 115.08 282.402 115.08 281.915ZM116.273 281.788C116.273 282.173 116.322 282.514 116.419 282.81C116.521 283.102 116.659 283.35 116.832 283.553C117.01 283.756 117.217 283.91 117.454 284.016C117.691 284.122 117.943 284.175 118.209 284.175C118.48 284.175 118.732 284.124 118.965 284.022C119.202 283.921 119.405 283.771 119.574 283.572C119.743 283.373 119.875 283.127 119.968 282.835C120.065 282.543 120.114 282.203 120.114 281.813C120.114 281.433 120.063 281.094 119.961 280.798C119.864 280.502 119.727 280.252 119.549 280.049C119.375 279.846 119.17 279.691 118.933 279.585C118.7 279.48 118.451 279.427 118.184 279.427C117.909 279.427 117.655 279.478 117.422 279.579C117.19 279.681 116.986 279.831 116.813 280.03C116.644 280.229 116.51 280.476 116.413 280.772C116.32 281.064 116.273 281.403 116.273 281.788ZM122.545 279.522C122.418 279.522 122.316 279.484 122.24 279.408C122.164 279.327 122.126 279.213 122.126 279.065C122.126 278.917 122.164 278.803 122.24 278.722C122.316 278.642 122.418 278.602 122.545 278.602H123.262L123.421 277.402C123.446 277.22 123.503 277.084 123.592 276.996C123.685 276.907 123.806 276.862 123.954 276.862C124.098 276.862 124.21 276.905 124.291 276.989C124.371 277.07 124.411 277.186 124.411 277.338V278.602H125.744C125.871 278.602 125.973 278.642 126.049 278.722C126.125 278.803 126.163 278.917 126.163 279.065C126.163 279.213 126.125 279.327 126.049 279.408C125.973 279.484 125.871 279.522 125.744 279.522H124.411V283.178C124.411 283.525 124.472 283.769 124.595 283.908C124.718 284.048 124.904 284.118 125.154 284.118C125.251 284.118 125.334 284.113 125.401 284.105C125.473 284.092 125.535 284.077 125.585 284.061C125.64 284.044 125.689 284.031 125.731 284.022C125.774 284.01 125.816 284.003 125.858 284.003C125.913 284.003 125.962 284.012 126.004 284.029C126.047 284.046 126.083 284.071 126.112 284.105C126.142 284.139 126.165 284.179 126.182 284.226C126.203 284.268 126.214 284.317 126.214 284.372C126.214 284.456 126.199 284.526 126.169 284.581C126.14 284.636 126.102 284.687 126.055 284.733C126.026 284.763 125.981 284.797 125.922 284.835C125.863 284.873 125.784 284.909 125.687 284.943C125.594 284.977 125.482 285.004 125.351 285.025C125.219 285.051 125.067 285.063 124.894 285.063C124.335 285.063 123.92 284.93 123.649 284.664C123.383 284.397 123.25 283.999 123.25 283.47V279.522H122.545ZM127.496 279.033C127.496 278.881 127.538 278.762 127.623 278.678C127.708 278.593 127.826 278.551 127.979 278.551C128.055 278.551 128.122 278.561 128.182 278.583C128.241 278.604 128.292 278.638 128.334 278.684C128.381 278.726 128.417 278.781 128.442 278.849C128.467 278.913 128.486 278.987 128.499 279.071L128.575 279.655H128.594C128.679 279.49 128.778 279.336 128.893 279.192C129.007 279.044 129.132 278.919 129.267 278.817C129.403 278.712 129.546 278.631 129.699 278.576C129.851 278.517 130.01 278.487 130.175 278.487C130.395 278.487 130.562 278.54 130.676 278.646C130.795 278.752 130.854 278.904 130.854 279.103C130.854 279.315 130.803 279.478 130.702 279.592C130.6 279.702 130.488 279.757 130.365 279.757C130.319 279.757 130.278 279.755 130.245 279.75C130.211 279.742 130.177 279.734 130.143 279.725C130.113 279.717 130.08 279.71 130.042 279.706C130.008 279.698 129.97 279.693 129.927 279.693C129.817 279.693 129.705 279.719 129.591 279.77C129.481 279.82 129.373 279.894 129.267 279.992C129.161 280.089 129.056 280.21 128.95 280.354C128.848 280.493 128.751 280.656 128.658 280.842V284.518C128.658 284.683 128.609 284.812 128.512 284.905C128.414 284.994 128.268 285.038 128.074 285.038C127.879 285.038 127.733 284.994 127.636 284.905C127.543 284.812 127.496 284.683 127.496 284.518V279.033ZM132.638 281.928V281.972C132.646 282.319 132.701 282.628 132.803 282.899C132.904 283.166 133.046 283.394 133.228 283.584C133.41 283.771 133.628 283.915 133.882 284.016C134.136 284.113 134.417 284.162 134.726 284.162C134.967 284.162 135.173 284.145 135.342 284.111C135.511 284.073 135.657 284.035 135.78 283.997C135.903 283.959 136.006 283.923 136.091 283.889C136.18 283.855 136.26 283.838 136.332 283.838C136.391 283.838 136.444 283.849 136.491 283.87C136.537 283.891 136.575 283.919 136.605 283.953C136.639 283.982 136.664 284.02 136.681 284.067C136.698 284.113 136.707 284.162 136.707 284.213C136.707 284.289 136.694 284.355 136.668 284.41C136.643 284.465 136.601 284.522 136.542 284.581C136.486 284.636 136.402 284.695 136.288 284.759C136.173 284.818 136.032 284.875 135.862 284.93C135.693 284.981 135.496 285.025 135.272 285.063C135.052 285.102 134.806 285.121 134.536 285.121C134.07 285.121 133.647 285.049 133.266 284.905C132.889 284.757 132.568 284.549 132.301 284.283C132.039 284.012 131.834 283.686 131.686 283.305C131.542 282.92 131.47 282.488 131.47 282.01C131.47 281.447 131.546 280.948 131.698 280.512C131.851 280.072 132.06 279.704 132.327 279.408C132.593 279.107 132.909 278.879 133.272 278.722C133.641 278.566 134.041 278.487 134.472 278.487C134.845 278.487 135.183 278.549 135.488 278.671C135.792 278.794 136.055 278.974 136.275 279.211C136.495 279.444 136.666 279.729 136.789 280.068C136.912 280.402 136.973 280.783 136.973 281.21C136.973 281.447 136.918 281.627 136.808 281.75C136.698 281.868 136.531 281.928 136.307 281.928H132.638ZM135.881 281.096C135.822 280.512 135.663 280.081 135.405 279.801C135.147 279.522 134.79 279.382 134.333 279.382C134.142 279.382 133.958 279.418 133.78 279.49C133.607 279.558 133.446 279.664 133.298 279.808C133.154 279.947 133.029 280.125 132.923 280.341C132.818 280.552 132.739 280.804 132.688 281.096H135.881ZM141.842 280.347C141.842 280.089 141.893 279.848 141.994 279.624C142.1 279.395 142.254 279.198 142.458 279.033C142.665 278.864 142.919 278.731 143.219 278.633C143.524 278.536 143.875 278.487 144.273 278.487C144.493 278.487 144.688 278.5 144.857 278.525C145.03 278.551 145.181 278.585 145.308 278.627C145.435 278.669 145.538 278.714 145.619 278.76C145.703 278.807 145.767 278.851 145.809 278.894C145.868 278.953 145.909 279.012 145.93 279.071C145.955 279.131 145.968 279.202 145.968 279.287C145.968 279.346 145.957 279.399 145.936 279.446C145.915 279.492 145.885 279.535 145.847 279.573C145.813 279.607 145.771 279.634 145.72 279.655C145.669 279.676 145.614 279.687 145.555 279.687C145.487 279.687 145.411 279.672 145.327 279.643C145.246 279.613 145.151 279.581 145.041 279.547C144.935 279.509 144.812 279.475 144.673 279.446C144.533 279.416 144.366 279.401 144.171 279.401C143.964 279.401 143.786 279.423 143.638 279.465C143.49 279.507 143.367 279.564 143.27 279.636C143.173 279.708 143.101 279.795 143.054 279.896C143.008 279.994 142.984 280.1 142.984 280.214C142.984 280.383 143.031 280.525 143.124 280.639C143.221 280.753 143.346 280.851 143.499 280.931C143.655 281.012 143.831 281.086 144.025 281.153C144.224 281.217 144.427 281.285 144.635 281.356C144.842 281.428 145.043 281.509 145.238 281.598C145.437 281.687 145.612 281.801 145.765 281.94C145.921 282.076 146.046 282.241 146.139 282.436C146.236 282.63 146.285 282.865 146.285 283.14C146.285 283.415 146.23 283.673 146.12 283.915C146.01 284.152 145.847 284.359 145.631 284.537C145.416 284.714 145.147 284.856 144.825 284.962C144.504 285.063 144.131 285.114 143.708 285.114C143.446 285.114 143.215 285.099 143.016 285.07C142.821 285.044 142.652 285.011 142.508 284.968C142.369 284.922 142.252 284.873 142.159 284.822C142.07 284.767 142.005 284.719 141.962 284.676C141.912 284.625 141.871 284.57 141.842 284.511C141.816 284.448 141.804 284.372 141.804 284.283C141.804 284.156 141.842 284.054 141.918 283.978C141.994 283.898 142.094 283.857 142.216 283.857C142.284 283.857 142.358 283.876 142.438 283.915C142.523 283.953 142.625 283.993 142.743 284.035C142.866 284.077 143.012 284.116 143.181 284.149C143.35 284.183 143.558 284.2 143.803 284.2C144.036 284.2 144.235 284.177 144.4 284.13C144.569 284.084 144.707 284.02 144.812 283.94C144.923 283.855 145.003 283.756 145.054 283.642C145.109 283.527 145.136 283.405 145.136 283.273C145.136 283.096 145.088 282.948 144.99 282.829C144.897 282.711 144.772 282.609 144.616 282.524C144.463 282.44 144.288 282.366 144.089 282.302C143.894 282.235 143.693 282.165 143.486 282.093C143.283 282.021 143.082 281.94 142.883 281.852C142.688 281.758 142.513 281.646 142.356 281.515C142.199 281.384 142.075 281.225 141.981 281.039C141.888 280.849 141.842 280.618 141.842 280.347ZM148.685 281.928V281.972C148.693 282.319 148.748 282.628 148.85 282.899C148.951 283.166 149.093 283.394 149.275 283.584C149.457 283.771 149.675 283.915 149.929 284.016C150.183 284.113 150.464 284.162 150.773 284.162C151.014 284.162 151.219 284.145 151.389 284.111C151.558 284.073 151.704 284.035 151.827 283.997C151.949 283.959 152.053 283.923 152.138 283.889C152.227 283.855 152.307 283.838 152.379 283.838C152.438 283.838 152.491 283.849 152.538 283.87C152.584 283.891 152.622 283.919 152.652 283.953C152.686 283.982 152.711 284.02 152.728 284.067C152.745 284.113 152.753 284.162 152.753 284.213C152.753 284.289 152.741 284.355 152.715 284.41C152.69 284.465 152.648 284.522 152.588 284.581C152.533 284.636 152.449 284.695 152.334 284.759C152.22 284.818 152.078 284.875 151.909 284.93C151.74 284.981 151.543 285.025 151.319 285.063C151.099 285.102 150.853 285.121 150.583 285.121C150.117 285.121 149.694 285.049 149.313 284.905C148.936 284.757 148.615 284.549 148.348 284.283C148.086 284.012 147.881 283.686 147.732 283.305C147.589 282.92 147.517 282.488 147.517 282.01C147.517 281.447 147.593 280.948 147.745 280.512C147.897 280.072 148.107 279.704 148.374 279.408C148.64 279.107 148.955 278.879 149.319 278.722C149.688 278.566 150.087 278.487 150.519 278.487C150.891 278.487 151.23 278.549 151.535 278.671C151.839 278.794 152.102 278.974 152.322 279.211C152.542 279.444 152.713 279.729 152.836 280.068C152.959 280.402 153.02 280.783 153.02 281.21C153.02 281.447 152.965 281.627 152.855 281.75C152.745 281.868 152.578 281.928 152.354 281.928H148.685ZM151.928 281.096C151.869 280.512 151.71 280.081 151.452 279.801C151.194 279.522 150.836 279.382 150.379 279.382C150.189 279.382 150.005 279.418 149.827 279.49C149.654 279.558 149.493 279.664 149.345 279.808C149.201 279.947 149.076 280.125 148.97 280.341C148.864 280.552 148.786 280.804 148.735 281.096H151.928ZM150.862 275.542C150.917 275.466 150.97 275.411 151.021 275.377C151.076 275.339 151.143 275.32 151.224 275.32C151.296 275.32 151.37 275.337 151.446 275.371C151.522 275.4 151.592 275.445 151.655 275.504C151.719 275.559 151.772 275.622 151.814 275.694C151.856 275.766 151.877 275.845 151.877 275.929C151.877 275.967 151.871 276.001 151.858 276.031C151.846 276.06 151.831 276.09 151.814 276.12C151.797 276.145 151.778 276.17 151.757 276.196C151.736 276.217 151.712 276.238 151.687 276.259L150.424 277.554C150.369 277.613 150.316 277.656 150.265 277.681C150.214 277.707 150.161 277.719 150.106 277.719C150.047 277.719 149.992 277.709 149.941 277.688C149.891 277.662 149.844 277.63 149.802 277.592C149.759 277.554 149.728 277.51 149.707 277.459C149.685 277.408 149.675 277.357 149.675 277.307C149.675 277.252 149.688 277.203 149.713 277.161C149.738 277.118 149.766 277.076 149.795 277.034L150.862 275.542ZM154.766 276.107C154.766 275.942 154.812 275.815 154.905 275.726C155.003 275.633 155.149 275.586 155.343 275.586C155.538 275.586 155.684 275.633 155.781 275.726C155.879 275.815 155.927 275.942 155.927 276.107V283.191C155.927 283.373 155.938 283.523 155.959 283.642C155.984 283.76 156.02 283.855 156.067 283.927C156.118 283.995 156.175 284.044 156.238 284.073C156.306 284.103 156.38 284.118 156.46 284.118C156.537 284.118 156.602 284.113 156.657 284.105C156.712 284.097 156.767 284.092 156.822 284.092C156.873 284.092 156.917 284.101 156.956 284.118C156.998 284.135 157.032 284.16 157.057 284.194C157.087 284.228 157.11 284.268 157.127 284.314C157.148 284.357 157.159 284.403 157.159 284.454C157.159 284.543 157.146 284.615 157.121 284.67C157.095 284.725 157.061 284.771 157.019 284.81C156.989 284.843 156.949 284.875 156.898 284.905C156.852 284.934 156.795 284.962 156.727 284.987C156.664 285.008 156.587 285.025 156.499 285.038C156.41 285.055 156.306 285.063 156.188 285.063C155.726 285.063 155.373 284.937 155.127 284.683C154.886 284.429 154.766 284.037 154.766 283.508V276.107ZM159.082 281.928V281.972C159.09 282.319 159.146 282.628 159.247 282.899C159.349 283.166 159.49 283.394 159.672 283.584C159.854 283.771 160.072 283.915 160.326 284.016C160.58 284.113 160.861 284.162 161.17 284.162C161.412 284.162 161.617 284.145 161.786 284.111C161.955 284.073 162.101 284.035 162.224 283.997C162.347 283.959 162.451 283.923 162.535 283.889C162.624 283.855 162.704 283.838 162.776 283.838C162.836 283.838 162.889 283.849 162.935 283.87C162.982 283.891 163.02 283.919 163.049 283.953C163.083 283.982 163.109 284.02 163.125 284.067C163.142 284.113 163.151 284.162 163.151 284.213C163.151 284.289 163.138 284.355 163.113 284.41C163.087 284.465 163.045 284.522 162.986 284.581C162.931 284.636 162.846 284.695 162.732 284.759C162.618 284.818 162.476 284.875 162.307 284.93C162.137 284.981 161.941 285.025 161.716 285.063C161.496 285.102 161.251 285.121 160.98 285.121C160.514 285.121 160.091 285.049 159.71 284.905C159.334 284.757 159.012 284.549 158.746 284.283C158.483 284.012 158.278 283.686 158.13 283.305C157.986 282.92 157.914 282.488 157.914 282.01C157.914 281.447 157.99 280.948 158.143 280.512C158.295 280.072 158.504 279.704 158.771 279.408C159.038 279.107 159.353 278.879 159.717 278.722C160.085 278.566 160.485 278.487 160.917 278.487C161.289 278.487 161.627 278.549 161.932 278.671C162.237 278.794 162.499 278.974 162.719 279.211C162.939 279.444 163.111 279.729 163.233 280.068C163.356 280.402 163.417 280.783 163.417 281.21C163.417 281.447 163.362 281.627 163.252 281.75C163.142 281.868 162.975 281.928 162.751 281.928H159.082ZM162.326 281.096C162.266 280.512 162.108 280.081 161.85 279.801C161.591 279.522 161.234 279.382 160.777 279.382C160.586 279.382 160.402 279.418 160.225 279.49C160.051 279.558 159.89 279.664 159.742 279.808C159.598 279.947 159.473 280.125 159.368 280.341C159.262 280.552 159.184 280.804 159.133 281.096H162.326ZM164.706 282.042C164.706 281.488 164.784 280.99 164.941 280.55C165.102 280.11 165.326 279.738 165.614 279.433C165.902 279.128 166.244 278.896 166.642 278.735C167.04 278.57 167.476 278.487 167.95 278.487C168.14 278.487 168.312 278.5 168.464 278.525C168.62 278.551 168.756 278.585 168.87 278.627C168.984 278.665 169.08 278.707 169.156 278.754C169.236 278.8 169.295 278.845 169.333 278.887C169.389 278.942 169.429 279.001 169.454 279.065C169.479 279.124 169.492 279.196 169.492 279.281C169.492 279.34 169.482 279.395 169.46 279.446C169.444 279.497 169.416 279.541 169.378 279.579C169.344 279.613 169.302 279.643 169.251 279.668C169.2 279.689 169.143 279.7 169.08 279.7C169.008 279.7 168.936 279.687 168.864 279.662C168.796 279.632 168.718 279.6 168.629 279.566C168.54 279.533 168.432 279.503 168.305 279.478C168.178 279.448 168.026 279.433 167.848 279.433C167.573 279.433 167.317 279.486 167.08 279.592C166.843 279.698 166.636 279.854 166.458 280.062C166.285 280.265 166.147 280.521 166.045 280.83C165.948 281.134 165.899 281.488 165.899 281.89C165.899 282.249 165.948 282.571 166.045 282.854C166.147 283.134 166.287 283.371 166.464 283.565C166.642 283.756 166.856 283.904 167.105 284.01C167.355 284.111 167.63 284.162 167.931 284.162C168.113 284.162 168.267 284.149 168.394 284.124C168.525 284.099 168.635 284.071 168.724 284.042C168.813 284.008 168.889 283.978 168.953 283.953C169.02 283.927 169.088 283.915 169.156 283.915C169.211 283.915 169.262 283.925 169.308 283.946C169.355 283.963 169.393 283.989 169.422 284.022C169.456 284.056 169.482 284.097 169.499 284.143C169.515 284.19 169.524 284.24 169.524 284.295C169.524 284.367 169.509 284.435 169.479 284.499C169.45 284.558 169.408 284.615 169.353 284.67C169.298 284.725 169.219 284.78 169.118 284.835C169.016 284.89 168.896 284.939 168.756 284.981C168.616 285.023 168.458 285.057 168.28 285.083C168.106 285.108 167.914 285.121 167.702 285.121C167.254 285.121 166.845 285.049 166.477 284.905C166.109 284.757 165.794 284.549 165.531 284.283C165.273 284.016 165.07 283.692 164.922 283.312C164.778 282.931 164.706 282.507 164.706 282.042ZM170.571 279.522C170.444 279.522 170.343 279.484 170.267 279.408C170.19 279.327 170.152 279.213 170.152 279.065C170.152 278.917 170.19 278.803 170.267 278.722C170.343 278.642 170.444 278.602 170.571 278.602H171.289L171.447 277.402C171.473 277.22 171.53 277.084 171.619 276.996C171.712 276.907 171.832 276.862 171.98 276.862C172.124 276.862 172.236 276.905 172.317 276.989C172.397 277.07 172.438 277.186 172.438 277.338V278.602H173.771C173.897 278.602 173.999 278.642 174.075 278.722C174.151 278.803 174.189 278.917 174.189 279.065C174.189 279.213 174.151 279.327 174.075 279.408C173.999 279.484 173.897 279.522 173.771 279.522H172.438V283.178C172.438 283.525 172.499 283.769 172.622 283.908C172.744 284.048 172.931 284.118 173.18 284.118C173.278 284.118 173.36 284.113 173.428 284.105C173.5 284.092 173.561 284.077 173.612 284.061C173.667 284.044 173.715 284.031 173.758 284.022C173.8 284.01 173.842 284.003 173.885 284.003C173.94 284.003 173.988 284.012 174.031 284.029C174.073 284.046 174.109 284.071 174.139 284.105C174.168 284.139 174.192 284.179 174.208 284.226C174.23 284.268 174.24 284.317 174.24 284.372C174.24 284.456 174.225 284.526 174.196 284.581C174.166 284.636 174.128 284.687 174.082 284.733C174.052 284.763 174.007 284.797 173.948 284.835C173.889 284.873 173.811 284.909 173.713 284.943C173.62 284.977 173.508 285.004 173.377 285.025C173.246 285.051 173.093 285.063 172.92 285.063C172.361 285.063 171.947 284.93 171.676 284.664C171.409 284.397 171.276 283.999 171.276 283.47V279.522H170.571ZM175.522 279.084C175.522 278.919 175.569 278.792 175.662 278.703C175.759 278.61 175.905 278.563 176.1 278.563C176.295 278.563 176.441 278.61 176.538 278.703C176.635 278.792 176.684 278.919 176.684 279.084V284.518C176.684 284.683 176.635 284.812 176.538 284.905C176.441 284.994 176.295 285.038 176.1 285.038C175.905 285.038 175.759 284.994 175.662 284.905C175.569 284.812 175.522 284.683 175.522 284.518V279.084ZM175.313 276.634C175.313 276.52 175.332 276.416 175.37 276.323C175.412 276.225 175.467 276.143 175.535 276.075C175.607 276.003 175.692 275.948 175.789 275.91C175.886 275.868 175.994 275.847 176.113 275.847C176.223 275.847 176.324 275.868 176.417 275.91C176.515 275.948 176.597 276.001 176.665 276.069C176.733 276.137 176.786 276.217 176.824 276.31C176.866 276.403 176.887 276.503 176.887 276.608C176.887 276.718 176.866 276.822 176.824 276.919C176.786 277.017 176.731 277.099 176.659 277.167C176.591 277.235 176.508 277.29 176.411 277.332C176.314 277.37 176.206 277.389 176.087 277.389C175.977 277.389 175.874 277.37 175.776 277.332C175.683 277.29 175.603 277.237 175.535 277.173C175.467 277.106 175.412 277.025 175.37 276.932C175.332 276.839 175.313 276.74 175.313 276.634ZM178.404 281.915C178.404 281.378 178.48 280.897 178.633 280.474C178.785 280.047 179.001 279.687 179.28 279.395C179.56 279.099 179.896 278.875 180.29 278.722C180.683 278.566 181.119 278.487 181.597 278.487C182.037 278.487 182.441 278.563 182.81 278.716C183.182 278.864 183.504 279.08 183.774 279.363C184.045 279.643 184.255 279.979 184.403 280.373C184.551 280.766 184.625 281.204 184.625 281.687C184.625 282.228 184.549 282.711 184.396 283.134C184.248 283.557 184.035 283.917 183.755 284.213C183.476 284.505 183.14 284.729 182.746 284.886C182.353 285.042 181.917 285.121 181.438 285.121C180.998 285.121 180.592 285.044 180.22 284.892C179.852 284.74 179.532 284.524 179.261 284.245C178.99 283.961 178.779 283.625 178.626 283.235C178.478 282.842 178.404 282.402 178.404 281.915ZM179.598 281.788C179.598 282.173 179.646 282.514 179.744 282.81C179.845 283.102 179.983 283.35 180.156 283.553C180.334 283.756 180.541 283.91 180.778 284.016C181.015 284.122 181.267 284.175 181.534 284.175C181.805 284.175 182.056 284.124 182.289 284.022C182.526 283.921 182.729 283.771 182.898 283.572C183.068 283.373 183.199 283.127 183.292 282.835C183.389 282.543 183.438 282.203 183.438 281.813C183.438 281.433 183.387 281.094 183.286 280.798C183.188 280.502 183.051 280.252 182.873 280.049C182.7 279.846 182.494 279.691 182.257 279.585C182.025 279.48 181.775 279.427 181.508 279.427C181.233 279.427 180.979 279.478 180.747 279.579C180.514 279.681 180.311 279.831 180.137 280.03C179.968 280.229 179.835 280.476 179.737 280.772C179.644 281.064 179.598 281.403 179.598 281.788ZM186.364 279.033C186.364 278.881 186.407 278.762 186.491 278.678C186.576 278.593 186.694 278.551 186.847 278.551C186.923 278.551 186.991 278.561 187.05 278.583C187.109 278.604 187.16 278.635 187.202 278.678C187.244 278.72 187.278 278.773 187.304 278.836C187.333 278.9 187.354 278.974 187.367 279.059L187.424 279.497H187.443C187.57 279.306 187.729 279.137 187.919 278.989C188 278.925 188.093 278.864 188.199 278.805C188.305 278.745 188.421 278.693 188.548 278.646C188.675 278.599 188.812 278.561 188.96 278.532C189.113 278.502 189.276 278.487 189.449 278.487C189.817 278.487 190.15 278.544 190.446 278.659C190.742 278.769 190.992 278.934 191.195 279.154C191.402 279.374 191.561 279.647 191.671 279.973C191.781 280.299 191.836 280.675 191.836 281.103V284.518C191.836 284.683 191.787 284.812 191.69 284.905C191.597 284.994 191.453 285.038 191.258 285.038C191.064 285.038 190.918 284.994 190.82 284.905C190.723 284.812 190.674 284.683 190.674 284.518V281.268C190.674 280.95 190.64 280.677 190.573 280.449C190.509 280.22 190.412 280.032 190.281 279.884C190.154 279.731 189.997 279.621 189.811 279.554C189.629 279.482 189.42 279.446 189.183 279.446C189.043 279.446 188.912 279.463 188.789 279.497C188.671 279.526 188.558 279.566 188.453 279.617C188.351 279.668 188.256 279.727 188.167 279.795C188.082 279.858 188.006 279.924 187.938 279.992C187.773 280.153 187.636 280.334 187.526 280.538V284.518C187.526 284.683 187.477 284.812 187.38 284.905C187.283 284.994 187.137 285.038 186.942 285.038C186.747 285.038 186.601 284.994 186.504 284.905C186.411 284.812 186.364 284.683 186.364 284.518V279.033Z" fill="#2E2D2D"/>
<g clip-path="url(#clip0_21_9833)">
<path d="M332.838 152.57C332.838 155.477 337.002 154.461 337.002 156.658C337.002 157.515 336.386 158.13 335.174 158.13C333.854 158.13 333.606 157.699 333.244 157.699C332.978 157.699 332.793 157.876 332.793 158.143C332.793 158.321 332.844 158.435 332.978 158.568C333.206 158.797 333.911 159.114 335.072 159.114C337.129 159.114 338.202 158.035 338.202 156.518C338.202 153.452 334.038 154.468 334.038 152.43C334.038 151.662 334.583 151.116 335.701 151.116C336.773 151.116 337.053 151.503 337.415 151.503C337.681 151.503 337.872 151.332 337.872 151.065C337.872 150.9 337.827 150.786 337.688 150.646C337.459 150.418 336.799 150.132 335.802 150.132C333.873 150.132 332.838 151.173 332.838 152.57Z" fill="#2E2D2D"/>
<rect x="297.5" y="144.5" width="19" height="19" rx="3.5" fill="white" stroke="#2E2D2D"/>
</g>
<g clip-path="url(#clip1_21_9833)">
<path d="M332.838 194.57C332.838 197.477 337.002 196.461 337.002 198.658C337.002 199.515 336.386 200.13 335.174 200.13C333.854 200.13 333.606 199.699 333.244 199.699C332.978 199.699 332.793 199.876 332.793 200.143C332.793 200.321 332.844 200.435 332.978 200.568C333.206 200.797 333.911 201.114 335.072 201.114C337.129 201.114 338.202 200.035 338.202 198.518C338.202 195.452 334.038 196.468 334.038 194.43C334.038 193.662 334.583 193.116 335.701 193.116C336.773 193.116 337.053 193.503 337.415 193.503C337.681 193.503 337.872 193.332 337.872 193.065C337.872 192.9 337.827 192.786 337.688 192.646C337.459 192.418 336.799 192.132 335.802 192.132C333.873 192.132 332.838 193.173 332.838 194.57Z" fill="#2E2D2D"/>
<rect x="297.25" y="186.25" width="19.5" height="19.5" rx="3.75" fill="white" stroke="#2E2D2D" stroke-width="0.5"/>
<rect x="300" y="189" width="14" height="14" rx="2" fill="#2E2D2D"/>
</g>
<rect x="297.25" y="266.25" width="54.5" height="27.5" rx="3.75" fill="white"/>
<path d="M310.072 280.531L307.667 283.946C307.482 284.207 307.394 284.327 307.394 284.499C307.394 284.816 307.711 285.057 308.028 285.057C308.174 285.057 308.289 285.006 308.365 284.93C308.428 284.867 308.479 284.797 308.65 284.537L310.707 281.369L312.91 284.568C313.087 284.829 313.138 284.879 313.183 284.924C313.265 285.006 313.373 285.057 313.519 285.057C313.862 285.057 314.205 284.778 314.205 284.429C314.205 284.238 314.103 284.118 313.919 283.857L311.52 280.519L313.798 277.307C313.982 277.053 314.078 276.926 314.078 276.754C314.078 276.437 313.754 276.196 313.437 276.196C313.297 276.196 313.176 276.24 313.1 276.323C313.037 276.386 312.999 276.443 312.821 276.716L310.885 279.674L308.822 276.685C308.644 276.424 308.593 276.374 308.549 276.329C308.466 276.247 308.358 276.196 308.206 276.196C307.87 276.196 307.521 276.475 307.521 276.824C307.521 277.015 307.622 277.135 307.806 277.396L310.072 280.531ZM315.328 278.57C315.328 281.477 319.492 280.461 319.492 282.658C319.492 283.515 318.876 284.13 317.664 284.13C316.344 284.13 316.096 283.699 315.734 283.699C315.468 283.699 315.284 283.876 315.284 284.143C315.284 284.321 315.334 284.435 315.468 284.568C315.696 284.797 316.401 285.114 317.562 285.114C319.619 285.114 320.692 284.035 320.692 282.518C320.692 279.452 316.528 280.468 316.528 278.43C316.528 277.662 317.074 277.116 318.191 277.116C319.264 277.116 319.543 277.503 319.905 277.503C320.171 277.503 320.362 277.332 320.362 277.065C320.362 276.9 320.317 276.786 320.178 276.646C319.949 276.418 319.289 276.132 318.292 276.132C316.363 276.132 315.328 277.173 315.328 278.57Z" fill="#2E2D2D"/>
<path d="M333 284L341 276" stroke="#2E2D2D" stroke-linecap="round"/>
<path d="M341 284L333 276" stroke="#2E2D2D" stroke-linecap="round"/>
<rect x="297.25" y="266.25" width="54.5" height="27.5" rx="3.75" stroke="#D0CEC9" stroke-width="0.5"/>
<defs>
<clipPath id="clip0_21_9833">
<rect width="175" height="22" fill="white" transform="translate(297 143)"/>
</clipPath>
<clipPath id="clip1_21_9833">
<rect width="175" height="22" fill="white" transform="translate(297 185)"/>
</clipPath>
</defs>
</svg>
