<svg width="518" height="459" viewBox="0 0 518 459" fill="none" xmlns="http://www.w3.org/2000/svg">
<rect width="518" height="459" rx="16" fill="#E2E2E2"/>
<path d="M75.755 45.534H78.212L81.848 53.067H81.686L85.322 45.534H87.698V57H85.97V47.415H86.249L82.325 55.641H81.2L77.294 47.46H77.465V57H75.755V45.534ZM95.4002 57.234C94.4222 57.234 93.5522 57.012 92.7902 56.568C92.0282 56.124 91.4282 55.461 90.9902 54.579C90.5582 53.697 90.3422 52.596 90.3422 51.276C90.3422 49.932 90.5582 48.822 90.9902 47.946C91.4282 47.064 92.0282 46.407 92.7902 45.975C93.5522 45.543 94.4222 45.327 95.4002 45.327C96.3842 45.327 97.2572 45.546 98.0192 45.984C98.7872 46.422 99.3872 47.085 99.8192 47.973C100.257 48.855 100.476 49.956 100.476 51.276C100.476 52.608 100.257 53.718 99.8192 54.606C99.3872 55.488 98.7872 56.148 98.0192 56.586C97.2572 57.018 96.3842 57.234 95.4002 57.234ZM95.4002 55.668C96.4202 55.668 97.2242 55.293 97.8122 54.543C98.4062 53.793 98.7032 52.698 98.7032 51.258C98.7032 49.854 98.4062 48.771 97.8122 48.009C97.2242 47.241 96.4202 46.857 95.4002 46.857C94.3982 46.857 93.6002 47.241 93.0062 48.009C92.4122 48.777 92.1152 49.866 92.1152 51.276C92.1152 52.704 92.4122 53.793 93.0062 54.543C93.6002 55.293 94.3982 55.668 95.4002 55.668ZM103.107 57V45.534H107.544C108.402 45.534 109.113 45.672 109.677 45.948C110.247 46.224 110.673 46.59 110.955 47.046C111.237 47.502 111.378 48.003 111.378 48.549C111.378 49.203 111.195 49.767 110.829 50.241C110.469 50.715 109.941 51.042 109.245 51.222C109.701 51.3 110.103 51.465 110.451 51.717C110.799 51.963 111.072 52.269 111.27 52.635C111.474 53.001 111.576 53.406 111.576 53.85C111.576 54.228 111.51 54.603 111.378 54.975C111.246 55.347 111.027 55.686 110.721 55.992C110.415 56.298 110.004 56.544 109.488 56.73C108.972 56.91 108.327 57 107.553 57H103.107ZM104.817 55.506H107.517C108.297 55.506 108.861 55.344 109.209 55.02C109.563 54.696 109.74 54.276 109.74 53.76C109.74 53.238 109.554 52.818 109.182 52.5C108.81 52.182 108.255 52.023 107.517 52.023H104.817V55.506ZM104.817 47.01V50.538H107.481C108.147 50.538 108.669 50.379 109.047 50.061C109.431 49.743 109.623 49.302 109.623 48.738C109.623 48.204 109.437 47.784 109.065 47.478C108.699 47.166 108.177 47.01 107.499 47.01H104.817ZM114.497 57V45.534H116.207V57H114.497ZM121.428 45.534V55.506H126.369V57H119.718V45.534H121.428ZM128.313 57V45.534H135.513V47.01H130.023V50.502H135.189V51.978H130.023V55.506H135.513V57H128.313ZM142.243 55.524C142.243 55.188 142.357 54.903 142.585 54.669C142.819 54.435 143.113 54.318 143.467 54.318C143.821 54.318 144.121 54.435 144.367 54.669C144.613 54.903 144.736 55.188 144.736 55.524C144.736 55.854 144.613 56.133 144.367 56.361C144.121 56.583 143.821 56.694 143.467 56.694C143.113 56.694 142.819 56.58 142.585 56.352C142.357 56.124 142.243 55.848 142.243 55.524ZM142.243 50.07C142.243 49.734 142.357 49.449 142.585 49.215C142.819 48.981 143.113 48.864 143.467 48.864C143.821 48.864 144.121 48.981 144.367 49.215C144.613 49.449 144.736 49.734 144.736 50.07C144.736 50.4 144.613 50.679 144.367 50.907C144.121 51.129 143.821 51.24 143.467 51.24C143.113 51.24 142.819 51.126 142.585 50.898C142.357 50.67 142.243 50.394 142.243 50.07ZM154.649 57.234C154.157 57.234 153.713 57.141 153.317 56.955C152.921 56.769 152.606 56.49 152.372 56.118C152.144 55.74 152.03 55.266 152.03 54.696V45.984H153.731V54.642C153.731 55.458 154.112 55.866 154.874 55.866C155.108 55.866 155.336 55.842 155.558 55.794C155.78 55.74 156.032 55.662 156.314 55.56L156.557 56.775C156.239 56.907 155.924 57.015 155.612 57.099C155.306 57.189 154.985 57.234 154.649 57.234ZM150.707 49.503V48.342H156.296V49.503H150.707ZM157.399 48.342H159.316L161.926 55.506H161.575L163.672 48.342H165.418L162.133 58.665C161.833 59.601 161.446 60.3 160.972 60.762C160.504 61.23 159.916 61.464 159.208 61.464C158.812 61.464 158.431 61.413 158.065 61.311C157.705 61.209 157.336 61.059 156.958 60.861V59.322C157.282 59.55 157.594 59.715 157.894 59.817C158.194 59.919 158.506 59.97 158.83 59.97C159.154 59.97 159.43 59.871 159.658 59.673C159.892 59.481 160.087 59.223 160.243 58.899C160.405 58.581 160.543 58.233 160.657 57.855L160.918 57L157.399 48.342ZM171.547 57.234C170.917 57.234 170.371 57.093 169.909 56.811C169.447 56.523 169.093 56.103 168.847 55.551C168.607 54.993 168.487 54.303 168.487 53.481H169.153C169.153 53.955 169.255 54.357 169.459 54.687C169.663 55.011 169.93 55.26 170.26 55.434C170.596 55.602 170.953 55.686 171.331 55.686C171.727 55.686 172.111 55.575 172.483 55.353C172.861 55.125 173.17 54.786 173.41 54.336C173.65 53.886 173.77 53.328 173.77 52.662C173.77 52.026 173.662 51.483 173.446 51.033C173.236 50.583 172.948 50.238 172.582 49.998C172.216 49.758 171.805 49.638 171.349 49.638C170.965 49.638 170.604 49.731 170.269 49.917C169.933 50.097 169.663 50.364 169.459 50.718C169.255 51.066 169.153 51.492 169.153 51.996H168.487C168.487 51.126 168.625 50.403 168.901 49.827C169.183 49.251 169.561 48.822 170.035 48.54C170.509 48.252 171.034 48.108 171.61 48.108C172.288 48.108 172.924 48.291 173.518 48.657C174.112 49.017 174.592 49.536 174.958 50.214C175.33 50.892 175.516 51.708 175.516 52.662C175.516 53.616 175.33 54.435 174.958 55.119C174.586 55.803 174.097 56.328 173.491 56.694C172.891 57.054 172.243 57.234 171.547 57.234ZM167.443 61.248V48.342H168.856L169.153 50.421V61.248H167.443ZM181.423 57.234C180.637 57.234 179.932 57.063 179.308 56.721C178.69 56.379 178.201 55.869 177.841 55.191C177.481 54.513 177.301 53.676 177.301 52.68C177.301 51.666 177.481 50.823 177.841 50.151C178.201 49.473 178.69 48.963 179.308 48.621C179.932 48.279 180.637 48.108 181.423 48.108C182.197 48.108 182.893 48.279 183.511 48.621C184.129 48.963 184.615 49.473 184.969 50.151C185.329 50.823 185.509 51.666 185.509 52.68C185.509 53.676 185.329 54.513 184.969 55.191C184.615 55.869 184.129 56.379 183.511 56.721C182.893 57.063 182.197 57.234 181.423 57.234ZM181.369 55.74C181.867 55.74 182.296 55.62 182.656 55.38C183.022 55.14 183.301 54.792 183.493 54.336C183.691 53.874 183.79 53.322 183.79 52.68C183.79 51.696 183.589 50.934 183.187 50.394C182.791 49.854 182.218 49.584 181.468 49.584C180.964 49.584 180.529 49.707 180.163 49.953C179.803 50.193 179.524 50.544 179.326 51.006C179.134 51.462 179.038 52.02 179.038 52.68C179.038 53.646 179.239 54.399 179.641 54.939C180.043 55.473 180.619 55.74 181.369 55.74ZM191.336 61.464C190.4 61.464 189.593 61.335 188.915 61.077C188.243 60.819 187.724 60.474 187.358 60.042C186.992 59.61 186.809 59.139 186.809 58.629C186.809 57.981 187.046 57.483 187.52 57.135C187.994 56.793 188.597 56.622 189.329 56.622L190.436 57.144C189.812 57.144 189.329 57.27 188.987 57.522C188.651 57.774 188.483 58.116 188.483 58.548C188.483 58.998 188.729 59.367 189.221 59.655C189.713 59.949 190.418 60.096 191.336 60.096C192.002 60.096 192.587 59.997 193.091 59.799C193.595 59.607 193.985 59.352 194.261 59.034C194.537 58.722 194.675 58.386 194.675 58.026C194.675 57.78 194.585 57.57 194.405 57.396C194.231 57.228 193.964 57.144 193.604 57.144H190.436C189.848 57.144 189.329 57.054 188.879 56.874C188.435 56.688 188.087 56.445 187.835 56.145C187.583 55.845 187.457 55.512 187.457 55.146C187.457 54.786 187.559 54.477 187.763 54.219C187.967 53.955 188.237 53.757 188.573 53.625C188.909 53.487 189.278 53.418 189.68 53.418L190.067 54.012C189.893 54.012 189.719 54.051 189.545 54.129C189.371 54.201 189.227 54.312 189.113 54.462C188.999 54.612 188.942 54.798 188.942 55.02C188.942 55.278 189.05 55.494 189.266 55.668C189.488 55.836 189.878 55.92 190.436 55.92H193.604C194.468 55.92 195.146 56.091 195.638 56.433C196.13 56.775 196.376 57.273 196.376 57.927C196.376 58.521 196.172 59.088 195.764 59.628C195.356 60.168 194.774 60.609 194.018 60.951C193.268 61.293 192.374 61.464 191.336 61.464ZM191.525 54.399C190.853 54.399 190.241 54.27 189.689 54.012C189.143 53.748 188.708 53.382 188.384 52.914C188.06 52.44 187.898 51.888 187.898 51.258C187.898 50.622 188.06 50.07 188.384 49.602C188.708 49.128 189.143 48.762 189.689 48.504C190.241 48.24 190.853 48.108 191.525 48.108C192.179 48.108 192.776 48.24 193.316 48.504C193.862 48.762 194.297 49.128 194.621 49.602C194.951 50.07 195.116 50.622 195.116 51.258C195.116 51.888 194.951 52.44 194.621 52.914C194.297 53.382 193.862 53.748 193.316 54.012C192.776 54.27 192.179 54.399 191.525 54.399ZM191.525 53.193C192.143 53.193 192.614 53.01 192.938 52.644C193.268 52.272 193.433 51.81 193.433 51.258C193.433 50.682 193.268 50.217 192.938 49.863C192.614 49.509 192.143 49.332 191.525 49.332C190.919 49.332 190.445 49.509 190.103 49.863C189.767 50.217 189.599 50.682 189.599 51.258C189.599 51.81 189.767 52.272 190.103 52.644C190.445 53.01 190.919 53.193 191.525 53.193ZM194.468 49.494L193.667 49.107C193.667 48.591 193.775 48.141 193.991 47.757C194.207 47.373 194.507 47.073 194.891 46.857C195.275 46.641 195.716 46.533 196.214 46.533L196.106 48.198C195.572 48.198 195.164 48.303 194.882 48.513C194.606 48.723 194.468 49.05 194.468 49.494ZM198.45 57V48.315H200.16V57H198.45ZM199.692 53.13C199.692 52.02 199.806 51.099 200.034 50.367C200.268 49.629 200.592 49.08 201.006 48.72C201.426 48.36 201.918 48.18 202.482 48.18C202.65 48.18 202.806 48.192 202.95 48.216C203.1 48.24 203.247 48.273 203.391 48.315L203.328 50.016C203.166 49.974 202.989 49.938 202.797 49.908C202.611 49.872 202.44 49.854 202.284 49.854C201.792 49.854 201.39 49.986 201.078 50.25C200.766 50.508 200.535 50.883 200.385 51.375C200.235 51.861 200.16 52.446 200.16 53.13H199.692ZM210.61 57L210.394 55.011V51.402C210.394 50.694 210.247 50.181 209.953 49.863C209.659 49.539 209.194 49.377 208.558 49.377C208.198 49.377 207.877 49.431 207.595 49.539C207.319 49.641 207.1 49.797 206.938 50.007C206.782 50.217 206.704 50.481 206.704 50.799H204.814C204.814 50.163 204.97 49.647 205.282 49.251C205.594 48.855 206.029 48.567 206.587 48.387C207.151 48.201 207.808 48.108 208.558 48.108C209.26 48.108 209.878 48.225 210.412 48.459C210.946 48.687 211.36 49.047 211.654 49.539C211.954 50.031 212.104 50.667 212.104 51.447V57H210.61ZM207.712 57.234C206.986 57.234 206.383 57.108 205.903 56.856C205.423 56.598 205.063 56.262 204.823 55.848C204.589 55.434 204.472 54.993 204.472 54.525C204.472 53.955 204.616 53.487 204.904 53.121C205.198 52.749 205.603 52.473 206.119 52.293C206.635 52.113 207.229 52.023 207.901 52.023C208.363 52.023 208.813 52.065 209.251 52.149C209.689 52.233 210.121 52.344 210.547 52.482V53.517C210.199 53.391 209.812 53.292 209.386 53.22C208.966 53.142 208.573 53.103 208.207 53.103C207.661 53.103 207.205 53.211 206.839 53.427C206.473 53.643 206.29 54.009 206.29 54.525C206.29 54.903 206.434 55.23 206.722 55.506C207.01 55.776 207.466 55.911 208.09 55.911C208.546 55.911 208.948 55.809 209.296 55.605C209.644 55.395 209.914 55.134 210.106 54.822C210.298 54.51 210.394 54.198 210.394 53.886H210.808C210.808 54.486 210.685 55.041 210.439 55.551C210.199 56.055 209.848 56.463 209.386 56.775C208.924 57.081 208.366 57.234 207.712 57.234ZM219.464 57.234C218.834 57.234 218.288 57.093 217.826 56.811C217.364 56.523 217.01 56.103 216.764 55.551C216.524 54.993 216.404 54.303 216.404 53.481H217.07C217.07 53.955 217.172 54.357 217.376 54.687C217.58 55.011 217.847 55.26 218.177 55.434C218.513 55.602 218.87 55.686 219.248 55.686C219.644 55.686 220.028 55.575 220.4 55.353C220.778 55.125 221.087 54.786 221.327 54.336C221.567 53.886 221.687 53.328 221.687 52.662C221.687 52.026 221.579 51.483 221.363 51.033C221.153 50.583 220.865 50.238 220.499 49.998C220.133 49.758 219.722 49.638 219.266 49.638C218.882 49.638 218.522 49.731 218.186 49.917C217.85 50.097 217.58 50.364 217.376 50.718C217.172 51.066 217.07 51.492 217.07 51.996H216.404C216.404 51.126 216.542 50.403 216.818 49.827C217.1 49.251 217.478 48.822 217.952 48.54C218.426 48.252 218.951 48.108 219.527 48.108C220.205 48.108 220.841 48.291 221.435 48.657C222.029 49.017 222.509 49.536 222.875 50.214C223.247 50.892 223.433 51.708 223.433 52.662C223.433 53.616 223.247 54.435 222.875 55.119C222.503 55.803 222.014 56.328 221.408 56.694C220.808 57.054 220.16 57.234 219.464 57.234ZM215.36 61.248V48.342H216.773L217.07 50.421V61.248H215.36ZM232.149 57V51.924C232.149 51.174 231.969 50.607 231.609 50.223C231.255 49.833 230.775 49.638 230.169 49.638C229.689 49.638 229.269 49.77 228.909 50.034C228.555 50.292 228.279 50.673 228.081 51.177C227.889 51.675 227.793 52.284 227.793 53.004H227.181C227.181 51.942 227.316 51.048 227.586 50.322C227.862 49.596 228.255 49.047 228.765 48.675C229.275 48.297 229.887 48.108 230.601 48.108C231.297 48.108 231.885 48.264 232.365 48.576C232.851 48.888 233.22 49.332 233.472 49.908C233.724 50.478 233.85 51.15 233.85 51.924V57H232.149ZM226.083 57V44.697H227.793V57H226.083ZM238.095 46.497C237.753 46.497 237.483 46.404 237.285 46.218C237.093 46.026 236.997 45.768 236.997 45.444C236.997 45.132 237.093 44.886 237.285 44.706C237.483 44.52 237.753 44.427 238.095 44.427C238.431 44.427 238.695 44.52 238.887 44.706C239.085 44.886 239.184 45.132 239.184 45.444C239.184 45.768 239.085 46.026 238.887 46.218C238.695 46.404 238.431 46.497 238.095 46.497ZM237.24 57V48.315H238.95V57H237.24ZM245.799 57.234C245.055 57.234 244.383 57.042 243.783 56.658C243.183 56.274 242.706 55.74 242.352 55.056C242.004 54.372 241.83 53.58 241.83 52.68C241.83 51.726 242.004 50.91 242.352 50.232C242.7 49.548 243.174 49.023 243.774 48.657C244.374 48.291 245.049 48.108 245.799 48.108C246.471 48.108 247.047 48.246 247.527 48.522C248.007 48.792 248.394 49.158 248.688 49.62C248.982 50.076 249.183 50.595 249.291 51.177C249.405 51.759 249.426 52.359 249.354 52.977H243.198V51.987H248.184L247.77 52.257C247.788 51.933 247.77 51.609 247.716 51.285C247.668 50.961 247.572 50.664 247.428 50.394C247.284 50.118 247.08 49.899 246.816 49.737C246.558 49.569 246.228 49.485 245.826 49.485C245.322 49.485 244.899 49.611 244.557 49.863C244.221 50.115 243.966 50.454 243.792 50.88C243.618 51.3 243.531 51.762 243.531 52.266V52.959C243.531 53.517 243.615 54.012 243.783 54.444C243.951 54.876 244.2 55.218 244.53 55.47C244.866 55.716 245.289 55.839 245.799 55.839C246.297 55.839 246.708 55.722 247.032 55.488C247.362 55.254 247.566 54.903 247.644 54.435H249.39C249.3 54.999 249.093 55.491 248.769 55.911C248.445 56.331 248.028 56.658 247.518 56.892C247.014 57.12 246.441 57.234 245.799 57.234ZM255.232 57.234C254.392 57.234 253.684 57.117 253.108 56.883C252.532 56.643 252.091 56.313 251.785 55.893C251.485 55.467 251.329 54.969 251.317 54.399H252.928C252.952 54.897 253.15 55.266 253.522 55.506C253.9 55.746 254.41 55.866 255.052 55.866C255.394 55.866 255.703 55.812 255.979 55.704C256.261 55.596 256.483 55.449 256.645 55.263C256.813 55.077 256.897 54.867 256.897 54.633C256.897 54.339 256.789 54.108 256.573 53.94C256.357 53.766 256.009 53.613 255.529 53.481L253.756 52.878C253.048 52.638 252.505 52.32 252.127 51.924C251.749 51.522 251.56 51.042 251.56 50.484C251.56 49.77 251.878 49.197 252.514 48.765C253.15 48.327 253.993 48.108 255.043 48.108C256.129 48.108 256.966 48.339 257.554 48.801C258.148 49.257 258.457 49.83 258.481 50.52H256.834C256.792 50.178 256.621 49.917 256.321 49.737C256.027 49.551 255.601 49.458 255.043 49.458C254.521 49.458 254.11 49.572 253.81 49.8C253.516 50.028 253.369 50.286 253.369 50.574C253.369 51.09 253.813 51.474 254.701 51.726L256.564 52.383C257.272 52.611 257.818 52.905 258.202 53.265C258.586 53.625 258.778 54.081 258.778 54.633C258.778 55.077 258.631 55.497 258.337 55.893C258.043 56.289 257.629 56.613 257.095 56.865C256.567 57.111 255.946 57.234 255.232 57.234Z" fill="#232121"/>
<path d="M98.352 137.6H74V142.528H82.896V160H89.488V142.528H98.352V137.6ZM100.264 160H106.856V137.6H100.264V160ZM133.133 137.6H108.781V142.528H117.677V160H124.269V142.528H133.133V137.6ZM141.637 155.072V137.6H135.045V160H156.645V155.072H141.637ZM182.721 142.528V137.6H159.201V160H182.721V155.072H165.793V151.296H182.081V146.368H165.793V142.528H182.721ZM215.597 137.6V146.24H201.325V137.6H194.733V160H201.325V151.168H215.597V160H222.189V137.6H215.597ZM239.454 155.072V137.6H232.862V139.84C232.862 143.2 231.39 144 227.838 144H225.374V150.08H226.974C229.982 150.08 231.838 148.96 232.862 147.072V155.072H225.374V160H245.118V155.072H239.454Z" fill="#2E2D2D"/>
<path d="M92.264 197.2H74V200.896H80.672V214H85.616V200.896H92.264V197.2ZM93.6978 214H98.6418V197.2H93.6978V214ZM118.35 197.2H100.086V200.896H106.758V214H111.702V200.896H118.35V197.2ZM124.728 210.304V197.2H119.784V214H135.984V210.304H124.728ZM155.541 200.896V197.2H137.901V214H155.541V210.304H142.845V207.472H155.061V203.776H142.845V200.896H155.541ZM180.197 197.2V203.68H169.493V197.2H164.549V214H169.493V207.376H180.197V214H185.141V197.2H180.197ZM200.946 207.376C203.13 206.416 204.402 204.928 204.402 202.336C204.402 198.904 201.09 196.72 196.53 196.72C191.178 196.72 187.914 199.312 187.05 202.696H192.498C192.93 201.28 194.13 200.464 196.242 200.464C197.706 200.464 199.05 200.944 199.05 202.144C199.05 204.16 195.258 204.376 192.018 205.744C188.826 207.184 187.338 208.864 187.05 212.104V214H204.066V210.304H193.722C194.946 209.08 197.514 208.864 200.946 207.376Z" fill="#2E2D2D"/>
<path d="M87.698 249.4H74V252.172H79.004V262H82.712V252.172H87.698V249.4ZM88.7734 262H92.4814V249.4H88.7734V262ZM107.262 249.4H93.5645V252.172H98.5685V262H102.276V252.172H107.262V249.4ZM112.046 259.228V249.4H108.338V262H120.488V259.228H112.046ZM135.156 252.172V249.4H121.926V262H135.156V259.228H125.634V257.104H134.796V254.332H125.634V252.172H135.156ZM153.648 249.4V254.26H145.62V249.4H141.912V262H145.62V257.032H153.648V262H157.356V249.4H153.648ZM169.318 255.52C170.83 255.142 171.82 254.188 171.82 252.838C171.82 250.516 169.372 249.04 165.88 249.04C161.668 249.04 159.382 251.092 158.752 253.522H162.964C163.342 252.514 164.152 251.848 165.592 251.848C166.78 251.848 167.608 252.298 167.608 253.054C167.608 253.882 166.78 254.26 165.736 254.26H164.08V257.032H165.916C166.96 257.032 167.842 257.374 167.842 258.184C167.842 259.03 166.87 259.552 165.538 259.552C164.008 259.552 163.162 259.012 162.64 257.878H158.428C159.022 260.668 161.2 262.36 165.754 262.36C169.174 262.36 172.144 261.028 172.144 258.634C172.144 256.996 170.92 255.934 169.318 255.52Z" fill="#2E2D2D"/>
<path d="M86.176 295.8H74V298.264H78.448V307H81.744V298.264H86.176V295.8ZM87.1319 307H90.4279V295.8H87.1319V307ZM103.567 295.8H91.3906V298.264H95.8386V307H99.1346V298.264H103.567V295.8ZM107.819 304.536V295.8H104.523V307H115.323V304.536H107.819ZM128.361 298.264V295.8H116.601V307H128.361V304.536H119.897V302.648H128.041V300.184H119.897V298.264H128.361ZM144.798 295.8V300.12H137.662V295.8H134.366V307H137.662V302.584H144.798V307H148.094V295.8H144.798ZM162.167 302.584H159.895V295.8H155.671L149.447 301.752V305.048H156.599V307H159.895V305.048H162.167V302.584ZM152.055 302.584L156.599 298.344V302.584H152.055Z" fill="#2E2D2D"/>
<path d="M83.132 330.6H74V332.448H77.336V339H79.808V332.448H83.132V330.6ZM83.8489 339H86.3209V330.6H83.8489V339ZM96.175 330.6H87.043V332.448H90.379V339H92.851V332.448H96.175V330.6ZM99.3639 337.152V330.6H96.8919V339H104.992V337.152H99.3639ZM114.77 332.448V330.6H105.95V339H114.77V337.152H108.422V335.736H114.53V333.888H108.422V332.448H114.77ZM127.099 330.6V333.84H121.747V330.6H119.275V339H121.747V335.688H127.099V339H129.571V330.6H127.099ZM135.349 333.54C134.533 333.54 133.717 333.66 133.021 333.864L133.081 332.76H138.709V330.6H131.317L131.005 335.16L132.349 335.808C133.129 335.568 134.065 335.376 134.965 335.376C135.913 335.376 136.693 335.724 136.693 336.372C136.693 336.972 136.105 337.368 135.205 337.368C134.281 337.368 133.705 337.008 133.369 336.252H130.585C130.849 337.896 132.505 339.24 135.217 339.24C137.401 339.24 139.213 338.328 139.213 336.336C139.213 334.452 137.461 333.54 135.349 333.54Z" fill="#2E2D2D"/>
<path d="M333.072 143.176C333.072 142.684 333.163 142.227 333.345 141.805C333.526 141.383 333.796 141.017 334.153 140.706C334.511 140.396 334.953 140.155 335.48 139.985C336.014 139.81 336.626 139.722 337.317 139.722C337.669 139.722 337.991 139.745 338.284 139.792C338.577 139.833 338.835 139.889 339.058 139.959C339.286 140.029 339.479 140.111 339.638 140.205C339.802 140.293 339.925 140.378 340.007 140.46C340.118 140.571 340.191 140.68 340.227 140.785C340.268 140.885 340.288 141.002 340.288 141.137C340.288 141.359 340.221 141.532 340.086 141.655C339.951 141.778 339.778 141.84 339.567 141.84C339.433 141.84 339.301 141.813 339.172 141.761C339.049 141.708 338.899 141.649 338.724 141.585C338.554 141.515 338.346 141.453 338.1 141.4C337.854 141.348 337.552 141.321 337.194 141.321C336.831 141.321 336.518 141.362 336.254 141.444C335.99 141.521 335.771 141.632 335.595 141.778C335.419 141.919 335.287 142.089 335.199 142.288C335.117 142.487 335.076 142.707 335.076 142.947C335.076 143.27 335.155 143.539 335.313 143.756C335.478 143.973 335.694 144.16 335.964 144.318C336.233 144.471 336.538 144.608 336.878 144.731C337.218 144.849 337.563 144.975 337.915 145.109C338.272 145.238 338.621 145.388 338.961 145.558C339.301 145.728 339.603 145.941 339.866 146.199C340.136 146.457 340.35 146.771 340.508 147.14C340.672 147.509 340.754 147.96 340.754 148.493C340.754 149.026 340.657 149.519 340.464 149.97C340.276 150.415 339.995 150.802 339.62 151.13C339.251 151.452 338.785 151.704 338.223 151.886C337.666 152.067 337.021 152.158 336.289 152.158C335.885 152.158 335.519 152.132 335.19 152.079C334.862 152.032 334.575 151.971 334.329 151.895C334.083 151.818 333.875 151.736 333.705 151.648C333.541 151.561 333.418 151.473 333.336 151.385C333.23 151.279 333.154 151.177 333.107 151.077C333.066 150.972 333.046 150.849 333.046 150.708C333.046 150.479 333.113 150.301 333.248 150.172C333.383 150.043 333.556 149.979 333.767 149.979C333.901 149.979 334.03 150.011 334.153 150.075C334.282 150.134 334.44 150.198 334.628 150.269C334.815 150.339 335.05 150.406 335.331 150.471C335.612 150.529 335.973 150.559 336.412 150.559C336.805 150.559 337.147 150.515 337.44 150.427C337.733 150.333 337.977 150.207 338.17 150.049C338.363 149.885 338.507 149.691 338.601 149.469C338.7 149.24 338.75 148.991 338.75 148.722C338.75 148.37 338.668 148.077 338.504 147.843C338.346 147.608 338.132 147.409 337.862 147.245C337.599 147.075 337.297 146.929 336.957 146.806C336.617 146.677 336.269 146.548 335.911 146.419C335.554 146.284 335.205 146.138 334.865 145.979C334.525 145.815 334.221 145.61 333.951 145.364C333.688 145.118 333.474 144.819 333.31 144.468C333.151 144.116 333.072 143.686 333.072 143.176ZM343.065 143.914C343.065 143.639 343.145 143.428 343.303 143.281C343.461 143.129 343.707 143.053 344.041 143.053C344.375 143.053 344.621 143.129 344.779 143.281C344.938 143.428 345.017 143.639 345.017 143.914V148.273C345.017 149.082 345.178 149.671 345.5 150.04C345.822 150.403 346.265 150.585 346.827 150.585C347.009 150.585 347.176 150.567 347.328 150.532C347.48 150.491 347.621 150.438 347.75 150.374C347.879 150.304 347.999 150.228 348.11 150.146C348.222 150.058 348.324 149.967 348.418 149.873C348.623 149.668 348.796 149.434 348.937 149.17V143.914C348.937 143.639 349.016 143.428 349.174 143.281C349.338 143.129 349.584 143.053 349.912 143.053C350.246 143.053 350.492 143.129 350.65 143.281C350.809 143.428 350.888 143.639 350.888 143.914V151.271C350.888 151.528 350.817 151.728 350.677 151.868C350.536 152.009 350.337 152.079 350.079 152.079C349.95 152.079 349.836 152.062 349.736 152.026C349.637 151.997 349.552 151.95 349.481 151.886C349.411 151.821 349.355 151.742 349.314 151.648C349.273 151.549 349.241 151.435 349.218 151.306L349.139 150.778H349.112C348.937 151.036 348.717 151.268 348.453 151.473C348.342 151.561 348.213 151.646 348.066 151.728C347.926 151.81 347.768 151.883 347.592 151.947C347.416 152.012 347.223 152.064 347.012 152.105C346.807 152.146 346.584 152.167 346.344 152.167C345.84 152.167 345.386 152.088 344.981 151.93C344.583 151.771 344.24 151.54 343.953 151.235C343.666 150.925 343.446 150.544 343.294 150.093C343.142 149.642 343.065 149.12 343.065 148.528V143.914ZM353.744 139.836C353.744 139.561 353.823 139.35 353.981 139.203C354.146 139.051 354.392 138.975 354.72 138.975C355.048 138.975 355.291 139.051 355.449 139.203C355.613 139.35 355.695 139.561 355.695 139.836V142.903C355.695 143.114 355.689 143.322 355.678 143.527C355.672 143.727 355.654 143.94 355.625 144.169H355.651C355.827 143.94 356.041 143.738 356.293 143.562C356.404 143.486 356.527 143.413 356.662 143.343C356.797 143.267 356.946 143.199 357.11 143.141C357.274 143.076 357.453 143.029 357.646 143C357.846 142.965 358.057 142.947 358.279 142.947C358.824 142.947 359.316 143.038 359.756 143.22C360.201 143.401 360.582 143.674 360.898 144.037C361.221 144.4 361.47 144.857 361.646 145.408C361.821 145.953 361.909 146.589 361.909 147.315C361.909 148.083 361.798 148.769 361.575 149.372C361.358 149.97 361.042 150.477 360.626 150.893C360.216 151.309 359.709 151.625 359.105 151.842C358.508 152.059 357.828 152.167 357.066 152.167C356.645 152.167 356.264 152.141 355.924 152.088C355.584 152.035 355.285 151.971 355.027 151.895C354.775 151.812 354.564 151.728 354.395 151.64C354.23 151.552 354.113 151.47 354.043 151.394C353.996 151.347 353.952 151.297 353.911 151.244C353.876 151.186 353.844 151.127 353.814 151.068C353.791 151.004 353.773 150.931 353.762 150.849C353.75 150.767 353.744 150.67 353.744 150.559V139.836ZM355.695 150.286C355.801 150.356 355.933 150.418 356.091 150.471C356.22 150.518 356.381 150.562 356.574 150.603C356.773 150.638 357.005 150.655 357.269 150.655C357.661 150.655 358.019 150.588 358.341 150.453C358.669 150.318 358.947 150.119 359.176 149.855C359.41 149.592 359.592 149.264 359.721 148.871C359.85 148.473 359.914 148.01 359.914 147.482C359.914 146.949 359.864 146.495 359.765 146.12C359.665 145.745 359.524 145.44 359.343 145.206C359.161 144.972 358.938 144.799 358.675 144.688C358.417 144.576 358.13 144.521 357.813 144.521C357.638 144.521 357.471 144.544 357.312 144.591C357.16 144.632 357.017 144.685 356.882 144.749C356.747 144.813 356.624 144.89 356.513 144.978C356.407 145.06 356.311 145.145 356.223 145.232C356.012 145.443 355.836 145.678 355.695 145.936V150.286ZM363.623 144.608C363.418 144.608 363.254 144.544 363.131 144.415C363.014 144.286 362.955 144.099 362.955 143.853C362.955 143.612 363.014 143.428 363.131 143.299C363.254 143.17 363.418 143.105 363.623 143.105H364.52L364.766 141.523C364.812 141.236 364.909 141.022 365.056 140.882C365.208 140.741 365.407 140.671 365.653 140.671C365.899 140.671 366.087 140.741 366.216 140.882C366.351 141.017 366.418 141.213 366.418 141.471V143.105H368.105C368.311 143.105 368.475 143.17 368.598 143.299C368.721 143.428 368.782 143.612 368.782 143.853C368.782 144.099 368.721 144.286 368.598 144.415C368.475 144.544 368.311 144.608 368.105 144.608H366.418V149.302C366.418 149.753 366.497 150.072 366.655 150.26C366.813 150.447 367.054 150.541 367.376 150.541C367.499 150.541 367.604 150.535 367.692 150.523C367.78 150.506 367.859 150.488 367.93 150.471C368 150.447 368.062 150.43 368.114 150.418C368.173 150.4 368.231 150.392 368.29 150.392C368.378 150.392 368.454 150.406 368.519 150.436C368.589 150.465 368.647 150.506 368.694 150.559C368.741 150.611 368.779 150.676 368.809 150.752C368.838 150.822 368.853 150.901 368.853 150.989C368.853 151.13 368.829 151.247 368.782 151.341C368.735 151.429 368.671 151.514 368.589 151.596C368.542 151.648 368.472 151.704 368.378 151.763C368.29 151.815 368.176 151.868 368.035 151.921C367.895 151.968 367.73 152.009 367.543 152.044C367.355 152.079 367.139 152.097 366.893 152.097C366.066 152.097 365.457 151.9 365.064 151.508C364.672 151.109 364.476 150.512 364.476 149.715V144.608H363.623ZM370.514 143.914C370.514 143.639 370.593 143.428 370.751 143.281C370.915 143.129 371.161 143.053 371.489 143.053C371.817 143.053 372.061 143.129 372.219 143.281C372.383 143.428 372.465 143.639 372.465 143.914V151.191C372.465 151.467 372.383 151.681 372.219 151.833C372.061 151.985 371.817 152.062 371.489 152.062C371.161 152.062 370.915 151.985 370.751 151.833C370.593 151.681 370.514 151.467 370.514 151.191V143.914ZM370.25 140.416C370.25 140.246 370.279 140.088 370.338 139.941C370.402 139.789 370.487 139.66 370.593 139.555C370.704 139.449 370.836 139.364 370.988 139.3C371.146 139.235 371.319 139.203 371.507 139.203C371.683 139.203 371.844 139.235 371.99 139.3C372.143 139.364 372.271 139.449 372.377 139.555C372.488 139.654 372.573 139.777 372.632 139.924C372.696 140.064 372.729 140.217 372.729 140.381C372.729 140.557 372.696 140.718 372.632 140.864C372.573 141.011 372.488 141.14 372.377 141.251C372.266 141.356 372.134 141.441 371.981 141.506C371.829 141.564 371.659 141.594 371.472 141.594C371.296 141.594 371.132 141.564 370.979 141.506C370.833 141.441 370.704 141.356 370.593 141.251C370.487 141.146 370.402 141.022 370.338 140.882C370.279 140.741 370.25 140.586 370.25 140.416ZM374.803 144.608C374.598 144.608 374.434 144.544 374.311 144.415C374.193 144.286 374.135 144.099 374.135 143.853C374.135 143.612 374.193 143.428 374.311 143.299C374.434 143.17 374.598 143.105 374.803 143.105H375.699L375.945 141.523C375.992 141.236 376.089 141.022 376.235 140.882C376.388 140.741 376.587 140.671 376.833 140.671C377.079 140.671 377.267 140.741 377.396 140.882C377.53 141.017 377.598 141.213 377.598 141.471V143.105H379.285C379.49 143.105 379.654 143.17 379.777 143.299C379.9 143.428 379.962 143.612 379.962 143.853C379.962 144.099 379.9 144.286 379.777 144.415C379.654 144.544 379.49 144.608 379.285 144.608H377.598V149.302C377.598 149.753 377.677 150.072 377.835 150.26C377.993 150.447 378.233 150.541 378.556 150.541C378.679 150.541 378.784 150.535 378.872 150.523C378.96 150.506 379.039 150.488 379.109 150.471C379.18 150.447 379.241 150.43 379.294 150.418C379.353 150.4 379.411 150.392 379.47 150.392C379.558 150.392 379.634 150.406 379.698 150.436C379.769 150.465 379.827 150.506 379.874 150.559C379.921 150.611 379.959 150.676 379.988 150.752C380.018 150.822 380.032 150.901 380.032 150.989C380.032 151.13 380.009 151.247 379.962 151.341C379.915 151.429 379.851 151.514 379.769 151.596C379.722 151.648 379.651 151.704 379.558 151.763C379.47 151.815 379.355 151.868 379.215 151.921C379.074 151.968 378.91 152.009 378.723 152.044C378.535 152.079 378.318 152.097 378.072 152.097C377.246 152.097 376.637 151.9 376.244 151.508C375.852 151.109 375.655 150.512 375.655 149.715V144.608H374.803ZM381.658 139.836C381.658 139.561 381.737 139.35 381.896 139.203C382.06 139.051 382.306 138.975 382.634 138.975C382.962 138.975 383.205 139.051 383.363 139.203C383.527 139.35 383.609 139.561 383.609 139.836V149.311C383.609 149.551 383.624 149.753 383.653 149.917C383.688 150.075 383.735 150.201 383.794 150.295C383.858 150.383 383.932 150.447 384.014 150.488C384.102 150.523 384.198 150.541 384.304 150.541C384.397 150.541 384.479 150.538 384.55 150.532C384.62 150.521 384.69 150.515 384.761 150.515C384.831 150.515 384.898 150.529 384.963 150.559C385.027 150.582 385.08 150.62 385.121 150.673C385.168 150.72 385.206 150.781 385.235 150.857C385.265 150.928 385.279 151.007 385.279 151.095C385.279 151.235 385.256 151.353 385.209 151.446C385.168 151.54 385.112 151.622 385.042 151.692C384.995 151.745 384.934 151.795 384.857 151.842C384.787 151.889 384.699 151.933 384.594 151.974C384.494 152.009 384.374 152.038 384.233 152.062C384.099 152.085 383.94 152.097 383.759 152.097C383.073 152.097 382.552 151.912 382.194 151.543C381.837 151.168 381.658 150.6 381.658 149.838V139.836ZM388.18 147.869V147.913C388.203 148.341 388.282 148.722 388.417 149.056C388.552 149.39 388.736 149.674 388.971 149.908C389.205 150.137 389.486 150.312 389.814 150.436C390.148 150.553 390.515 150.611 390.913 150.611C391.235 150.611 391.511 150.588 391.739 150.541C391.968 150.494 392.164 150.447 392.328 150.4C392.498 150.348 392.642 150.298 392.759 150.251C392.882 150.204 392.999 150.181 393.11 150.181C393.204 150.181 393.286 150.198 393.356 150.233C393.433 150.269 393.497 150.315 393.55 150.374C393.603 150.427 393.641 150.491 393.664 150.567C393.693 150.638 393.708 150.717 393.708 150.805C393.708 150.922 393.688 151.027 393.646 151.121C393.605 151.209 393.541 151.3 393.453 151.394C393.371 151.476 393.248 151.563 393.084 151.657C392.92 151.745 392.718 151.827 392.478 151.903C392.237 151.979 391.956 152.041 391.634 152.088C391.317 152.141 390.966 152.167 390.579 152.167C389.911 152.167 389.308 152.067 388.769 151.868C388.235 151.669 387.778 151.382 387.397 151.007C387.022 150.626 386.732 150.172 386.527 149.645C386.328 149.111 386.229 148.511 386.229 147.843C386.229 147.063 386.334 146.369 386.545 145.76C386.762 145.15 387.061 144.638 387.441 144.222C387.822 143.806 388.273 143.489 388.795 143.272C389.322 143.05 389.896 142.938 390.518 142.938C391.051 142.938 391.537 143.026 391.977 143.202C392.416 143.372 392.791 143.621 393.102 143.949C393.418 144.277 393.661 144.676 393.831 145.145C394.007 145.613 394.095 146.146 394.095 146.744C394.095 147.125 394.007 147.409 393.831 147.597C393.655 147.778 393.397 147.869 393.058 147.869H388.18ZM392.267 146.551C392.185 145.812 391.982 145.268 391.66 144.916C391.338 144.559 390.89 144.38 390.315 144.38C390.069 144.38 389.835 144.424 389.612 144.512C389.396 144.594 389.193 144.726 389.006 144.907C388.824 145.083 388.666 145.309 388.531 145.584C388.396 145.854 388.297 146.176 388.232 146.551H392.267Z" fill="#2E2D2D"/>
<path d="M333.406 185.836C333.406 185.628 333.466 185.469 333.586 185.359C333.711 185.245 333.896 185.188 334.141 185.188C334.391 185.188 334.576 185.245 334.695 185.359C334.815 185.469 334.875 185.628 334.875 185.836V191.57C334.875 192.164 334.94 192.672 335.07 193.094C335.206 193.516 335.393 193.862 335.633 194.133C335.878 194.398 336.167 194.596 336.5 194.727C336.833 194.857 337.201 194.922 337.602 194.922C337.982 194.922 338.331 194.859 338.648 194.734C338.971 194.609 339.247 194.419 339.477 194.164C339.711 193.904 339.893 193.578 340.023 193.188C340.159 192.792 340.227 192.323 340.227 191.781V185.836C340.227 185.628 340.286 185.469 340.406 185.359C340.526 185.245 340.708 185.188 340.953 185.188C341.203 185.188 341.388 185.245 341.508 185.359C341.628 185.469 341.688 185.628 341.688 185.836V191.578C341.688 192.349 341.589 193.021 341.391 193.594C341.198 194.161 340.919 194.635 340.555 195.016C340.19 195.396 339.747 195.68 339.227 195.867C338.711 196.055 338.133 196.148 337.492 196.148C336.841 196.148 336.26 196.057 335.75 195.875C335.245 195.693 334.818 195.422 334.469 195.062C334.125 194.698 333.862 194.245 333.68 193.703C333.497 193.156 333.406 192.518 333.406 191.789V185.836ZM344.469 188.656C344.469 188.469 344.521 188.323 344.625 188.219C344.729 188.115 344.875 188.062 345.062 188.062C345.156 188.062 345.24 188.076 345.312 188.102C345.385 188.128 345.448 188.167 345.5 188.219C345.552 188.271 345.594 188.336 345.625 188.414C345.661 188.492 345.688 188.583 345.703 188.688L345.773 189.227H345.797C345.958 188.992 346.156 188.784 346.391 188.602C346.49 188.523 346.604 188.448 346.734 188.375C346.865 188.302 347.005 188.237 347.156 188.18C347.312 188.122 347.482 188.076 347.664 188.039C347.852 188.003 348.052 187.984 348.266 187.984C348.74 187.984 349.172 188.065 349.562 188.227C349.958 188.388 350.294 188.63 350.57 188.953C350.852 189.276 351.07 189.68 351.227 190.164C351.383 190.643 351.461 191.208 351.461 191.859C351.461 192.536 351.365 193.141 351.172 193.672C350.979 194.203 350.703 194.654 350.344 195.023C349.984 195.388 349.544 195.667 349.023 195.859C348.508 196.052 347.924 196.148 347.273 196.148C347.076 196.148 346.893 196.138 346.727 196.117C346.56 196.096 346.414 196.076 346.289 196.055C346.143 196.029 346.013 195.997 345.898 195.961L345.875 195.969C345.885 196.125 345.891 196.286 345.891 196.453C345.896 196.62 345.898 196.792 345.898 196.969V199.102C345.898 199.305 345.839 199.461 345.719 199.57C345.599 199.685 345.419 199.742 345.18 199.742C344.94 199.742 344.76 199.685 344.641 199.57C344.526 199.461 344.469 199.305 344.469 199.102V188.656ZM345.898 194.695C346.008 194.758 346.138 194.812 346.289 194.859C346.419 194.896 346.578 194.932 346.766 194.969C346.958 195 347.185 195.016 347.445 195.016C347.826 195.016 348.172 194.951 348.484 194.82C348.797 194.69 349.065 194.5 349.289 194.25C349.513 193.995 349.685 193.68 349.805 193.305C349.93 192.93 349.992 192.495 349.992 192C349.992 191.495 349.943 191.062 349.844 190.703C349.75 190.344 349.615 190.049 349.438 189.82C349.26 189.591 349.044 189.424 348.789 189.32C348.534 189.216 348.25 189.164 347.938 189.164C347.766 189.164 347.604 189.185 347.453 189.227C347.307 189.263 347.169 189.312 347.039 189.375C346.914 189.438 346.797 189.51 346.688 189.594C346.583 189.672 346.49 189.753 346.406 189.836C346.203 190.034 346.034 190.258 345.898 190.508V194.695ZM353.594 188.656C353.594 188.469 353.646 188.323 353.75 188.219C353.854 188.115 354 188.062 354.188 188.062C354.281 188.062 354.365 188.076 354.438 188.102C354.51 188.128 354.573 188.167 354.625 188.219C354.677 188.271 354.719 188.336 354.75 188.414C354.786 188.492 354.812 188.583 354.828 188.688L354.898 189.227H354.922C355.083 188.992 355.281 188.784 355.516 188.602C355.615 188.523 355.729 188.448 355.859 188.375C355.99 188.302 356.13 188.237 356.281 188.18C356.438 188.122 356.607 188.076 356.789 188.039C356.977 188.003 357.177 187.984 357.391 187.984C357.865 187.984 358.297 188.065 358.688 188.227C359.083 188.388 359.419 188.63 359.695 188.953C359.977 189.276 360.195 189.68 360.352 190.164C360.508 190.643 360.586 191.208 360.586 191.859C360.586 192.536 360.49 193.141 360.297 193.672C360.104 194.203 359.828 194.654 359.469 195.023C359.109 195.388 358.669 195.667 358.148 195.859C357.633 196.052 357.049 196.148 356.398 196.148C356.201 196.148 356.018 196.138 355.852 196.117C355.685 196.096 355.539 196.076 355.414 196.055C355.268 196.029 355.138 195.997 355.023 195.961L355 195.969C355.01 196.125 355.016 196.286 355.016 196.453C355.021 196.62 355.023 196.792 355.023 196.969V199.102C355.023 199.305 354.964 199.461 354.844 199.57C354.724 199.685 354.544 199.742 354.305 199.742C354.065 199.742 353.885 199.685 353.766 199.57C353.651 199.461 353.594 199.305 353.594 199.102V188.656ZM355.023 194.695C355.133 194.758 355.263 194.812 355.414 194.859C355.544 194.896 355.703 194.932 355.891 194.969C356.083 195 356.31 195.016 356.57 195.016C356.951 195.016 357.297 194.951 357.609 194.82C357.922 194.69 358.19 194.5 358.414 194.25C358.638 193.995 358.81 193.68 358.93 193.305C359.055 192.93 359.117 192.495 359.117 192C359.117 191.495 359.068 191.062 358.969 190.703C358.875 190.344 358.74 190.049 358.562 189.82C358.385 189.591 358.169 189.424 357.914 189.32C357.659 189.216 357.375 189.164 357.062 189.164C356.891 189.164 356.729 189.185 356.578 189.227C356.432 189.263 356.294 189.312 356.164 189.375C356.039 189.438 355.922 189.51 355.812 189.594C355.708 189.672 355.615 189.753 355.531 189.836C355.328 190.034 355.159 190.258 355.023 190.508V194.695ZM363.562 192.219V192.273C363.573 192.701 363.641 193.081 363.766 193.414C363.891 193.742 364.065 194.023 364.289 194.258C364.513 194.487 364.781 194.664 365.094 194.789C365.406 194.909 365.753 194.969 366.133 194.969C366.43 194.969 366.682 194.948 366.891 194.906C367.099 194.859 367.279 194.812 367.43 194.766C367.581 194.719 367.708 194.674 367.812 194.633C367.922 194.591 368.021 194.57 368.109 194.57C368.182 194.57 368.247 194.583 368.305 194.609C368.362 194.635 368.409 194.669 368.445 194.711C368.487 194.747 368.518 194.794 368.539 194.852C368.56 194.909 368.57 194.969 368.57 195.031C368.57 195.125 368.555 195.206 368.523 195.273C368.492 195.341 368.44 195.411 368.367 195.484C368.299 195.552 368.195 195.625 368.055 195.703C367.914 195.776 367.74 195.846 367.531 195.914C367.323 195.977 367.081 196.031 366.805 196.078C366.534 196.125 366.232 196.148 365.898 196.148C365.326 196.148 364.805 196.06 364.336 195.883C363.872 195.701 363.477 195.445 363.148 195.117C362.826 194.784 362.573 194.383 362.391 193.914C362.214 193.44 362.125 192.909 362.125 192.32C362.125 191.628 362.219 191.013 362.406 190.477C362.594 189.935 362.852 189.482 363.18 189.117C363.508 188.747 363.896 188.466 364.344 188.273C364.797 188.081 365.289 187.984 365.82 187.984C366.279 187.984 366.695 188.06 367.07 188.211C367.445 188.362 367.768 188.583 368.039 188.875C368.31 189.161 368.521 189.513 368.672 189.93C368.823 190.341 368.898 190.81 368.898 191.336C368.898 191.628 368.831 191.849 368.695 192C368.56 192.146 368.354 192.219 368.078 192.219H363.562ZM367.555 191.195C367.482 190.477 367.286 189.945 366.969 189.602C366.651 189.258 366.211 189.086 365.648 189.086C365.414 189.086 365.188 189.13 364.969 189.219C364.755 189.302 364.557 189.432 364.375 189.609C364.198 189.781 364.044 190 363.914 190.266C363.784 190.526 363.688 190.836 363.625 191.195H367.555ZM371.078 188.656C371.078 188.469 371.13 188.323 371.234 188.219C371.339 188.115 371.484 188.062 371.672 188.062C371.766 188.062 371.849 188.076 371.922 188.102C371.995 188.128 372.057 188.169 372.109 188.227C372.167 188.279 372.211 188.346 372.242 188.43C372.273 188.508 372.297 188.599 372.312 188.703L372.406 189.422H372.43C372.534 189.219 372.656 189.029 372.797 188.852C372.938 188.669 373.091 188.516 373.258 188.391C373.424 188.26 373.602 188.161 373.789 188.094C373.977 188.021 374.172 187.984 374.375 187.984C374.646 187.984 374.852 188.049 374.992 188.18C375.138 188.31 375.211 188.497 375.211 188.742C375.211 189.003 375.148 189.203 375.023 189.344C374.898 189.479 374.76 189.547 374.609 189.547C374.552 189.547 374.503 189.544 374.461 189.539C374.419 189.529 374.378 189.518 374.336 189.508C374.299 189.497 374.258 189.49 374.211 189.484C374.169 189.474 374.122 189.469 374.07 189.469C373.935 189.469 373.797 189.5 373.656 189.562C373.521 189.625 373.388 189.716 373.258 189.836C373.128 189.956 372.997 190.104 372.867 190.281C372.742 190.453 372.622 190.654 372.508 190.883V195.406C372.508 195.609 372.448 195.768 372.328 195.883C372.208 195.992 372.029 196.047 371.789 196.047C371.549 196.047 371.37 195.992 371.25 195.883C371.135 195.768 371.078 195.609 371.078 195.406V188.656ZM380.344 189.258C380.188 189.258 380.062 189.211 379.969 189.117C379.875 189.018 379.828 188.878 379.828 188.695C379.828 188.513 379.875 188.372 379.969 188.273C380.062 188.174 380.188 188.125 380.344 188.125H381.227L381.422 186.648C381.453 186.424 381.523 186.258 381.633 186.148C381.747 186.039 381.896 185.984 382.078 185.984C382.255 185.984 382.393 186.036 382.492 186.141C382.591 186.24 382.641 186.383 382.641 186.57V188.125H384.281C384.438 188.125 384.562 188.174 384.656 188.273C384.75 188.372 384.797 188.513 384.797 188.695C384.797 188.878 384.75 189.018 384.656 189.117C384.562 189.211 384.438 189.258 384.281 189.258H382.641V193.758C382.641 194.185 382.716 194.484 382.867 194.656C383.018 194.828 383.247 194.914 383.555 194.914C383.674 194.914 383.776 194.909 383.859 194.898C383.948 194.883 384.023 194.865 384.086 194.844C384.154 194.823 384.214 194.807 384.266 194.797C384.318 194.781 384.37 194.773 384.422 194.773C384.49 194.773 384.549 194.784 384.602 194.805C384.654 194.826 384.698 194.857 384.734 194.898C384.771 194.94 384.799 194.99 384.82 195.047C384.846 195.099 384.859 195.159 384.859 195.227C384.859 195.331 384.841 195.417 384.805 195.484C384.768 195.552 384.721 195.615 384.664 195.672C384.628 195.708 384.573 195.75 384.5 195.797C384.427 195.844 384.331 195.888 384.211 195.93C384.096 195.971 383.958 196.005 383.797 196.031C383.635 196.062 383.448 196.078 383.234 196.078C382.547 196.078 382.036 195.914 381.703 195.586C381.375 195.258 381.211 194.768 381.211 194.117V189.258H380.344ZM387.219 192.219V192.273C387.229 192.701 387.297 193.081 387.422 193.414C387.547 193.742 387.721 194.023 387.945 194.258C388.169 194.487 388.438 194.664 388.75 194.789C389.062 194.909 389.409 194.969 389.789 194.969C390.086 194.969 390.339 194.948 390.547 194.906C390.755 194.859 390.935 194.812 391.086 194.766C391.237 194.719 391.365 194.674 391.469 194.633C391.578 194.591 391.677 194.57 391.766 194.57C391.839 194.57 391.904 194.583 391.961 194.609C392.018 194.635 392.065 194.669 392.102 194.711C392.143 194.747 392.174 194.794 392.195 194.852C392.216 194.909 392.227 194.969 392.227 195.031C392.227 195.125 392.211 195.206 392.18 195.273C392.148 195.341 392.096 195.411 392.023 195.484C391.956 195.552 391.852 195.625 391.711 195.703C391.57 195.776 391.396 195.846 391.188 195.914C390.979 195.977 390.737 196.031 390.461 196.078C390.19 196.125 389.888 196.148 389.555 196.148C388.982 196.148 388.461 196.06 387.992 195.883C387.529 195.701 387.133 195.445 386.805 195.117C386.482 194.784 386.229 194.383 386.047 193.914C385.87 193.44 385.781 192.909 385.781 192.32C385.781 191.628 385.875 191.013 386.062 190.477C386.25 189.935 386.508 189.482 386.836 189.117C387.164 188.747 387.552 188.466 388 188.273C388.453 188.081 388.945 187.984 389.477 187.984C389.935 187.984 390.352 188.06 390.727 188.211C391.102 188.362 391.424 188.583 391.695 188.875C391.966 189.161 392.177 189.513 392.328 189.93C392.479 190.341 392.555 190.81 392.555 191.336C392.555 191.628 392.487 191.849 392.352 192C392.216 192.146 392.01 192.219 391.734 192.219H387.219ZM391.211 191.195C391.138 190.477 390.943 189.945 390.625 189.602C390.307 189.258 389.867 189.086 389.305 189.086C389.07 189.086 388.844 189.13 388.625 189.219C388.411 189.302 388.214 189.432 388.031 189.609C387.854 189.781 387.701 190 387.57 190.266C387.44 190.526 387.344 190.836 387.281 191.195H391.211ZM394.445 189.508C394.383 189.43 394.326 189.362 394.273 189.305C394.227 189.242 394.185 189.185 394.148 189.133C394.112 189.081 394.086 189.031 394.07 188.984C394.055 188.932 394.047 188.88 394.047 188.828C394.047 188.714 394.07 188.609 394.117 188.516C394.169 188.422 394.234 188.341 394.312 188.273C394.396 188.201 394.484 188.146 394.578 188.109C394.672 188.073 394.763 188.055 394.852 188.055C394.924 188.055 394.99 188.068 395.047 188.094C395.109 188.115 395.167 188.148 395.219 188.195C395.229 188.206 395.242 188.219 395.258 188.234C395.273 188.25 395.292 188.271 395.312 188.297C395.333 188.323 395.362 188.359 395.398 188.406C395.44 188.448 395.49 188.508 395.547 188.586L397.484 191.031L399.281 188.617C399.339 188.539 399.385 188.477 399.422 188.43C399.458 188.383 399.49 188.346 399.516 188.32C399.542 188.289 399.56 188.268 399.57 188.258C399.581 188.242 399.594 188.227 399.609 188.211C399.656 188.164 399.711 188.128 399.773 188.102C399.836 188.07 399.909 188.055 399.992 188.055C400.081 188.055 400.169 188.073 400.258 188.109C400.346 188.146 400.424 188.195 400.492 188.258C400.565 188.315 400.622 188.385 400.664 188.469C400.711 188.552 400.734 188.643 400.734 188.742C400.734 188.794 400.727 188.844 400.711 188.891C400.695 188.938 400.669 188.987 400.633 189.039C400.602 189.091 400.56 189.148 400.508 189.211C400.461 189.268 400.406 189.333 400.344 189.406L398.258 191.93L400.484 194.617C400.547 194.695 400.602 194.766 400.648 194.828C400.701 194.885 400.742 194.94 400.773 194.992C400.81 195.044 400.836 195.096 400.852 195.148C400.872 195.201 400.883 195.253 400.883 195.305C400.883 195.419 400.857 195.523 400.805 195.617C400.753 195.711 400.688 195.792 400.609 195.859C400.531 195.927 400.445 195.979 400.352 196.016C400.258 196.052 400.167 196.07 400.078 196.07C400.005 196.07 399.938 196.057 399.875 196.031C399.812 196.01 399.758 195.977 399.711 195.93C399.695 195.919 399.68 195.906 399.664 195.891C399.654 195.875 399.635 195.854 399.609 195.828C399.589 195.802 399.56 195.768 399.523 195.727C399.487 195.68 399.44 195.617 399.383 195.539L397.281 192.898L395.328 195.508C395.271 195.586 395.224 195.648 395.188 195.695C395.151 195.742 395.12 195.781 395.094 195.812C395.073 195.839 395.055 195.859 395.039 195.875C395.029 195.891 395.018 195.904 395.008 195.914C394.956 195.966 394.896 196.005 394.828 196.031C394.766 196.057 394.695 196.07 394.617 196.07C394.529 196.07 394.44 196.052 394.352 196.016C394.268 195.984 394.193 195.94 394.125 195.883C394.057 195.82 394 195.747 393.953 195.664C393.906 195.576 393.883 195.484 393.883 195.391C393.883 195.339 393.891 195.289 393.906 195.242C393.927 195.19 393.953 195.138 393.984 195.086C394.016 195.034 394.055 194.979 394.102 194.922C394.154 194.859 394.211 194.792 394.273 194.719L396.508 192.008L394.445 189.508ZM402.188 189.258C402.031 189.258 401.906 189.211 401.812 189.117C401.719 189.018 401.672 188.878 401.672 188.695C401.672 188.513 401.719 188.372 401.812 188.273C401.906 188.174 402.031 188.125 402.188 188.125H403.07L403.266 186.648C403.297 186.424 403.367 186.258 403.477 186.148C403.591 186.039 403.74 185.984 403.922 185.984C404.099 185.984 404.237 186.036 404.336 186.141C404.435 186.24 404.484 186.383 404.484 186.57V188.125H406.125C406.281 188.125 406.406 188.174 406.5 188.273C406.594 188.372 406.641 188.513 406.641 188.695C406.641 188.878 406.594 189.018 406.5 189.117C406.406 189.211 406.281 189.258 406.125 189.258H404.484V193.758C404.484 194.185 404.56 194.484 404.711 194.656C404.862 194.828 405.091 194.914 405.398 194.914C405.518 194.914 405.62 194.909 405.703 194.898C405.792 194.883 405.867 194.865 405.93 194.844C405.997 194.823 406.057 194.807 406.109 194.797C406.161 194.781 406.214 194.773 406.266 194.773C406.333 194.773 406.393 194.784 406.445 194.805C406.497 194.826 406.542 194.857 406.578 194.898C406.615 194.94 406.643 194.99 406.664 195.047C406.69 195.099 406.703 195.159 406.703 195.227C406.703 195.331 406.685 195.417 406.648 195.484C406.612 195.552 406.565 195.615 406.508 195.672C406.471 195.708 406.417 195.75 406.344 195.797C406.271 195.844 406.174 195.888 406.055 195.93C405.94 195.971 405.802 196.005 405.641 196.031C405.479 196.062 405.292 196.078 405.078 196.078C404.391 196.078 403.88 195.914 403.547 195.586C403.219 195.258 403.055 194.768 403.055 194.117V189.258H402.188Z" fill="#2E2D2D"/>
<path d="M332.699 226.735C332.699 225.957 332.804 225.263 333.015 224.652C333.23 224.041 333.529 223.525 333.912 223.103C334.294 222.681 334.749 222.36 335.276 222.141C335.808 221.917 336.39 221.804 337.023 221.804C337.304 221.804 337.559 221.826 337.788 221.87C338.016 221.91 338.218 221.963 338.394 222.029C338.57 222.094 338.715 222.165 338.829 222.24C338.948 222.31 339.036 222.374 339.093 222.431C339.163 222.501 339.211 222.571 339.238 222.642C339.269 222.712 339.284 222.791 339.284 222.879C339.284 222.949 339.273 223.013 339.251 223.07C339.229 223.127 339.196 223.176 339.152 223.215C339.113 223.255 339.064 223.288 339.007 223.314C338.95 223.336 338.886 223.347 338.816 223.347C338.724 223.347 338.629 223.321 338.532 223.268C338.436 223.211 338.317 223.151 338.177 223.09C338.036 223.028 337.865 222.971 337.662 222.918C337.46 222.866 337.203 222.839 336.891 222.839C336.482 222.839 336.1 222.918 335.744 223.077C335.393 223.235 335.085 223.472 334.821 223.789C334.558 224.101 334.349 224.492 334.195 224.962C334.046 225.428 333.971 225.966 333.971 226.577C333.971 227.135 334.046 227.629 334.195 228.06C334.344 228.491 334.553 228.855 334.821 229.154C335.089 229.449 335.408 229.673 335.777 229.827C336.146 229.98 336.551 230.057 336.99 230.057C337.28 230.057 337.526 230.033 337.728 229.985C337.935 229.932 338.111 229.877 338.256 229.82C338.401 229.759 338.524 229.704 338.625 229.655C338.726 229.603 338.818 229.576 338.902 229.576C338.963 229.576 339.018 229.587 339.066 229.609C339.119 229.631 339.163 229.662 339.198 229.701C339.233 229.737 339.26 229.781 339.277 229.833C339.299 229.886 339.31 229.943 339.31 230.005C339.31 230.084 339.295 230.156 339.264 230.222C339.238 230.288 339.192 230.354 339.126 230.42C339.051 230.49 338.943 230.567 338.803 230.651C338.667 230.73 338.5 230.804 338.302 230.875C338.104 230.941 337.875 230.996 337.616 231.04C337.361 231.083 337.08 231.105 336.772 231.105C336.175 231.105 335.625 231.004 335.125 230.802C334.624 230.6 334.193 230.31 333.833 229.932C333.477 229.554 333.198 229.095 332.995 228.554C332.798 228.014 332.699 227.407 332.699 226.735ZM340.938 224.856C340.938 224.685 340.987 224.553 341.083 224.461C341.185 224.364 341.338 224.316 341.545 224.316C341.747 224.316 341.896 224.364 341.993 224.461C342.094 224.553 342.145 224.685 342.145 224.856V228.231C342.145 228.891 342.279 229.372 342.547 229.675C342.815 229.974 343.182 230.123 343.648 230.123C343.793 230.123 343.927 230.108 344.05 230.077C344.177 230.046 344.294 230.005 344.399 229.952C344.505 229.899 344.601 229.84 344.689 229.774C344.781 229.704 344.865 229.631 344.94 229.556C345.107 229.394 345.25 229.205 345.368 228.99V224.856C345.368 224.685 345.417 224.553 345.513 224.461C345.614 224.364 345.768 224.316 345.975 224.316C346.181 224.316 346.333 224.364 346.429 224.461C346.526 224.553 346.574 224.685 346.574 224.856V230.552C346.574 230.714 346.531 230.84 346.443 230.927C346.355 231.015 346.232 231.059 346.073 231.059C345.994 231.059 345.924 231.046 345.863 231.02C345.801 230.998 345.748 230.965 345.704 230.921C345.66 230.877 345.625 230.822 345.599 230.756C345.573 230.69 345.551 230.613 345.533 230.525L345.474 230.071H345.454C345.322 230.268 345.157 230.444 344.959 230.598C344.872 230.664 344.773 230.73 344.663 230.796C344.557 230.857 344.439 230.912 344.307 230.96C344.175 231.009 344.03 231.046 343.872 231.073C343.718 231.103 343.551 231.119 343.371 231.119C342.997 231.119 342.661 231.062 342.362 230.947C342.063 230.833 341.809 230.662 341.598 230.433C341.387 230.2 341.224 229.917 341.11 229.583C340.996 229.244 340.938 228.853 340.938 228.409V224.856ZM348.875 224.804C348.875 224.646 348.919 224.522 349.007 224.435C349.095 224.347 349.218 224.303 349.376 224.303C349.455 224.303 349.525 224.314 349.587 224.336C349.648 224.358 349.701 224.393 349.745 224.441C349.793 224.485 349.831 224.542 349.857 224.613C349.884 224.678 349.903 224.755 349.917 224.843L349.996 225.45H350.015C350.103 225.278 350.207 225.118 350.325 224.969C350.444 224.815 350.573 224.685 350.714 224.58C350.855 224.47 351.004 224.386 351.162 224.329C351.321 224.268 351.485 224.237 351.657 224.237C351.885 224.237 352.059 224.292 352.177 224.402C352.301 224.511 352.362 224.67 352.362 224.876C352.362 225.096 352.309 225.265 352.204 225.384C352.098 225.498 351.982 225.555 351.854 225.555C351.806 225.555 351.764 225.553 351.729 225.549C351.694 225.54 351.659 225.531 351.624 225.522C351.593 225.513 351.558 225.507 351.518 225.502C351.483 225.494 351.444 225.489 351.4 225.489C351.285 225.489 351.169 225.516 351.05 225.568C350.936 225.621 350.824 225.698 350.714 225.799C350.604 225.9 350.494 226.025 350.385 226.175C350.279 226.32 350.178 226.489 350.081 226.682V230.499C350.081 230.67 350.031 230.804 349.93 230.901C349.829 230.993 349.677 231.04 349.475 231.04C349.273 231.04 349.121 230.993 349.02 230.901C348.923 230.804 348.875 230.67 348.875 230.499V224.804ZM353.595 224.804C353.595 224.646 353.639 224.522 353.727 224.435C353.814 224.347 353.938 224.303 354.096 224.303C354.175 224.303 354.245 224.314 354.307 224.336C354.368 224.358 354.421 224.393 354.465 224.441C354.513 224.485 354.551 224.542 354.577 224.613C354.603 224.678 354.623 224.755 354.636 224.843L354.715 225.45H354.735C354.823 225.278 354.926 225.118 355.045 224.969C355.164 224.815 355.293 224.685 355.434 224.58C355.574 224.47 355.724 224.386 355.882 224.329C356.04 224.268 356.205 224.237 356.376 224.237C356.605 224.237 356.779 224.292 356.897 224.402C357.02 224.511 357.082 224.67 357.082 224.876C357.082 225.096 357.029 225.265 356.924 225.384C356.818 225.498 356.702 225.555 356.574 225.555C356.526 225.555 356.484 225.553 356.449 225.549C356.414 225.54 356.379 225.531 356.344 225.522C356.313 225.513 356.278 225.507 356.238 225.502C356.203 225.494 356.163 225.489 356.119 225.489C356.005 225.489 355.889 225.516 355.77 225.568C355.656 225.621 355.544 225.698 355.434 225.799C355.324 225.9 355.214 226.025 355.104 226.175C354.999 226.32 354.898 226.489 354.801 226.682V230.499C354.801 230.67 354.75 230.804 354.649 230.901C354.548 230.993 354.397 231.04 354.195 231.04C353.992 231.04 353.841 230.993 353.74 230.901C353.643 230.804 353.595 230.67 353.595 230.499V224.804ZM358.934 227.81V227.856C358.943 228.216 359 228.537 359.105 228.818C359.211 229.095 359.358 229.332 359.547 229.53C359.736 229.723 359.962 229.873 360.226 229.978C360.49 230.079 360.782 230.13 361.103 230.13C361.353 230.13 361.566 230.112 361.742 230.077C361.918 230.038 362.07 229.998 362.197 229.958C362.324 229.919 362.432 229.882 362.52 229.846C362.612 229.811 362.696 229.794 362.771 229.794C362.832 229.794 362.887 229.805 362.935 229.827C362.984 229.849 363.023 229.877 363.054 229.912C363.089 229.943 363.115 229.983 363.133 230.031C363.151 230.079 363.159 230.13 363.159 230.183C363.159 230.262 363.146 230.33 363.12 230.387C363.094 230.444 363.05 230.503 362.988 230.565C362.931 230.622 362.843 230.684 362.724 230.75C362.606 230.811 362.458 230.87 362.283 230.927C362.107 230.98 361.903 231.026 361.67 231.066C361.441 231.105 361.186 231.125 360.905 231.125C360.422 231.125 359.982 231.051 359.587 230.901C359.196 230.747 358.862 230.532 358.585 230.255C358.312 229.974 358.099 229.635 357.945 229.24C357.796 228.84 357.721 228.392 357.721 227.895C357.721 227.311 357.8 226.792 357.958 226.34C358.117 225.883 358.334 225.5 358.611 225.193C358.888 224.881 359.215 224.643 359.593 224.481C359.976 224.318 360.391 224.237 360.839 224.237C361.226 224.237 361.577 224.301 361.894 224.428C362.21 224.555 362.483 224.742 362.711 224.988C362.94 225.23 363.118 225.527 363.245 225.878C363.373 226.225 363.436 226.621 363.436 227.065C363.436 227.311 363.379 227.498 363.265 227.625C363.151 227.748 362.977 227.81 362.744 227.81H358.934ZM362.302 226.946C362.241 226.34 362.076 225.891 361.808 225.601C361.54 225.311 361.169 225.166 360.694 225.166C360.496 225.166 360.305 225.204 360.121 225.278C359.94 225.349 359.773 225.458 359.62 225.608C359.47 225.753 359.341 225.938 359.231 226.162C359.121 226.381 359.04 226.643 358.987 226.946H362.302ZM365.275 224.804C365.275 224.646 365.319 224.522 365.407 224.435C365.495 224.347 365.618 224.303 365.776 224.303C365.855 224.303 365.926 224.314 365.987 224.336C366.049 224.358 366.102 224.391 366.146 224.435C366.189 224.479 366.225 224.533 366.251 224.599C366.282 224.665 366.304 224.742 366.317 224.83L366.376 225.285H366.396C366.528 225.087 366.693 224.911 366.89 224.758C366.974 224.692 367.071 224.628 367.18 224.566C367.29 224.505 367.411 224.45 367.543 224.402C367.675 224.353 367.818 224.314 367.971 224.283C368.13 224.252 368.299 224.237 368.479 224.237C368.861 224.237 369.206 224.296 369.514 224.415C369.822 224.529 370.081 224.7 370.292 224.929C370.507 225.157 370.672 225.441 370.786 225.779C370.9 226.118 370.958 226.509 370.958 226.953V230.499C370.958 230.67 370.907 230.804 370.806 230.901C370.709 230.993 370.56 231.04 370.358 231.04C370.156 231.04 370.004 230.993 369.903 230.901C369.802 230.804 369.751 230.67 369.751 230.499V227.124C369.751 226.794 369.716 226.511 369.646 226.274C369.58 226.036 369.479 225.841 369.343 225.687C369.211 225.529 369.048 225.415 368.855 225.344C368.666 225.27 368.448 225.232 368.202 225.232C368.057 225.232 367.921 225.25 367.793 225.285C367.67 225.316 367.554 225.357 367.444 225.41C367.339 225.463 367.24 225.524 367.147 225.595C367.06 225.661 366.98 225.729 366.91 225.799C366.739 225.966 366.596 226.155 366.482 226.366V230.499C366.482 230.67 366.431 230.804 366.33 230.901C366.229 230.993 366.077 231.04 365.875 231.04C365.673 231.04 365.521 230.993 365.42 230.901C365.324 230.804 365.275 230.67 365.275 230.499V224.804ZM372.685 225.311C372.553 225.311 372.447 225.272 372.368 225.193C372.289 225.109 372.25 224.99 372.25 224.837C372.25 224.683 372.289 224.564 372.368 224.481C372.447 224.397 372.553 224.355 372.685 224.355H373.429L373.594 223.11C373.621 222.921 373.68 222.78 373.772 222.688C373.869 222.595 373.994 222.549 374.148 222.549C374.297 222.549 374.414 222.593 374.497 222.681C374.581 222.765 374.623 222.885 374.623 223.044V224.355H376.007C376.139 224.355 376.244 224.397 376.323 224.481C376.402 224.564 376.442 224.683 376.442 224.837C376.442 224.99 376.402 225.109 376.323 225.193C376.244 225.272 376.139 225.311 376.007 225.311H374.623V229.108C374.623 229.469 374.686 229.721 374.814 229.866C374.941 230.011 375.135 230.084 375.394 230.084C375.495 230.084 375.581 230.079 375.651 230.071C375.726 230.057 375.789 230.042 375.842 230.024C375.899 230.007 375.95 229.994 375.994 229.985C376.038 229.972 376.082 229.965 376.125 229.965C376.183 229.965 376.233 229.974 376.277 229.991C376.321 230.009 376.358 230.035 376.389 230.071C376.42 230.106 376.444 230.147 376.462 230.196C376.484 230.24 376.495 230.29 376.495 230.347C376.495 230.435 376.479 230.508 376.448 230.565C376.418 230.622 376.378 230.675 376.33 230.723C376.299 230.754 376.253 230.789 376.191 230.829C376.13 230.868 376.049 230.906 375.948 230.941C375.851 230.976 375.734 231.004 375.598 231.026C375.462 231.053 375.304 231.066 375.124 231.066C374.543 231.066 374.113 230.927 373.832 230.651C373.555 230.374 373.416 229.961 373.416 229.411V225.311H372.685ZM380.924 225.311C380.792 225.311 380.687 225.272 380.608 225.193C380.529 225.109 380.489 224.99 380.489 224.837C380.489 224.683 380.529 224.564 380.608 224.481C380.687 224.397 380.792 224.355 380.924 224.355H381.669L381.834 223.11C381.86 222.921 381.92 222.78 382.012 222.688C382.109 222.595 382.234 222.549 382.388 222.549C382.537 222.549 382.654 222.593 382.737 222.681C382.821 222.765 382.862 222.885 382.862 223.044V224.355H384.247C384.378 224.355 384.484 224.397 384.563 224.481C384.642 224.564 384.682 224.683 384.682 224.837C384.682 224.99 384.642 225.109 384.563 225.193C384.484 225.272 384.378 225.311 384.247 225.311H382.862V229.108C382.862 229.469 382.926 229.721 383.053 229.866C383.181 230.011 383.374 230.084 383.634 230.084C383.735 230.084 383.82 230.079 383.891 230.071C383.965 230.057 384.029 230.042 384.082 230.024C384.139 230.007 384.189 229.994 384.233 229.985C384.277 229.972 384.321 229.965 384.365 229.965C384.422 229.965 384.473 229.974 384.517 229.991C384.561 230.009 384.598 230.035 384.629 230.071C384.66 230.106 384.684 230.147 384.701 230.196C384.723 230.24 384.734 230.29 384.734 230.347C384.734 230.435 384.719 230.508 384.688 230.565C384.657 230.622 384.618 230.675 384.57 230.723C384.539 230.754 384.493 230.789 384.431 230.829C384.37 230.868 384.288 230.906 384.187 230.941C384.091 230.976 383.974 231.004 383.838 231.026C383.702 231.053 383.543 231.066 383.363 231.066C382.783 231.066 382.353 230.927 382.071 230.651C381.794 230.374 381.656 229.961 381.656 229.411V225.311H380.924ZM386.725 227.81V227.856C386.734 228.216 386.791 228.537 386.896 228.818C387.002 229.095 387.149 229.332 387.338 229.53C387.527 229.723 387.753 229.873 388.017 229.978C388.281 230.079 388.573 230.13 388.894 230.13C389.144 230.13 389.357 230.112 389.533 230.077C389.709 230.038 389.861 229.998 389.988 229.958C390.115 229.919 390.223 229.882 390.311 229.846C390.403 229.811 390.487 229.794 390.562 229.794C390.623 229.794 390.678 229.805 390.726 229.827C390.775 229.849 390.814 229.877 390.845 229.912C390.88 229.943 390.906 229.983 390.924 230.031C390.942 230.079 390.95 230.13 390.95 230.183C390.95 230.262 390.937 230.33 390.911 230.387C390.885 230.444 390.841 230.503 390.779 230.565C390.722 230.622 390.634 230.684 390.515 230.75C390.397 230.811 390.25 230.87 390.074 230.927C389.898 230.98 389.694 231.026 389.461 231.066C389.232 231.105 388.977 231.125 388.696 231.125C388.213 231.125 387.773 231.051 387.378 230.901C386.987 230.747 386.653 230.532 386.376 230.255C386.103 229.974 385.89 229.635 385.736 229.24C385.587 228.84 385.512 228.392 385.512 227.895C385.512 227.311 385.591 226.792 385.75 226.34C385.908 225.883 386.125 225.5 386.402 225.193C386.679 224.881 387.006 224.643 387.384 224.481C387.767 224.318 388.182 224.237 388.63 224.237C389.017 224.237 389.368 224.301 389.685 224.428C390.001 224.555 390.274 224.742 390.502 224.988C390.731 225.23 390.909 225.527 391.036 225.878C391.164 226.225 391.227 226.621 391.227 227.065C391.227 227.311 391.17 227.498 391.056 227.625C390.942 227.748 390.768 227.81 390.535 227.81H386.725ZM390.094 226.946C390.032 226.34 389.867 225.891 389.599 225.601C389.331 225.311 388.96 225.166 388.485 225.166C388.287 225.166 388.096 225.204 387.912 225.278C387.731 225.349 387.564 225.458 387.411 225.608C387.261 225.753 387.132 225.938 387.022 226.162C386.912 226.381 386.831 226.643 386.778 226.946H390.094ZM392.823 225.522C392.77 225.456 392.721 225.399 392.677 225.351C392.638 225.298 392.603 225.25 392.572 225.206C392.541 225.162 392.519 225.12 392.506 225.081C392.493 225.037 392.486 224.993 392.486 224.949C392.486 224.852 392.506 224.764 392.546 224.685C392.59 224.606 392.645 224.538 392.71 224.481C392.781 224.419 392.855 224.373 392.935 224.342C393.014 224.312 393.091 224.296 393.165 224.296C393.227 224.296 393.282 224.307 393.33 224.329C393.383 224.347 393.431 224.375 393.475 224.415C393.484 224.424 393.495 224.435 393.508 224.448C393.521 224.461 393.537 224.479 393.554 224.5C393.572 224.522 393.596 224.553 393.627 224.593C393.662 224.628 393.704 224.678 393.752 224.744L395.387 226.808L396.903 224.771C396.951 224.705 396.991 224.652 397.021 224.613C397.052 224.573 397.079 224.542 397.101 224.52C397.123 224.494 397.138 224.476 397.147 224.468C397.156 224.454 397.167 224.441 397.18 224.428C397.219 224.388 397.265 224.358 397.318 224.336C397.371 224.309 397.432 224.296 397.503 224.296C397.577 224.296 397.652 224.312 397.727 224.342C397.802 224.373 397.867 224.415 397.925 224.468C397.986 224.516 398.034 224.575 398.07 224.646C398.109 224.716 398.129 224.793 398.129 224.876C398.129 224.92 398.122 224.962 398.109 225.001C398.096 225.041 398.074 225.083 398.043 225.127C398.017 225.171 397.982 225.219 397.938 225.272C397.898 225.32 397.852 225.375 397.799 225.437L396.039 227.566L397.918 229.833C397.971 229.899 398.017 229.958 398.056 230.011C398.1 230.06 398.135 230.106 398.162 230.15C398.193 230.194 398.215 230.238 398.228 230.281C398.245 230.325 398.254 230.369 398.254 230.413C398.254 230.51 398.232 230.598 398.188 230.677C398.144 230.756 398.089 230.824 398.023 230.881C397.958 230.938 397.885 230.982 397.806 231.013C397.727 231.044 397.65 231.059 397.575 231.059C397.514 231.059 397.457 231.048 397.404 231.026C397.351 231.009 397.305 230.98 397.265 230.941C397.252 230.932 397.239 230.921 397.226 230.908C397.217 230.895 397.202 230.877 397.18 230.855C397.162 230.833 397.138 230.804 397.107 230.769C397.076 230.73 397.037 230.677 396.989 230.611L395.215 228.383L393.567 230.585C393.519 230.651 393.479 230.703 393.449 230.743C393.418 230.782 393.392 230.815 393.37 230.842C393.352 230.864 393.337 230.881 393.323 230.895C393.315 230.908 393.306 230.919 393.297 230.927C393.253 230.971 393.203 231.004 393.146 231.026C393.093 231.048 393.033 231.059 392.968 231.059C392.893 231.059 392.818 231.044 392.743 231.013C392.673 230.987 392.609 230.949 392.552 230.901C392.495 230.848 392.447 230.787 392.407 230.717C392.368 230.642 392.348 230.565 392.348 230.486C392.348 230.442 392.354 230.4 392.368 230.361C392.385 230.317 392.407 230.273 392.434 230.229C392.46 230.185 392.493 230.139 392.532 230.09C392.576 230.038 392.625 229.98 392.677 229.919L394.563 227.632L392.823 225.522ZM399.355 225.311C399.223 225.311 399.118 225.272 399.039 225.193C398.959 225.109 398.92 224.99 398.92 224.837C398.92 224.683 398.959 224.564 399.039 224.481C399.118 224.397 399.223 224.355 399.355 224.355H400.1L400.265 223.11C400.291 222.921 400.35 222.78 400.443 222.688C400.539 222.595 400.665 222.549 400.818 222.549C400.968 222.549 401.084 222.593 401.168 222.681C401.251 222.765 401.293 222.885 401.293 223.044V224.355H402.677C402.809 224.355 402.915 224.397 402.994 224.481C403.073 224.564 403.112 224.683 403.112 224.837C403.112 224.99 403.073 225.109 402.994 225.193C402.915 225.272 402.809 225.311 402.677 225.311H401.293V229.108C401.293 229.469 401.357 229.721 401.484 229.866C401.612 230.011 401.805 230.084 402.064 230.084C402.165 230.084 402.251 230.079 402.321 230.071C402.396 230.057 402.46 230.042 402.512 230.024C402.57 230.007 402.62 229.994 402.664 229.985C402.708 229.972 402.752 229.965 402.796 229.965C402.853 229.965 402.904 229.974 402.948 229.991C402.991 230.009 403.029 230.035 403.06 230.071C403.09 230.106 403.115 230.147 403.132 230.196C403.154 230.24 403.165 230.29 403.165 230.347C403.165 230.435 403.15 230.508 403.119 230.565C403.088 230.622 403.049 230.675 403 230.723C402.969 230.754 402.923 230.789 402.862 230.829C402.8 230.868 402.719 230.906 402.618 230.941C402.521 230.976 402.405 231.004 402.269 231.026C402.132 231.053 401.974 231.066 401.794 231.066C401.214 231.066 400.783 230.927 400.502 230.651C400.225 230.374 400.087 229.961 400.087 229.411V225.311H399.355Z" fill="#2E2D2D"/>
<path d="M337.45 264.042C337.585 264.042 337.691 264.082 337.768 264.164C337.845 264.245 337.884 264.365 337.884 264.524C337.884 264.683 337.845 264.803 337.768 264.884C337.691 264.961 337.585 265 337.45 265H333.727C333.552 265 333.416 264.953 333.318 264.86C333.225 264.762 333.178 264.626 333.178 264.451V257.059C333.178 256.897 333.225 256.772 333.318 256.687C333.412 256.597 333.556 256.553 333.752 256.553C333.943 256.553 334.085 256.597 334.179 256.687C334.277 256.772 334.325 256.897 334.325 257.059V264.042H337.45ZM339.666 262.046V262.089C339.674 262.422 339.727 262.719 339.825 262.98C339.922 263.236 340.059 263.456 340.234 263.639C340.409 263.818 340.618 263.956 340.862 264.054C341.106 264.148 341.377 264.194 341.674 264.194C341.906 264.194 342.103 264.178 342.266 264.146C342.429 264.109 342.569 264.072 342.687 264.036C342.805 263.999 342.905 263.964 342.986 263.932C343.072 263.899 343.149 263.883 343.218 263.883C343.275 263.883 343.326 263.893 343.371 263.914C343.416 263.934 343.452 263.96 343.481 263.993C343.513 264.021 343.538 264.058 343.554 264.103C343.57 264.148 343.578 264.194 343.578 264.243C343.578 264.316 343.566 264.379 343.542 264.432C343.517 264.485 343.477 264.54 343.42 264.597C343.367 264.65 343.285 264.707 343.176 264.768C343.066 264.825 342.929 264.88 342.767 264.933C342.604 264.982 342.415 265.024 342.199 265.061C341.987 265.098 341.751 265.116 341.491 265.116C341.043 265.116 340.636 265.047 340.27 264.908C339.908 264.766 339.599 264.567 339.343 264.31C339.09 264.05 338.893 263.737 338.75 263.37C338.612 263 338.543 262.585 338.543 262.125C338.543 261.584 338.616 261.104 338.763 260.685C338.909 260.262 339.111 259.908 339.367 259.623C339.623 259.334 339.926 259.114 340.276 258.964C340.63 258.813 341.015 258.738 341.43 258.738C341.788 258.738 342.114 258.797 342.406 258.915C342.699 259.033 342.952 259.206 343.163 259.434C343.375 259.657 343.54 259.932 343.658 260.258C343.776 260.579 343.835 260.945 343.835 261.356C343.835 261.584 343.782 261.757 343.676 261.875C343.57 261.989 343.41 262.046 343.194 262.046H339.666ZM342.785 261.246C342.728 260.685 342.575 260.27 342.327 260.001C342.079 259.733 341.735 259.598 341.296 259.598C341.113 259.598 340.936 259.633 340.765 259.702C340.598 259.767 340.443 259.869 340.301 260.007C340.162 260.142 340.042 260.312 339.941 260.52C339.839 260.723 339.764 260.966 339.715 261.246H342.785ZM349.578 259.366C349.782 259.55 349.936 259.763 350.042 260.007C350.152 260.247 350.207 260.506 350.207 260.782C350.207 261.104 350.15 261.401 350.036 261.674C349.926 261.942 349.763 262.172 349.548 262.363C349.332 262.555 349.065 262.705 348.748 262.815C348.435 262.925 348.073 262.98 347.662 262.98C347.503 262.98 347.348 262.968 347.198 262.943C347.051 262.919 346.915 262.884 346.789 262.839C346.728 262.892 346.671 262.953 346.618 263.022C346.577 263.079 346.541 263.147 346.508 263.224C346.476 263.297 346.459 263.376 346.459 263.462C346.459 263.56 346.478 263.649 346.514 263.73C346.555 263.808 346.622 263.877 346.716 263.938C346.809 263.995 346.933 264.04 347.088 264.072C347.247 264.101 347.446 264.115 347.686 264.115H348.4C348.787 264.115 349.122 264.154 349.407 264.231C349.692 264.304 349.928 264.414 350.115 264.561C350.302 264.703 350.443 264.876 350.536 265.079C350.63 265.287 350.677 265.521 350.677 265.781C350.677 266.082 350.61 266.367 350.475 266.636C350.345 266.908 350.148 267.144 349.883 267.344C349.623 267.547 349.297 267.708 348.907 267.826C348.52 267.944 348.069 268.003 347.552 268.003C347.088 268.003 346.687 267.952 346.349 267.85C346.012 267.753 345.733 267.62 345.513 267.454C345.298 267.287 345.137 267.091 345.031 266.868C344.929 266.648 344.878 266.414 344.878 266.166C344.878 265.885 344.927 265.641 345.025 265.433C345.127 265.23 345.239 265.061 345.361 264.927C345.499 264.764 345.66 264.632 345.843 264.53C345.7 264.404 345.597 264.264 345.531 264.109C345.466 263.95 345.434 263.783 345.434 263.608C345.434 263.442 345.464 263.289 345.525 263.151C345.59 263.012 345.66 262.892 345.733 262.791C345.822 262.677 345.926 262.571 346.044 262.473C345.796 262.29 345.605 262.066 345.47 261.802C345.336 261.533 345.269 261.246 345.269 260.941C345.269 260.62 345.326 260.325 345.44 260.056C345.554 259.788 345.719 259.558 345.934 259.366C346.15 259.171 346.414 259.019 346.728 258.909C347.045 258.799 347.407 258.744 347.814 258.744C348.01 258.744 348.193 258.76 348.364 258.793C348.534 258.825 348.697 258.872 348.852 258.933L349.578 258.085C349.668 257.975 349.745 257.9 349.81 257.859C349.875 257.818 349.95 257.798 350.036 257.798C350.097 257.798 350.156 257.81 350.213 257.834C350.27 257.859 350.321 257.893 350.365 257.938C350.414 257.979 350.453 258.028 350.481 258.085C350.51 258.142 350.524 258.205 350.524 258.274C350.524 258.355 350.498 258.431 350.445 258.5C350.396 258.569 350.319 258.654 350.213 258.756L349.578 259.366ZM347.509 265.006C347.33 265.006 347.167 264.998 347.021 264.982C346.874 264.961 346.734 264.931 346.6 264.89C346.486 264.98 346.386 265.079 346.301 265.189C346.223 265.287 346.152 265.405 346.087 265.543C346.026 265.682 345.995 265.84 345.995 266.019C345.995 266.178 346.028 266.324 346.093 266.459C346.158 266.593 346.258 266.711 346.392 266.813C346.53 266.914 346.703 266.994 346.911 267.051C347.122 267.108 347.371 267.136 347.656 267.136C347.973 267.136 348.252 267.104 348.492 267.039C348.732 266.973 348.931 266.886 349.09 266.776C349.249 266.666 349.367 266.538 349.444 266.392C349.525 266.245 349.566 266.09 349.566 265.928C349.566 265.785 349.542 265.657 349.493 265.543C349.448 265.433 349.371 265.338 349.261 265.256C349.155 265.175 349.013 265.112 348.833 265.067C348.659 265.026 348.445 265.006 348.193 265.006H347.509ZM346.374 260.85C346.374 261.037 346.404 261.208 346.465 261.362C346.53 261.517 346.62 261.651 346.734 261.765C346.852 261.875 346.996 261.96 347.167 262.021C347.342 262.083 347.535 262.113 347.747 262.113C347.967 262.113 348.16 262.085 348.327 262.028C348.494 261.967 348.634 261.883 348.748 261.777C348.866 261.667 348.956 261.537 349.017 261.387C349.078 261.232 349.108 261.061 349.108 260.874C349.108 260.687 349.076 260.516 349.01 260.361C348.949 260.207 348.86 260.074 348.742 259.965C348.624 259.851 348.479 259.763 348.309 259.702C348.138 259.641 347.942 259.611 347.723 259.611C347.511 259.611 347.32 259.641 347.149 259.702C346.982 259.759 346.842 259.843 346.728 259.952C346.614 260.058 346.526 260.188 346.465 260.343C346.404 260.494 346.374 260.662 346.374 260.85ZM352.618 262.046V262.089C352.626 262.422 352.679 262.719 352.776 262.98C352.874 263.236 353.01 263.456 353.185 263.639C353.36 263.818 353.57 263.956 353.814 264.054C354.058 264.148 354.329 264.194 354.626 264.194C354.858 264.194 355.055 264.178 355.218 264.146C355.381 264.109 355.521 264.072 355.639 264.036C355.757 263.999 355.857 263.964 355.938 263.932C356.023 263.899 356.101 263.883 356.17 263.883C356.227 263.883 356.278 263.893 356.323 263.914C356.367 263.934 356.404 263.96 356.432 263.993C356.465 264.021 356.489 264.058 356.506 264.103C356.522 264.148 356.53 264.194 356.53 264.243C356.53 264.316 356.518 264.379 356.493 264.432C356.469 264.485 356.428 264.54 356.371 264.597C356.318 264.65 356.237 264.707 356.127 264.768C356.017 264.825 355.881 264.88 355.718 264.933C355.556 264.982 355.366 265.024 355.151 265.061C354.939 265.098 354.703 265.116 354.443 265.116C353.995 265.116 353.588 265.047 353.222 264.908C352.86 264.766 352.551 264.567 352.294 264.31C352.042 264.05 351.845 263.737 351.702 263.37C351.564 263 351.495 262.585 351.495 262.125C351.495 261.584 351.568 261.104 351.714 260.685C351.861 260.262 352.062 259.908 352.319 259.623C352.575 259.334 352.878 259.114 353.228 258.964C353.582 258.813 353.967 258.738 354.382 258.738C354.74 258.738 355.065 258.797 355.358 258.915C355.651 259.033 355.903 259.206 356.115 259.434C356.327 259.657 356.491 259.932 356.609 260.258C356.727 260.579 356.786 260.945 356.786 261.356C356.786 261.584 356.733 261.757 356.628 261.875C356.522 261.989 356.361 262.046 356.146 262.046H352.618ZM355.737 261.246C355.68 260.685 355.527 260.27 355.279 260.001C355.031 259.733 354.687 259.598 354.247 259.598C354.064 259.598 353.887 259.633 353.716 259.702C353.549 259.767 353.395 259.869 353.252 260.007C353.114 260.142 352.994 260.312 352.892 260.52C352.791 260.723 352.715 260.966 352.667 261.246H355.737ZM358.489 259.263C358.489 259.116 358.53 259.002 358.611 258.921C358.693 258.84 358.807 258.799 358.953 258.799C359.026 258.799 359.091 258.809 359.148 258.829C359.205 258.85 359.254 258.88 359.295 258.921C359.336 258.962 359.368 259.012 359.393 259.073C359.421 259.135 359.441 259.206 359.454 259.287L359.509 259.708H359.527C359.649 259.525 359.802 259.362 359.985 259.22C360.062 259.159 360.151 259.1 360.253 259.043C360.355 258.986 360.467 258.935 360.589 258.89C360.711 258.846 360.843 258.809 360.986 258.781C361.132 258.752 361.289 258.738 361.456 258.738C361.81 258.738 362.129 258.793 362.414 258.903C362.699 259.008 362.939 259.167 363.134 259.379C363.333 259.59 363.486 259.853 363.592 260.166C363.698 260.479 363.75 260.841 363.75 261.252V264.536C363.75 264.695 363.704 264.819 363.61 264.908C363.521 264.994 363.382 265.037 363.195 265.037C363.008 265.037 362.868 264.994 362.774 264.908C362.68 264.819 362.634 264.695 362.634 264.536V261.411C362.634 261.106 362.601 260.844 362.536 260.624C362.475 260.404 362.381 260.223 362.255 260.081C362.133 259.934 361.983 259.828 361.803 259.763C361.628 259.694 361.427 259.659 361.199 259.659C361.065 259.659 360.939 259.676 360.821 259.708C360.707 259.737 360.599 259.775 360.497 259.824C360.4 259.873 360.308 259.93 360.223 259.995C360.141 260.056 360.068 260.119 360.003 260.184C359.844 260.339 359.712 260.514 359.606 260.709V264.536C359.606 264.695 359.559 264.819 359.466 264.908C359.372 264.994 359.232 265.037 359.045 265.037C358.858 265.037 358.717 264.994 358.624 264.908C358.534 264.819 358.489 264.695 358.489 264.536V259.263ZM369.701 256.449C369.701 256.29 369.746 256.168 369.836 256.083C369.929 255.993 370.07 255.948 370.257 255.948C370.444 255.948 370.584 255.993 370.678 256.083C370.772 256.168 370.818 256.29 370.818 256.449V264.585C370.818 264.736 370.778 264.851 370.696 264.933C370.615 265.014 370.499 265.055 370.348 265.055C370.275 265.055 370.21 265.043 370.153 265.018C370.096 264.998 370.047 264.967 370.007 264.927C369.966 264.886 369.933 264.835 369.909 264.774C369.885 264.713 369.866 264.642 369.854 264.561L369.793 264.139H369.775C369.649 264.323 369.494 264.485 369.311 264.628C369.152 264.75 368.951 264.862 368.707 264.963C368.466 265.061 368.182 265.11 367.852 265.11C367.478 265.11 367.136 265.047 366.827 264.921C366.521 264.795 366.259 264.605 366.039 264.353C365.824 264.101 365.655 263.787 365.533 263.413C365.411 263.035 365.35 262.593 365.35 262.089C365.35 261.556 365.425 261.082 365.575 260.667C365.726 260.251 365.942 259.902 366.222 259.617C366.503 259.328 366.845 259.11 367.248 258.964C367.655 258.813 368.115 258.738 368.627 258.738C368.782 258.738 368.924 258.746 369.054 258.762C369.185 258.778 369.297 258.795 369.39 258.811C369.504 258.835 369.608 258.86 369.701 258.884L369.72 258.878C369.708 258.63 369.701 258.368 369.701 258.091V256.449ZM369.701 259.891C369.616 259.847 369.512 259.806 369.39 259.769C369.288 259.737 369.162 259.708 369.012 259.684C368.861 259.655 368.686 259.641 368.487 259.641C368.194 259.641 367.923 259.692 367.675 259.794C367.431 259.891 367.221 260.04 367.046 260.239C366.871 260.435 366.735 260.679 366.637 260.972C366.544 261.261 366.497 261.594 366.497 261.973C366.497 262.371 366.534 262.711 366.607 262.992C366.684 263.269 366.792 263.497 366.93 263.676C367.069 263.855 367.238 263.985 367.437 264.066C367.636 264.148 367.858 264.188 368.102 264.188C368.237 264.188 368.361 264.174 368.475 264.146C368.593 264.117 368.7 264.078 368.798 264.03C368.9 263.981 368.991 263.926 369.073 263.865C369.154 263.8 369.229 263.733 369.299 263.663C369.457 263.513 369.592 263.338 369.701 263.138V259.891ZM375.811 257.548C375.677 257.548 375.571 257.507 375.494 257.426C375.416 257.344 375.378 257.224 375.378 257.065C375.378 256.907 375.416 256.789 375.494 256.711C375.571 256.63 375.677 256.589 375.811 256.589H381.42C381.554 256.589 381.66 256.63 381.738 256.711C381.815 256.789 381.854 256.907 381.854 257.065C381.854 257.224 381.815 257.344 381.738 257.426C381.66 257.507 381.554 257.548 381.42 257.548H379.186V264.53C379.186 264.693 379.139 264.819 379.046 264.908C378.952 264.994 378.81 265.037 378.619 265.037C378.423 265.037 378.279 264.994 378.185 264.908C378.092 264.819 378.045 264.693 378.045 264.53V257.548H375.811ZM382.903 262.046V262.089C382.911 262.422 382.964 262.719 383.062 262.98C383.16 263.236 383.296 263.456 383.471 263.639C383.646 263.818 383.855 263.956 384.1 264.054C384.344 264.148 384.614 264.194 384.911 264.194C385.143 264.194 385.341 264.178 385.503 264.146C385.666 264.109 385.807 264.072 385.925 264.036C386.043 263.999 386.142 263.964 386.224 263.932C386.309 263.899 386.386 263.883 386.456 263.883C386.513 263.883 386.563 263.893 386.608 263.914C386.653 263.934 386.69 263.96 386.718 263.993C386.751 264.021 386.775 264.058 386.791 264.103C386.808 264.148 386.816 264.194 386.816 264.243C386.816 264.316 386.803 264.379 386.779 264.432C386.755 264.485 386.714 264.54 386.657 264.597C386.604 264.65 386.523 264.707 386.413 264.768C386.303 264.825 386.167 264.88 386.004 264.933C385.841 264.982 385.652 265.024 385.436 265.061C385.225 265.098 384.989 265.116 384.728 265.116C384.281 265.116 383.874 265.047 383.508 264.908C383.145 264.766 382.836 264.567 382.58 264.31C382.328 264.05 382.13 263.737 381.988 263.37C381.849 263 381.78 262.585 381.78 262.125C381.78 261.584 381.854 261.104 382 260.685C382.146 260.262 382.348 259.908 382.604 259.623C382.861 259.334 383.164 259.114 383.514 258.964C383.868 258.813 384.252 258.738 384.667 258.738C385.025 258.738 385.351 258.797 385.644 258.915C385.937 259.033 386.189 259.206 386.401 259.434C386.612 259.657 386.777 259.932 386.895 260.258C387.013 260.579 387.072 260.945 387.072 261.356C387.072 261.584 387.019 261.757 386.913 261.875C386.808 261.989 386.647 262.046 386.431 262.046H382.903ZM386.022 261.246C385.965 260.685 385.813 260.27 385.564 260.001C385.316 259.733 384.972 259.598 384.533 259.598C384.35 259.598 384.173 259.633 384.002 259.702C383.835 259.767 383.681 259.869 383.538 260.007C383.4 260.142 383.28 260.312 383.178 260.52C383.076 260.723 383.001 260.966 382.952 261.246H386.022ZM388.549 259.928C388.5 259.867 388.455 259.814 388.415 259.769C388.378 259.72 388.346 259.676 388.317 259.635C388.289 259.594 388.268 259.556 388.256 259.519C388.244 259.478 388.238 259.438 388.238 259.397C388.238 259.307 388.256 259.226 388.293 259.153C388.333 259.08 388.384 259.017 388.445 258.964C388.51 258.907 388.58 258.864 388.653 258.835C388.726 258.807 388.797 258.793 388.866 258.793C388.923 258.793 388.974 258.803 389.019 258.823C389.068 258.84 389.113 258.866 389.153 258.903C389.161 258.911 389.172 258.921 389.184 258.933C389.196 258.945 389.21 258.962 389.227 258.982C389.243 259.002 389.265 259.031 389.294 259.067C389.326 259.1 389.365 259.147 389.41 259.208L390.923 261.118L392.327 259.232C392.372 259.171 392.409 259.122 392.437 259.086C392.465 259.049 392.49 259.021 392.51 259C392.531 258.976 392.545 258.96 392.553 258.951C392.561 258.939 392.571 258.927 392.583 258.915C392.62 258.878 392.663 258.85 392.712 258.829C392.76 258.805 392.817 258.793 392.883 258.793C392.952 258.793 393.021 258.807 393.09 258.835C393.159 258.864 393.22 258.903 393.273 258.951C393.33 258.996 393.375 259.051 393.407 259.116C393.444 259.181 393.462 259.253 393.462 259.33C393.462 259.371 393.456 259.409 393.444 259.446C393.432 259.482 393.412 259.521 393.383 259.562C393.359 259.602 393.326 259.647 393.285 259.696C393.249 259.741 393.206 259.792 393.157 259.849L391.528 261.82L393.267 263.92C393.316 263.981 393.359 264.036 393.395 264.084C393.436 264.129 393.469 264.172 393.493 264.213C393.521 264.253 393.542 264.294 393.554 264.335C393.57 264.375 393.578 264.416 393.578 264.457C393.578 264.546 393.558 264.628 393.517 264.701C393.477 264.774 393.426 264.837 393.365 264.89C393.304 264.943 393.237 264.984 393.163 265.012C393.09 265.041 393.019 265.055 392.95 265.055C392.893 265.055 392.84 265.045 392.791 265.024C392.742 265.008 392.699 264.982 392.663 264.945C392.651 264.937 392.638 264.927 392.626 264.915C392.618 264.902 392.604 264.886 392.583 264.866C392.567 264.845 392.545 264.819 392.516 264.786C392.488 264.75 392.451 264.701 392.406 264.64L390.765 262.577L389.239 264.615C389.194 264.677 389.157 264.725 389.129 264.762C389.1 264.799 389.076 264.829 389.056 264.854C389.039 264.874 389.025 264.89 389.013 264.902C389.005 264.915 388.997 264.925 388.989 264.933C388.948 264.974 388.901 265.004 388.848 265.024C388.799 265.045 388.744 265.055 388.683 265.055C388.614 265.055 388.545 265.041 388.476 265.012C388.411 264.988 388.352 264.953 388.299 264.908C388.246 264.86 388.201 264.803 388.165 264.738C388.128 264.668 388.11 264.597 388.11 264.524C388.11 264.483 388.116 264.445 388.128 264.408C388.144 264.367 388.165 264.327 388.189 264.286C388.213 264.245 388.244 264.202 388.281 264.158C388.321 264.109 388.366 264.056 388.415 263.999L390.16 261.881L388.549 259.928ZM394.598 259.733C394.476 259.733 394.378 259.696 394.305 259.623C394.231 259.545 394.195 259.436 394.195 259.293C394.195 259.151 394.231 259.041 394.305 258.964C394.378 258.886 394.476 258.848 394.598 258.848H395.287L395.44 257.694C395.464 257.519 395.519 257.389 395.605 257.303C395.694 257.218 395.81 257.175 395.953 257.175C396.091 257.175 396.199 257.216 396.276 257.297C396.353 257.375 396.392 257.487 396.392 257.633V258.848H397.674C397.796 258.848 397.894 258.886 397.967 258.964C398.04 259.041 398.077 259.151 398.077 259.293C398.077 259.436 398.04 259.545 397.967 259.623C397.894 259.696 397.796 259.733 397.674 259.733H396.392V263.248C396.392 263.582 396.451 263.816 396.569 263.95C396.687 264.084 396.866 264.152 397.106 264.152C397.2 264.152 397.279 264.148 397.344 264.139C397.413 264.127 397.472 264.113 397.521 264.097C397.574 264.08 397.621 264.068 397.662 264.06C397.702 264.048 397.743 264.042 397.784 264.042C397.837 264.042 397.883 264.05 397.924 264.066C397.965 264.082 397.999 264.107 398.028 264.139C398.056 264.172 398.079 264.211 398.095 264.255C398.115 264.296 398.125 264.343 398.125 264.396C398.125 264.477 398.111 264.544 398.083 264.597C398.054 264.65 398.018 264.699 397.973 264.744C397.944 264.772 397.902 264.805 397.845 264.841C397.788 264.878 397.712 264.913 397.619 264.945C397.529 264.978 397.422 265.004 397.295 265.024C397.169 265.049 397.023 265.061 396.856 265.061C396.319 265.061 395.92 264.933 395.66 264.677C395.403 264.42 395.275 264.038 395.275 263.529V259.733H394.598Z" fill="#2E2D2D"/>
</svg>
